<svg class="h-6 w-6" viewBox="0 0 20 20" fill="none" xmlns="http://www.w3.org/2000/svg">
<path fillRule="evenodd" clipRule="evenodd" d="M19.9805 4.78218C19.9935 4.80901 20 4.83584 20 4.86267V15.2462C20 15.7828 19.8698 16.2926 19.6094 16.7755C19.349 17.2585 18.9583 17.5 18.4375 17.5H2.1875C1.66666 17.5 1.17188 17.2585 0.703125 16.7755C0.234373 16.2926 0 15.7828 0 15.2462V4.86267C0 4.83584 0.00651045 4.80901 0.0195313 4.78218C-0.00651045 4.68827 -0.00651045 4.59772 0.0195313 4.51051C0.0455731 4.42331 0.0911456 4.33947 0.15625 4.25898C0.169271 4.24556 0.182292 4.22879 0.195313 4.20867C0.208333 4.18854 0.227865 4.17178 0.253906 4.15836C0.44922 3.89005 0.72591 3.68547 1.08398 3.54461C1.44206 3.40374 1.80989 3.33331 2.1875 3.33331H18.4375C18.8542 3.33331 19.1895 3.42387 19.4434 3.60497C19.6973 3.78608 19.8633 4.05774 19.9414 4.41996C19.9674 4.47362 19.9837 4.53064 19.9902 4.59101C19.9967 4.65138 19.9935 4.7151 19.9805 4.78218ZM1.89453 4.62119C1.79036 4.62119 1.6862 4.6279 1.58203 4.64131L10 11.5637L18.4375 4.62119H1.89453ZM18.4375 16.2121C18.6068 16.2121 18.7012 16.0947 18.7207 15.8599C18.7402 15.6252 18.75 15.4206 18.75 15.2462V6.02981L10.4102 12.8918C10.3451 12.9455 10.2799 12.9857 10.2148 13.0125C10.1497 13.0394 10.0781 13.0528 10 13.0528C9.92187 13.0528 9.85026 13.0394 9.78516 13.0125C9.72005 12.9857 9.65495 12.9455 9.58984 12.8918L1.25 6.02981V15.2462C1.25 15.4206 1.36393 15.6252 1.5918 15.8599C1.81966 16.0947 2.01823 16.2121 2.1875 16.2121H18.4375Z" fill="#959393"/>
</svg>
