<svg width="754" height="410" viewBox="0 0 754 410" fill="none" xmlns="http://www.w3.org/2000/svg">
<g clip-path="url(#clip0)">
<path d="M379.42 410C583.873 410 749.615 399.028 749.615 385.493C749.615 371.958 583.873 360.986 379.42 360.986C174.966 360.986 9.22412 371.958 9.22412 385.493C9.22412 399.028 174.966 410 379.42 410Z" fill="#F2F2F2"/>
<path d="M365.231 117.204C304.916 117.204 261.61 155.899 261.61 246.189C261.61 348.517 304.916 375.604 365.231 375.604C425.546 375.604 471.431 345.937 471.431 246.189C471.431 139.561 425.546 117.204 365.231 117.204ZM365.627 341.638C323.852 341.638 302.027 317.13 302.027 246.255C302.027 183.718 324.745 150.74 366.521 150.74C408.296 150.74 431.015 172.402 431.015 246.255C431.015 315.343 407.403 341.638 365.627 341.638Z" fill="#2F2E41"/>
<path d="M225.494 304.232H200.556V230.799C200.556 226.898 199.007 223.158 196.249 220.4C193.491 217.642 189.75 216.092 185.85 216.092H180.006C178.075 216.092 176.163 216.473 174.378 217.212C172.594 217.951 170.973 219.034 169.607 220.4C168.241 221.765 167.158 223.387 166.419 225.171C165.68 226.955 165.3 228.867 165.3 230.799V304.232H94.9589C93.5118 304.232 92.0893 303.858 90.8294 303.146C89.5695 302.435 88.5149 301.409 87.768 300.17C87.0211 298.931 86.6072 297.519 86.5665 296.073C86.5257 294.626 86.8596 293.194 87.5356 291.915L161.983 151.011C162.912 149.255 163.474 147.328 163.637 145.348C163.8 143.368 163.56 141.375 162.932 139.491C162.304 137.606 161.3 135.868 159.981 134.381C158.663 132.895 157.057 131.692 155.26 130.843L150.865 128.768C147.453 127.156 143.551 126.919 139.968 128.103C136.385 129.288 133.395 131.805 131.615 135.133L40.8165 304.986C39.2703 307.878 38.4614 311.107 38.4614 314.387V314.387C38.4614 317.006 38.9772 319.599 39.9794 322.018C40.9816 324.438 42.4505 326.636 44.3023 328.488C46.1541 330.34 48.3525 331.809 50.772 332.811C53.1914 333.813 55.7846 334.329 58.4034 334.329H165.3V380.763C165.3 383.078 165.756 385.371 166.641 387.509C167.527 389.648 168.826 391.591 170.463 393.228C172.1 394.865 174.043 396.164 176.182 397.049C178.321 397.935 180.613 398.391 182.928 398.391H182.928C185.243 398.391 187.535 397.935 189.674 397.049C191.813 396.164 193.756 394.865 195.393 393.228C197.03 391.591 198.328 389.648 199.214 387.509C200.1 385.371 200.556 383.078 200.556 380.763V334.329H225.494C229.485 334.329 233.313 332.743 236.135 329.921C238.957 327.099 240.543 323.271 240.543 319.28V319.28C240.543 315.289 238.957 311.462 236.135 308.64C233.313 305.818 229.485 304.232 225.494 304.232V304.232Z" fill="#BE856A"/>
<path d="M687.271 304.232H662.333V230.799C662.333 226.898 660.784 223.158 658.026 220.4C655.268 217.642 651.527 216.092 647.626 216.092H641.783C639.852 216.092 637.939 216.473 636.155 217.212C634.371 217.951 632.75 219.034 631.384 220.4C630.018 221.765 628.935 223.387 628.196 225.171C627.457 226.955 627.076 228.867 627.076 230.799V304.232H556.736C555.289 304.232 553.866 303.858 552.606 303.146C551.346 302.435 550.292 301.409 549.545 300.17C548.798 298.931 548.384 297.519 548.343 296.073C548.303 294.626 548.636 293.194 549.312 291.915L623.76 151.012C624.688 149.255 625.251 147.328 625.414 145.348C625.577 143.368 625.337 141.375 624.709 139.491C624.08 137.606 623.077 135.868 621.758 134.381C620.439 132.895 618.833 131.692 617.037 130.843L612.642 128.768C609.229 127.156 605.328 126.919 601.745 128.103C598.162 129.288 595.171 131.805 593.392 135.133L502.593 304.986C501.047 307.878 500.238 311.107 500.238 314.387C500.238 319.676 502.339 324.748 506.079 328.488C509.819 332.228 514.891 334.329 520.18 334.329H627.076V380.763C627.076 385.439 628.934 389.922 632.24 393.228C635.546 396.534 640.029 398.391 644.705 398.391C649.38 398.391 653.864 396.534 657.17 393.228C660.476 389.922 662.333 385.439 662.333 380.763V334.329H687.271C691.262 334.329 695.09 332.743 697.912 329.921C700.734 327.099 702.319 323.271 702.319 319.28C702.319 315.289 700.734 311.462 697.912 308.64C695.09 305.818 691.262 304.232 687.271 304.232Z" fill="#BE856A"/>
<path d="M232.373 295.633H207.436V222.2C207.436 220.268 207.055 218.356 206.316 216.572C205.577 214.787 204.494 213.166 203.128 211.801C201.763 210.435 200.141 209.352 198.357 208.613C196.573 207.874 194.66 207.493 192.729 207.493H186.886C182.985 207.493 179.245 209.043 176.486 211.801C173.728 214.559 172.179 218.299 172.179 222.2V295.633H101.838C100.391 295.633 98.9687 295.259 97.7088 294.547C96.4489 293.836 95.3943 292.81 94.6474 291.571C93.9005 290.332 93.4866 288.92 93.4459 287.474C93.4051 286.027 93.739 284.595 94.415 283.316L168.863 142.413C169.791 140.656 170.354 138.729 170.517 136.749C170.68 134.769 170.44 132.776 169.811 130.892C169.183 129.007 168.179 127.269 166.861 125.782C165.542 124.296 163.936 123.093 162.139 122.244L157.745 120.169C154.332 118.557 150.431 118.32 146.848 119.504C143.264 120.689 140.274 123.206 138.495 126.534L47.6959 296.387C46.1497 299.279 45.3408 302.508 45.3408 305.788V305.788C45.3408 311.077 47.4418 316.149 51.1817 319.889C54.9216 323.629 59.9939 325.73 65.2828 325.73H172.179V372.164C172.179 374.479 172.635 376.771 173.521 378.91C174.407 381.049 175.705 382.992 177.342 384.629C178.979 386.266 180.922 387.565 183.061 388.45C185.2 389.336 187.492 389.792 189.807 389.792H189.807C194.483 389.792 198.967 387.935 202.272 384.629C205.578 381.323 207.436 376.839 207.436 372.164V325.73H232.373C234.35 325.73 236.306 325.34 238.132 324.584C239.958 323.828 241.617 322.719 243.014 321.322C244.412 319.925 245.52 318.266 246.276 316.44C247.033 314.614 247.422 312.658 247.422 310.681V310.681C247.422 308.705 247.033 306.748 246.276 304.923C245.52 303.097 244.412 301.438 243.014 300.041C241.617 298.643 239.958 297.535 238.132 296.779C236.306 296.022 234.35 295.633 232.373 295.633V295.633Z" stroke="#3F3D56" stroke-miterlimit="10"/>
<path d="M700.169 295.633H675.232V222.2C675.232 218.299 673.682 214.559 670.924 211.801C668.166 209.043 664.425 207.493 660.525 207.493H654.682C652.75 207.493 650.838 207.874 649.054 208.613C647.269 209.352 645.648 210.435 644.282 211.801C642.917 213.166 641.833 214.787 641.094 216.572C640.355 218.356 639.975 220.268 639.975 222.2V295.633H569.634C568.187 295.633 566.765 295.259 565.505 294.547C564.245 293.836 563.19 292.81 562.443 291.571C561.696 290.332 561.282 288.92 561.242 287.474C561.201 286.027 561.535 284.595 562.211 283.316L636.659 142.413C637.587 140.656 638.149 138.729 638.312 136.749C638.475 134.769 638.236 132.776 637.607 130.892C636.979 129.007 635.975 127.269 634.657 125.782C633.338 124.296 631.732 123.093 629.935 122.244L625.54 120.169C622.128 118.557 618.226 118.32 614.643 119.504C611.06 120.689 608.07 123.206 606.291 126.534L515.492 296.387C513.946 299.279 513.137 302.508 513.137 305.788C513.137 311.077 515.238 316.149 518.978 319.889C522.717 323.629 527.79 325.73 533.079 325.73H639.975V372.164C639.975 376.839 641.832 381.323 645.138 384.629C648.444 387.935 652.928 389.792 657.603 389.792V389.792C662.278 389.792 666.762 387.935 670.068 384.629C673.374 381.323 675.231 376.839 675.231 372.164V325.73H700.169C702.145 325.73 704.102 325.34 705.928 324.584C707.754 323.828 709.413 322.719 710.81 321.322C712.207 319.925 713.316 318.266 714.072 316.44C714.829 314.614 715.218 312.658 715.218 310.681V310.681C715.218 306.69 713.632 302.863 710.81 300.041C707.988 297.219 704.16 295.633 700.169 295.633V295.633Z" stroke="#3F3D56" stroke-miterlimit="10"/>
<path d="M378.989 109.465C318.675 109.465 275.369 148.16 275.369 238.45C275.369 340.778 318.675 367.865 378.989 367.865C439.304 367.865 485.19 338.198 485.19 238.45C485.19 131.822 439.304 109.465 378.989 109.465ZM379.386 333.899C337.61 333.899 315.785 309.391 315.785 238.516C315.785 175.979 338.504 143.001 380.279 143.001C422.055 143.001 444.774 164.663 444.774 238.516C444.773 307.604 421.162 333.899 379.386 333.899V333.899Z" stroke="#3F3B3B" stroke-miterlimit="10"/>
<path d="M706.609 294.43C708.735 295.203 711.012 295.472 713.259 295.215C715.506 294.958 717.663 294.182 719.56 292.95C721.457 291.717 723.041 290.06 724.188 288.111C725.335 286.161 726.014 283.972 726.171 281.715C726.327 279.459 725.958 277.197 725.091 275.107C724.224 273.018 722.884 271.158 721.176 269.675C719.468 268.192 717.439 267.126 715.249 266.561C713.058 265.996 710.767 265.947 708.554 266.419L708.92 273.936L705.363 267.494C701.872 269.134 699.176 272.093 697.865 275.72C697.4 276.991 697.117 278.321 697.025 279.671C696.801 282.839 697.615 285.993 699.344 288.657C701.074 291.32 703.624 293.347 706.609 294.43V294.43Z" fill="#57B894"/>
<path d="M724.208 381.622C722.953 375.228 728.393 369.56 733.767 365.876C739.141 362.192 745.42 358.572 747.254 352.32C749.889 343.335 742.04 335.106 735.93 328.009C731.397 322.743 727.505 316.958 724.334 310.775C723.063 308.296 721.895 305.705 721.56 302.939C721.079 298.956 722.358 294.993 723.647 291.194C727.942 278.538 732.534 265.987 737.423 253.543" stroke="#3F3D56" stroke-miterlimit="10"/>
<path d="M707.211 292.495C709.337 293.268 711.613 293.536 713.861 293.279C716.108 293.022 718.265 292.247 720.161 291.014C722.058 289.781 723.642 288.125 724.789 286.175C725.937 284.226 726.615 282.036 726.772 279.78C726.929 277.523 726.559 275.261 725.692 273.172C724.826 271.082 723.486 269.223 721.778 267.74C720.07 266.257 718.04 265.191 715.85 264.625C713.66 264.06 711.368 264.012 709.156 264.483L709.522 272.001L705.965 265.558C702.474 267.198 699.777 270.157 698.467 273.785C698.002 275.056 697.719 276.386 697.627 277.736C697.402 280.903 698.216 284.058 699.946 286.721C701.675 289.384 704.226 291.411 707.211 292.495V292.495Z" stroke="#3F3D56" stroke-miterlimit="10"/>
<path d="M722.423 250.947C723.258 248.645 724.658 246.59 726.495 244.972C728.332 243.353 730.547 242.223 732.936 241.685L734.139 248.832L736.368 241.326C739.464 241.372 742.465 242.401 744.938 244.263C747.411 246.126 749.228 248.726 750.127 251.689C751.026 254.651 750.96 257.823 749.939 260.746C748.917 263.668 746.994 266.191 744.445 267.949C741.897 269.707 738.856 270.61 735.761 270.527C732.666 270.444 729.677 269.38 727.227 267.488C724.776 265.596 722.99 262.974 722.127 260.001C721.263 257.028 721.367 253.857 722.423 250.947H722.423Z" fill="#57B894"/>
<path d="M723.226 248.367C724.06 246.065 725.46 244.01 727.297 242.391C729.134 240.773 731.349 239.642 733.738 239.105L734.941 246.252L737.17 238.746C740.266 238.791 743.267 239.82 745.74 241.683C748.213 243.545 750.03 246.146 750.929 249.108C751.828 252.071 751.762 255.242 750.741 258.165C749.72 261.088 747.796 263.61 745.248 265.368C742.699 267.127 739.658 268.03 736.563 267.947C733.468 267.864 730.48 266.8 728.029 264.908C725.578 263.016 723.792 260.394 722.929 257.421C722.066 254.447 722.169 251.277 723.225 248.367H723.226Z" stroke="#3F3D56" stroke-miterlimit="10"/>
<path d="M733.367 328.154C736.738 329.377 740.442 329.317 743.772 327.984C747.101 326.652 749.825 324.141 751.422 320.93C753.02 317.719 753.38 314.033 752.434 310.573C751.488 307.114 749.302 304.124 746.293 302.172L744.58 307.94L743.365 300.709C743.353 300.704 743.34 300.699 743.328 300.695C741.524 300.04 739.61 299.746 737.693 299.831C735.776 299.916 733.895 300.378 732.156 301.19C730.418 302.002 728.857 303.149 727.562 304.565C726.267 305.981 725.264 307.638 724.609 309.441C723.955 311.245 723.663 313.16 723.749 315.077C723.835 316.993 724.297 318.874 725.111 320.612C725.924 322.35 727.072 323.91 728.488 325.204C729.905 326.499 731.563 327.501 733.367 328.154H733.367Z" fill="#57B894"/>
<path d="M734.062 325.54C737.433 326.763 741.137 326.703 744.467 325.371C747.796 324.038 750.519 321.527 752.117 318.317C753.715 315.106 754.075 311.419 753.129 307.96C752.183 304.5 749.997 301.51 746.988 299.559L745.275 305.327L744.06 298.096C744.048 298.09 744.035 298.085 744.023 298.082C742.219 297.426 740.304 297.133 738.388 297.217C736.471 297.302 734.59 297.764 732.851 298.576C731.113 299.388 729.552 300.535 728.257 301.951C726.962 303.367 725.958 305.024 725.304 306.827C724.65 308.631 724.357 310.546 724.443 312.463C724.529 314.379 724.992 316.26 725.806 317.998C726.619 319.736 727.766 321.297 729.183 322.591C730.6 323.885 732.257 324.887 734.061 325.54H734.062Z" stroke="#3F3D56" stroke-miterlimit="10"/>
<path d="M718.161 352.409C718.741 355.708 720.437 358.707 722.965 360.903C725.494 363.099 728.7 364.36 732.047 364.472C735.395 364.585 738.679 363.543 741.349 361.522C744.02 359.501 745.914 356.623 746.714 353.371C747.514 350.119 747.172 346.691 745.745 343.661C744.317 340.631 741.892 338.185 738.874 336.731C735.857 335.278 732.432 334.906 729.173 335.678C725.914 336.45 723.02 338.319 720.976 340.972L727.483 350.767L718.591 345.568C717.902 347.781 717.754 350.127 718.161 352.409V352.409Z" fill="#57B894"/>
<path d="M718.762 350.474C719.342 353.772 721.038 356.771 723.567 358.968C726.095 361.164 729.302 362.424 732.649 362.537C735.996 362.65 739.28 361.608 741.951 359.587C744.621 357.565 746.515 354.687 747.316 351.435C748.116 348.183 747.774 344.755 746.346 341.726C744.919 338.696 742.493 336.249 739.476 334.796C736.458 333.342 733.033 332.97 729.774 333.743C726.516 334.515 723.621 336.384 721.577 339.037L728.084 348.831L719.193 343.633C718.503 345.846 718.356 348.192 718.762 350.474V350.474Z" stroke="#3F3D56" stroke-miterlimit="10"/>
<path d="M6.32134 330.01C7.71811 330.518 9.21373 330.694 10.6903 330.525C12.1669 330.356 13.5841 329.847 14.8302 329.037C16.0763 328.227 17.1172 327.139 17.871 325.858C18.6247 324.577 19.0706 323.138 19.1735 321.656C19.2765 320.173 19.0337 318.687 18.4642 317.314C17.8948 315.941 17.0142 314.72 15.892 313.745C14.7699 312.771 13.4367 312.07 11.9976 311.699C10.5585 311.328 9.05285 311.296 7.5993 311.606L7.8395 316.545L5.50262 312.312C3.20911 313.39 1.43728 315.334 0.576492 317.717C0.27079 318.552 0.084946 319.426 0.024504 320.313C-0.123001 322.394 0.411911 324.467 1.54818 326.216C2.68445 327.966 4.36014 329.298 6.32134 330.01V330.01Z" fill="#57B894"/>
<path d="M17.884 387.296C17.0591 383.095 20.6336 379.372 24.1644 376.951C27.6953 374.53 31.8208 372.152 33.0256 368.044C34.757 362.141 29.5997 356.734 25.5856 352.072C22.6075 348.612 20.0501 344.811 17.9667 340.749C17.061 339.153 16.4441 337.41 16.1444 335.6C15.8279 332.983 16.6686 330.379 17.5156 327.883C20.3373 319.568 23.3541 311.322 26.5661 303.146" stroke="#3F3D56" stroke-miterlimit="10"/>
<path d="M6.71637 328.738C8.11314 329.246 9.60876 329.422 11.0853 329.254C12.5619 329.085 13.9791 328.575 15.2252 327.765C16.4713 326.955 17.5122 325.867 18.266 324.586C19.0197 323.305 19.4656 321.867 19.5685 320.384C19.6715 318.902 19.4287 317.415 18.8592 316.043C18.2898 314.67 17.4092 313.448 16.2871 312.474C15.1649 311.499 13.8317 310.799 12.3926 310.427C10.9535 310.056 9.44788 310.024 7.99433 310.334L8.23453 315.273L5.89765 311.04C3.60414 312.118 1.8323 314.062 0.971512 316.445C0.665813 317.28 0.479972 318.154 0.419527 319.041C0.272012 321.122 0.806921 323.195 1.94319 324.945C3.07946 326.695 4.75516 328.026 6.71637 328.738V328.738Z" stroke="#3F3D56" stroke-miterlimit="10"/>
<path d="M16.7112 301.441C17.2593 299.928 18.1793 298.578 19.3864 297.515C20.5935 296.451 22.0488 295.709 23.6183 295.355L24.4084 300.051L25.8733 295.119C27.9072 295.15 29.8789 295.825 31.5038 297.049C33.1286 298.273 34.3225 299.981 34.913 301.928C35.5036 303.874 35.4602 305.958 34.7893 307.878C34.1183 309.799 32.8544 311.456 31.1801 312.611C29.5058 313.766 27.5077 314.359 25.4743 314.305C23.4408 314.251 21.4773 313.551 19.8672 312.308C18.2571 311.065 17.0837 309.343 16.5164 307.389C15.9491 305.436 16.0173 303.353 16.7112 301.441V301.441Z" fill="#57B894"/>
<path d="M17.2385 299.745C17.7867 298.233 18.7067 296.883 19.9138 295.819C21.1208 294.756 22.5762 294.013 24.1456 293.66L24.9357 298.355L26.4006 293.424C28.4346 293.454 30.4063 294.13 32.0311 295.354C33.6559 296.577 34.8498 298.286 35.4404 300.232C36.0309 302.179 35.9876 304.263 35.3166 306.183C34.6456 308.103 33.3817 309.761 31.7074 310.916C30.0331 312.071 28.035 312.664 26.0016 312.61C23.9682 312.555 22.0047 311.856 20.3946 310.613C18.7844 309.37 17.611 307.647 17.0438 305.694C16.4765 303.74 16.5447 301.657 17.2385 299.745V299.745Z" stroke="#3F3D56" stroke-miterlimit="10"/>
<path d="M23.9013 352.167C26.1164 352.97 28.5498 352.931 30.7376 352.055C32.9253 351.18 34.7145 349.53 35.7641 347.421C36.8137 345.311 37.0503 342.889 36.4288 340.616C35.8073 338.343 34.3712 336.379 32.3941 335.096L31.2685 338.886L30.4703 334.135C30.4625 334.132 30.4543 334.129 30.4459 334.126C29.2611 333.695 28.0029 333.502 26.7434 333.558C25.4838 333.613 24.2476 333.917 23.1053 334.45C21.963 334.984 20.9371 335.737 20.0862 336.667C19.2352 337.598 18.5759 338.687 18.146 339.872C17.7161 341.057 17.5239 342.315 17.5805 343.575C17.6371 344.834 17.9413 346.07 18.4758 347.212C19.0103 348.354 19.7645 349.379 20.6955 350.229C21.6264 351.079 22.7158 351.738 23.9013 352.167V352.167Z" fill="#57B894"/>
<path d="M24.3577 350.45C26.5728 351.253 29.0062 351.213 31.194 350.338C33.3817 349.463 35.1709 347.813 36.2205 345.703C37.2701 343.594 37.5067 341.172 36.8852 338.899C36.2637 336.626 34.8276 334.661 32.8505 333.379L31.7249 337.169L30.9267 332.418C30.9188 332.414 30.9107 332.411 30.9023 332.409C29.7177 331.979 28.4601 331.787 27.2012 331.843C25.9423 331.899 24.7068 332.203 23.5653 332.737C21.26 333.815 19.4772 335.765 18.6094 338.157C17.7415 340.549 17.8596 343.188 18.9376 345.494C20.0156 347.799 21.9653 349.582 24.3577 350.45V350.45Z" stroke="#3F3D56" stroke-miterlimit="10"/>
<path d="M13.9111 368.103C14.292 370.27 15.4064 372.241 17.0676 373.684C18.7288 375.127 20.8356 375.955 23.0348 376.029C25.234 376.103 27.3918 375.418 29.1462 374.09C30.9007 372.762 32.1452 370.871 32.671 368.735C33.1968 366.598 32.972 364.346 32.0341 362.355C31.0963 360.365 29.5025 358.757 27.5202 357.802C25.5378 356.847 23.2873 356.603 21.1461 357.11C19.005 357.618 17.1034 358.846 15.7603 360.589L20.0359 367.024L14.1939 363.608C13.7409 365.062 13.6439 366.604 13.9111 368.103V368.103Z" fill="#57B894"/>
<path d="M14.3061 366.831C14.687 368.999 15.8015 370.969 17.4626 372.412C19.1238 373.855 21.2306 374.683 23.4298 374.757C25.629 374.831 27.7868 374.147 29.5413 372.819C31.2957 371.491 32.5402 369.6 33.066 367.463C33.5919 365.327 33.367 363.074 32.4292 361.084C31.4913 359.093 29.8976 357.485 27.9152 356.531C25.9328 355.576 23.6823 355.331 21.5412 355.839C19.4 356.346 17.4984 357.574 16.1553 359.317L20.4309 365.752L14.5889 362.337C14.1359 363.791 14.0389 365.332 14.3061 366.831V366.831Z" stroke="#3F3D56" stroke-miterlimit="10"/>
<path d="M337.524 239.387C344.113 239.387 349.455 232.475 349.455 223.948C349.455 215.421 344.113 208.509 337.524 208.509C330.935 208.509 325.594 215.421 325.594 223.948C325.594 232.475 330.935 239.387 337.524 239.387Z" fill="#2F2E41"/>
<path d="M402.44 239.738C409.029 239.738 414.37 232.826 414.37 224.299C414.37 215.772 409.029 208.86 402.44 208.86C395.851 208.86 390.509 215.772 390.509 224.299C390.509 232.826 395.851 239.738 402.44 239.738Z" fill="#2F2E41"/>
<path d="M393.317 269.914C393.317 276.89 383.576 282.546 371.561 282.546C359.547 282.546 349.806 276.89 349.806 269.914C349.806 263.872 357.111 258.819 366.873 257.584C368.427 257.379 369.994 257.278 371.561 257.282C374.188 257.274 376.808 257.556 379.372 258.125C387.527 259.942 393.317 264.539 393.317 269.914Z" fill="#2F2E41"/>
<path d="M340.331 235.878C346.92 235.878 352.262 228.966 352.262 220.439C352.262 211.912 346.92 205 340.331 205C333.742 205 328.401 211.912 328.401 220.439C328.401 228.966 333.742 235.878 340.331 235.878Z" stroke="#3F3D56" stroke-miterlimit="10"/>
<path d="M405.247 236.229C411.836 236.229 417.178 229.317 417.178 220.79C417.178 212.263 411.836 205.351 405.247 205.351C398.658 205.351 393.317 212.263 393.317 220.79C393.317 229.317 398.658 236.229 405.247 236.229Z" stroke="#3F3D56" stroke-miterlimit="10"/>
<path d="M374.368 279.037C386.384 279.037 396.124 273.382 396.124 266.405C396.124 259.429 386.384 253.773 374.368 253.773C362.353 253.773 352.613 259.429 352.613 266.405C352.613 273.382 362.353 279.037 374.368 279.037Z" stroke="#3F3D56" stroke-miterlimit="10"/>
<path d="M379.631 259.177C379.637 260.06 379.306 260.911 378.705 261.558C378.421 261.867 378.077 262.115 377.693 262.285C377.308 262.455 376.893 262.544 376.473 262.546H369.455C368.591 262.516 367.773 262.144 367.181 261.513C366.589 260.882 366.272 260.042 366.297 259.177C366.294 258.493 366.494 257.823 366.873 257.253C368.426 257.035 369.992 256.927 371.561 256.932C374.191 256.923 376.812 257.224 379.372 257.83C379.545 258.258 379.633 258.715 379.631 259.177V259.177Z" fill="white"/>
<path d="M340.331 219.737C342.269 219.737 343.84 218.166 343.84 216.228C343.84 214.291 342.269 212.72 340.331 212.72C338.393 212.72 336.822 214.291 336.822 216.228C336.822 218.166 338.393 219.737 340.331 219.737Z" fill="white"/>
<path d="M405.598 219.737C407.536 219.737 409.107 218.166 409.107 216.228C409.107 214.291 407.536 212.72 405.598 212.72C403.66 212.72 402.089 214.291 402.089 216.228C402.089 218.166 403.66 219.737 405.598 219.737Z" fill="white"/>
<path opacity="0.3" d="M409.107 252.721C411.045 252.721 412.616 251.15 412.616 249.212C412.616 247.274 411.045 245.703 409.107 245.703C407.169 245.703 405.598 247.274 405.598 249.212C405.598 251.15 407.169 252.721 409.107 252.721Z" fill="#6C63FF"/>
<path opacity="0.3" d="M323.488 252.721C325.426 252.721 326.997 251.15 326.997 249.212C326.997 247.274 325.426 245.703 323.488 245.703C321.55 245.703 319.979 247.274 319.979 249.212C319.979 251.15 321.55 252.721 323.488 252.721Z" fill="#6C63FF"/>
</g>
<defs>
<clipPath id="clip0">
<rect width="754" height="410" fill="white"/>
</clipPath>
</defs>
</svg>
