<svg width="51" height="51" viewBox="0 0 51 51" fill="none" xmlns="http://www.w3.org/2000/svg">
<g clip-path="url(#clip0)">
<path d="M11.3027 30.8199L9.52744 37.4471L3.03898 37.5844C1.09989 33.9878 0 29.8728 0 25.5C0 21.2715 1.02837 17.2839 2.85122 13.7728H2.85261L8.62916 14.8318L11.1596 20.5737C10.63 22.1177 10.3413 23.7752 10.3413 25.5C10.3415 27.3718 10.6806 29.1653 11.3027 30.8199Z" fill="#FBBB00"/>
<path d="M50.5544 20.7363C50.8472 22.2788 50.9999 23.8719 50.9999 25.5C50.9999 27.3256 50.808 29.1064 50.4423 30.8242C49.201 36.6696 45.9574 41.7738 41.4641 45.3858L41.4627 45.3844L34.1869 45.0132L33.1571 38.5849C36.1386 36.8363 38.4687 34.1 39.6961 30.8242H26.0605V20.7363H39.895H50.5544Z" fill="#518EF8"/>
<path d="M41.4628 45.3844L41.4642 45.3858C37.0942 48.8983 31.543 51 25.5001 51C15.7891 51 7.34607 45.5722 3.03906 37.5845L11.3028 30.82C13.4562 36.5673 19.0004 40.6585 25.5001 40.6585C28.2938 40.6585 30.9112 39.9033 33.1571 38.5849L41.4628 45.3844Z" fill="#28B446"/>
<path d="M41.7767 5.87058L33.5158 12.6337C31.1914 11.1808 28.4438 10.3414 25.5001 10.3414C18.8533 10.3414 13.2054 14.6204 11.1598 20.5737L2.85271 13.7728H2.85132C7.09528 5.59038 15.6447 0 25.5001 0C31.6873 0 37.3604 2.20396 41.7767 5.87058Z" fill="#F14336"/>
</g>
<defs>
<clipPath id="clip0">
<rect width="51" height="51" fill="white"/>
</clipPath>
</defs>
</svg>
