<svg width="331" height="538" viewBox="0 0 331 538" fill="none" xmlns="http://www.w3.org/2000/svg">
<path d="M268.358 489.581C254.786 504.112 239.235 516.659 222.162 526.852C221.77 527.092 221.372 527.318 220.973 527.552L193.334 503.089C193.624 502.82 193.946 502.517 194.292 502.184C214.886 482.629 317.123 345.905 323.935 312.61C323.465 315.384 330.082 424.16 268.358 489.581Z" fill="#F0F0F0"/>
<path d="M227.495 531.572C226.972 531.696 226.441 531.813 225.907 531.919L205.172 513.567C205.577 513.426 206.051 513.258 206.592 513.071C215.489 509.921 241.987 500.411 268.356 489.579C296.691 477.936 324.89 464.779 330.954 456.352C329.653 458.31 289.58 517.689 227.495 531.572Z" fill="#F0F0F0"/>
<path d="M267.975 127.713H265.022V46.8191C265.022 40.6707 263.811 34.5825 261.458 28.9022C259.105 23.2218 255.657 18.0606 251.309 13.713C246.962 9.36545 241.8 5.91677 236.12 3.56389C230.44 1.21101 224.352 1.24146e-10 218.203 1.29205e-10H46.8191C40.6707 -1.44453e-05 34.5826 1.21098 28.9022 3.56384C23.2219 5.91671 18.0606 9.36537 13.713 13.7129C9.36546 18.0604 5.91679 23.2217 3.5639 28.9021C1.21102 34.5824 1.1819e-05 40.6705 0 46.8189V490.608C-7.87928e-06 496.756 1.21097 502.844 3.56384 508.525C5.91671 514.205 9.3654 519.366 13.713 523.714C18.0605 528.061 23.2218 531.51 28.9021 533.863C34.5824 536.216 40.6706 537.427 46.819 537.427H218.203C224.351 537.427 230.44 536.216 236.12 533.863C241.8 531.51 246.962 528.061 251.309 523.714C255.657 519.366 259.105 514.205 261.458 508.525C263.811 502.844 265.022 496.756 265.022 490.608V185.294H267.975V127.713Z" fill="#3F3D56"/>
<path d="M255.056 47.1407V490.283C255.056 494.875 254.152 499.422 252.394 503.664C250.636 507.906 248.06 511.76 244.813 515.006C241.566 518.252 237.711 520.827 233.468 522.583C229.225 524.339 224.678 525.242 220.087 525.24H47.8776C43.2869 525.241 38.7411 524.337 34.4998 522.58C30.2585 520.823 26.4048 518.249 23.1586 515.002C19.9125 511.756 17.3376 507.903 15.5809 503.661C13.8243 499.42 12.9203 494.874 12.9207 490.283V47.1407C12.9203 42.55 13.8243 38.0042 15.5809 33.7629C17.3376 29.5216 19.9125 25.6679 23.1586 22.4218C26.4048 19.1757 30.2585 16.6008 34.4998 14.8442C38.7411 13.0876 43.2869 12.1836 47.8776 12.184H68.776C67.7502 14.7063 67.3599 17.4422 67.6394 20.1508C67.9189 22.8594 68.8598 25.4578 70.3792 27.7175C71.8985 29.9772 73.9498 31.829 76.3527 33.11C78.7556 34.3909 81.4364 35.0618 84.1594 35.0636H182.341C185.065 35.0662 187.749 34.3981 190.154 33.1184C192.56 31.8387 194.613 29.9866 196.133 27.7256C197.654 25.4646 198.594 22.8641 198.872 20.1537C199.149 17.4433 198.755 14.7062 197.725 12.184H220.087C224.678 12.1823 229.225 13.0853 233.468 14.8412C237.711 16.5972 241.566 19.1719 244.813 22.4181C248.06 25.6643 250.636 29.5184 252.394 33.7604C254.152 38.0024 255.056 42.5491 255.056 47.1407Z" fill="white"/>
<path d="M201.488 277.421H50.1213C47.4701 277.418 44.9282 276.364 43.0535 274.489C41.1788 272.614 40.1243 270.073 40.1213 267.421V262.444C40.1243 259.793 41.1788 257.251 43.0535 255.376C44.9282 253.501 47.4701 252.447 50.1213 252.444H201.488C204.139 252.447 206.681 253.501 208.556 255.376C210.43 257.251 211.485 259.793 211.488 262.444V267.421C211.485 270.073 210.43 272.614 208.556 274.489C206.681 276.364 204.139 277.418 201.488 277.421Z" fill="#F0F0F0"/>
<path d="M201.488 234.574H50.1213C47.4701 234.571 44.9282 233.516 43.0535 231.641C41.1788 229.767 40.1243 227.225 40.1213 224.574V219.596C40.1243 216.945 41.1788 214.403 43.0535 212.528C44.9282 210.654 47.4701 209.599 50.1213 209.596H201.488C204.139 209.599 206.681 210.654 208.556 212.528C210.43 214.403 211.485 216.945 211.488 219.596V224.574C211.485 227.225 210.43 229.767 208.556 231.641C206.681 233.516 204.139 234.571 201.488 234.574Z" fill="#F0F0F0"/>
<path d="M201.488 320.329H50.1213C47.4701 320.326 44.9282 319.271 43.0535 317.396C41.1788 315.522 40.1243 312.98 40.1213 310.329V305.351C40.1243 302.7 41.1788 300.158 43.0535 298.283C44.9282 296.409 47.4701 295.354 50.1213 295.351H201.488C204.139 295.354 206.681 296.409 208.556 298.283C210.43 300.158 211.485 302.7 211.488 305.351V310.329C211.485 312.98 210.43 315.522 208.556 317.396C206.681 319.271 204.139 320.326 201.488 320.329Z" fill="#F0F0F0"/>
<path d="M209.06 267.825H57.6931C54.9093 267.822 52.2404 266.715 50.272 264.746C48.3035 262.778 47.1963 260.109 47.1931 257.325V252.348C47.1963 249.564 48.3035 246.895 50.272 244.927C52.2404 242.958 54.9093 241.851 57.6931 241.848H209.06C211.844 241.851 214.512 242.958 216.481 244.927C218.449 246.895 219.557 249.564 219.56 252.348V257.325C219.557 260.109 218.449 262.778 216.481 264.746C214.512 266.715 211.844 267.822 209.06 267.825ZM57.6931 243.848C55.4395 243.85 53.279 244.747 51.6855 246.34C50.092 247.934 49.1956 250.094 49.1931 252.348V257.325C49.1956 259.579 50.092 261.739 51.6855 263.333C53.279 264.926 55.4395 265.823 57.6931 265.825H209.06C211.313 265.823 213.474 264.926 215.067 263.333C216.661 261.739 217.557 259.579 217.56 257.325V252.348C217.557 250.094 216.661 247.934 215.067 246.34C213.474 244.747 211.313 243.85 209.06 243.848H57.6931Z" fill="#3F3D56"/>
<path d="M209.06 224.978H57.6931C54.9093 224.974 52.2404 223.867 50.272 221.899C48.3035 219.93 47.1963 217.261 47.1931 214.478V209.5C47.1963 206.716 48.3035 204.047 50.272 202.079C52.2404 200.11 54.9093 199.003 57.6931 199H209.06C211.844 199.003 214.512 200.11 216.481 202.079C218.449 204.047 219.557 206.716 219.56 209.5V214.478C219.557 217.261 218.449 219.93 216.481 221.899C214.512 223.867 211.844 224.974 209.06 224.978ZM57.6931 201C55.4395 201.003 53.279 201.899 51.6855 203.492C50.092 205.086 49.1956 207.246 49.1931 209.5V214.478C49.1956 216.731 50.092 218.892 51.6855 220.485C53.279 222.079 55.4395 222.975 57.6931 222.978H209.06C211.313 222.975 213.474 222.079 215.067 220.485C216.661 218.892 217.557 216.731 217.56 214.478V209.5C217.557 207.246 216.661 205.086 215.067 203.492C213.474 201.899 211.313 201.003 209.06 201H57.6931Z" fill="#3F3D56"/>
<path d="M209.06 310.732H57.6931C54.9093 310.729 52.2404 309.622 50.272 307.654C48.3035 305.685 47.1963 303.016 47.1931 300.232V295.255C47.1963 292.471 48.3035 289.802 50.272 287.834C52.2404 285.865 54.9093 284.758 57.6931 284.755H209.06C211.844 284.758 214.512 285.865 216.481 287.834C218.449 289.802 219.557 292.471 219.56 295.255V300.232C219.557 303.016 218.449 305.685 216.481 307.654C214.512 309.622 211.844 310.729 209.06 310.732ZM57.6931 286.755C55.4395 286.757 53.279 287.654 51.6855 289.247C50.092 290.841 49.1956 293.001 49.1931 295.255V300.232C49.1956 302.486 50.092 304.647 51.6855 306.24C53.279 307.834 55.4395 308.73 57.6931 308.732H209.06C211.313 308.73 213.474 307.834 215.067 306.24C216.661 304.647 217.557 302.486 217.56 300.232V295.255C217.557 293.001 216.661 290.841 215.067 289.247C213.474 287.654 211.313 286.757 209.06 286.755H57.6931Z" fill="#3F3D56"/>
<path d="M255.056 47.1407V143.53C239.74 147.56 223.704 148.022 208.181 144.882C192.659 141.741 178.063 135.082 165.518 125.416C152.973 115.75 142.812 103.335 135.818 89.1258C128.824 74.9169 125.182 59.2929 125.174 43.4558C125.174 40.6289 125.287 37.8316 125.514 35.0636H182.341C185.065 35.0662 187.749 34.3981 190.154 33.1184C192.559 31.8387 194.613 29.9866 196.133 27.7256C197.653 25.4646 198.594 22.8641 198.871 20.1537C199.149 17.4433 198.755 14.7062 197.725 12.184H220.087C224.678 12.1823 229.225 13.0853 233.468 14.8412C237.711 16.5972 241.566 19.1719 244.813 22.4181C248.06 25.6643 250.636 29.5184 252.394 33.7604C254.151 38.0024 255.056 42.5491 255.056 47.1407Z" fill="#F0F0F0"/>
<path d="M99.9341 519.221C99.9341 521.252 99.8583 523.259 99.6944 525.24H47.8776C43.2869 525.241 38.7411 524.337 34.4998 522.58C30.2585 520.823 26.4048 518.248 23.1586 515.002C19.9125 511.756 17.3376 507.903 15.5809 503.661C13.8243 499.42 12.9203 494.874 12.9207 490.283V442.884C23.7822 441.471 34.82 442.39 45.2986 445.578C55.7772 448.767 65.4558 454.152 73.6894 461.376C81.923 468.599 88.5224 477.494 93.0479 487.469C97.5733 497.443 99.9209 508.268 99.9341 519.221H99.9341Z" fill="#BE856A"/>
<path d="M158.581 372.069H86.7185C84.0673 372.066 81.5254 371.012 79.6507 369.137C77.776 367.262 76.7215 364.721 76.7185 362.069V357.092C76.7215 354.441 77.776 351.899 79.6507 350.024C81.5254 348.149 84.0673 347.095 86.7185 347.092H158.581C161.232 347.095 163.774 348.149 165.648 350.024C167.523 351.899 168.578 354.441 168.581 357.092V362.069C168.578 364.721 167.523 367.262 165.648 369.137C163.774 371.012 161.232 372.066 158.581 372.069Z" fill="#BE856A"/>
<path d="M166.153 362.474H94.2903C91.5065 362.47 88.8376 361.363 86.8691 359.395C84.9007 357.426 83.7935 354.757 83.7903 351.974V346.996C83.7935 344.212 84.9007 341.543 86.8691 339.575C88.8376 337.607 91.5065 336.499 94.2903 336.496H166.153C168.936 336.499 171.605 337.607 173.574 339.575C175.542 341.543 176.649 344.212 176.653 346.996V351.974C176.649 354.757 175.542 357.426 173.574 359.395C171.605 361.363 168.936 362.47 166.153 362.474ZM94.2903 338.496C92.0367 338.499 89.8762 339.395 88.2827 340.988C86.6891 342.582 85.7928 344.743 85.7903 346.996V351.974C85.7928 354.227 86.6891 356.388 88.2827 357.981C89.8762 359.575 92.0367 360.471 94.2903 360.474H166.153C168.406 360.471 170.567 359.575 172.16 357.981C173.754 356.388 174.65 354.227 174.653 351.974V346.996C174.65 344.743 173.754 342.582 172.16 340.988C170.567 339.395 168.406 338.499 166.153 338.496H94.2903Z" fill="#3F3D56"/>
<g clip-path="url(#clip0)">
<path d="M129.959 103.443C131.061 102.955 131.877 103.377 132.593 104.154C132.759 103.76 132.878 103.381 133.071 103.043C133.388 102.486 133.866 102.124 134.538 102.166C135.244 102.21 135.755 102.594 136.031 103.237C136.361 104.008 136.473 104.811 136.22 105.634C135.897 106.684 135.571 107.731 135.244 108.777C135.206 108.9 135.17 109.023 135.127 109.146C134.919 109.731 134.846 110.29 135.237 110.854C135.413 111.108 135.469 111.447 135.609 111.829C136.462 109.993 137.644 108.462 138.727 106.827C138.628 106.87 138.531 106.918 138.436 106.971C138.347 107.026 138.268 107.098 138.129 107.205C138.038 106.855 137.954 106.551 137.88 106.245C137.595 105.075 137.313 103.904 137.034 102.733C136.89 102.126 136.962 101.537 137.199 100.962C137.445 100.372 137.872 100.008 138.519 99.988C139.155 99.9683 139.556 100.349 139.811 100.893C139.918 101.121 139.984 101.369 140.086 101.656C140.55 101.262 141.023 100.936 141.642 101.01C142.282 101.086 142.599 101.531 142.811 102.102C142.883 102.07 142.95 102.062 142.983 102.023C144.189 100.602 145.665 99.4715 147.085 98.2913C149.119 96.5954 151.333 95.1285 153.687 93.917C154.909 93.2908 156.189 92.764 157.479 92.2912C159.396 91.5892 161.349 90.9822 163.357 90.5989C164.661 90.35 165.963 90.015 167.315 90.1606C167.387 90.1685 167.468 90.0923 167.623 90.017C168.598 91.4387 169.607 92.8584 170.56 94.315C171.432 95.6472 172.197 97.0507 173.092 98.3661C174.702 100.733 176.358 103.069 178.022 105.397C180.242 108.501 182.743 111.378 185.222 114.275C185.977 115.158 186.746 116.03 187.5 116.914C187.643 117.082 187.746 117.285 187.893 117.516L184.526 118.106C184.596 118.257 184.633 118.372 184.699 118.467C186.513 121.111 188.371 123.726 190.136 126.402C192.068 129.329 193.912 132.315 195.802 135.271C196.03 135.635 196.286 135.98 196.569 136.304C196.768 136.527 196.824 136.73 196.716 137.002C196.413 137.777 196.38 138.598 196.349 139.412C196.344 139.642 196.405 139.868 196.525 140.065C197.685 141.902 198.873 143.722 200.033 145.559C200.71 146.633 201.332 147.742 202.013 148.813C202.485 149.555 203.042 150.244 203.511 150.988C204.016 151.789 204.473 152.62 204.928 153.448C205.093 153.749 204.97 153.962 204.625 153.977C204.088 154 203.548 153.996 203.012 153.965C201.079 153.852 199.147 153.725 197.214 153.602C195.754 153.509 194.294 153.405 192.834 153.323C191.265 153.234 189.694 153.176 188.125 153.083C185.763 152.938 183.402 152.781 181.041 152.612C179.132 152.477 177.224 152.324 175.316 152.177C173.513 152.039 171.71 151.9 169.907 151.76C167.269 151.554 164.631 151.348 161.994 151.14C160.428 151.016 158.862 150.906 157.299 150.751C154.452 150.469 151.606 150.165 148.762 149.858C147.286 149.699 145.811 149.518 144.342 149.334C144.05 149.298 143.865 149.411 143.66 149.598C142.275 150.86 140.726 151.848 138.899 152.348C137.787 152.652 136.651 152.715 135.51 152.631C133.896 152.514 132.314 152.244 130.814 151.582C129.572 151.033 128.367 150.415 127.27 149.611C127.155 149.519 127.022 149.452 126.88 149.412C126.739 149.372 126.59 149.361 126.444 149.379C124.772 149.526 123.1 149.68 121.429 149.791C120.033 149.884 118.634 149.916 117.237 149.982C115.756 150.051 114.274 150.123 112.793 150.199C110.925 150.295 109.056 150.385 107.188 150.494C105.727 150.58 104.267 150.684 102.808 150.79C101.327 150.897 99.8446 151.001 98.3661 151.137C96.8463 151.277 95.3299 151.456 93.8115 151.615C92.3994 151.763 90.9872 151.908 89.5751 152.05C88.5917 152.149 87.6083 152.257 86.6205 152.346C83.835 152.595 81.0485 152.83 78.2616 153.084C76.1198 153.28 73.9809 153.503 71.8386 153.695C70.7244 153.793 69.6068 153.855 68.4906 153.925C68.3672 153.933 68.2408 153.888 68.1164 153.868C67.9163 153.366 68.0028 152.879 68.1071 152.4C68.4326 150.897 69.0221 149.49 69.7002 148.12C71.0391 145.409 72.7979 142.958 74.4633 140.45C74.6412 140.183 74.7583 139.932 74.6884 139.616C74.4298 138.467 74.2356 137.296 73.5153 136.222C75.101 134.414 76.729 132.614 78.2926 130.758C79.6359 129.164 80.9586 127.546 82.1942 125.867C84.083 123.308 85.9239 120.712 87.7169 118.081C89.8229 114.982 91.6687 111.726 93.4786 108.449C94.9537 105.777 96.4288 103.1 97.842 100.394C98.727 98.7001 99.5088 96.9508 100.337 95.2251C101.091 93.6542 101.845 92.0836 102.599 90.5133C102.627 90.4558 102.659 90.3997 102.692 90.3441C103.134 89.5983 103.223 89.557 104.096 89.682C107.781 90.2083 111.312 91.2345 114.693 92.8141C116.766 93.7827 118.72 94.9447 120.673 96.1234C123.635 97.9106 126.328 100.039 128.868 102.378C129.242 102.724 129.599 103.091 129.959 103.443ZM142.547 145.318C141.018 145.549 139.489 145.774 137.962 146.017C137.679 146.063 137.418 146.142 137.218 146.434C137.081 146.633 136.758 146.771 136.5 146.806C135.992 146.876 135.464 146.917 134.959 146.856C134.438 146.791 133.886 146.706 133.533 146.204C133.459 146.099 133.281 146.042 133.139 146.011C131.206 145.601 129.286 145.091 127.333 144.819C124.352 144.402 121.354 144.031 118.351 143.857C114.119 143.616 109.876 143.547 105.636 143.461C103.246 143.408 100.855 143.506 98.4772 143.753C96.5301 143.958 94.5786 144.147 92.6432 144.434C90.4114 144.769 88.1772 145.13 85.9763 145.624C83.7145 146.133 81.4798 146.785 79.2509 147.435C78.2439 147.73 77.2772 148.161 76.2978 148.544C75.5833 148.825 74.8778 149.128 74.179 149.417C73.9145 149.198 74.0089 148.968 74.0891 148.747C74.8822 146.564 75.0341 144.299 74.9559 142.004C74.9446 141.672 74.9068 141.34 74.8797 141.009L74.7411 140.972C72.5628 144.271 70.2125 147.474 68.8751 151.336C69.1121 151.351 69.2995 151.385 69.4819 151.372C70.1889 151.311 70.894 151.231 71.6006 151.164C73.055 151.024 74.5095 150.883 75.9644 150.751C77.4419 150.617 78.9215 150.505 80.3985 150.364C81.7261 150.241 83.0502 150.082 84.3783 149.965C85.728 149.847 87.0827 149.768 88.4319 149.656C91.09 149.439 93.7456 149.19 96.4052 148.993C99.7079 148.747 103.014 148.55 106.318 148.319C108.011 148.201 109.703 148.062 111.394 147.921C113.428 147.75 115.458 147.537 117.495 147.4C119.015 147.297 120.543 147.252 122.067 147.243C123.576 147.233 125.076 147.184 126.568 146.926C126.856 146.876 127.213 146.971 127.48 147.111C128.049 147.41 128.576 147.785 129.126 148.122C130.982 149.261 133.015 149.812 135.174 149.965C136.422 150.054 137.618 149.772 138.797 149.446C139.996 149.114 141.196 148.751 142.224 147.996C143.463 147.087 144.874 146.792 146.376 146.89C148.351 147.019 150.323 147.185 152.297 147.32C153.113 147.376 153.933 147.369 154.748 147.435C156.076 147.541 157.403 147.709 158.731 147.802C160.683 147.938 162.639 148.032 164.593 148.142C166.461 148.247 168.33 148.343 170.198 148.455C171.894 148.557 173.591 148.685 175.285 148.783C176.979 148.881 178.677 148.952 180.376 149.046C182.16 149.145 183.943 149.248 185.725 149.367C187.313 149.474 188.898 149.61 190.486 149.722C193.19 149.913 195.894 150.083 198.596 150.29C199.451 150.356 200.299 150.522 201.152 150.628C201.587 150.682 202.025 150.704 202.529 150.746L196.519 140.945C196.407 142.371 196.519 143.744 196.76 145.099C196.903 145.9 197.166 146.679 197.356 147.473C197.568 148.356 197.31 148.635 196.471 148.393C194.817 147.916 193.143 147.536 191.456 147.187C189.095 146.699 186.722 146.302 184.326 146.056C182.742 145.896 181.157 145.74 179.568 145.646C177.034 145.496 174.498 145.394 171.961 145.281C170.026 145.195 168.09 145.143 166.155 145.042C164.35 144.949 162.549 144.779 160.747 144.698C157.757 144.567 154.765 144.463 151.773 144.624C149.238 144.76 146.703 144.912 144.17 145.082C143.62 145.119 143.076 145.248 142.529 145.335L142.547 145.318ZM136.734 110.735L136.596 111.038C136.379 111.431 136.15 111.817 135.95 112.219C135.891 112.354 135.869 112.502 135.886 112.648C136.099 114.942 136.071 117.241 136.052 119.54C136.037 121.236 135.996 122.934 135.966 124.628C135.929 126.687 135.887 128.747 135.857 130.806C135.841 131.855 135.828 132.905 135.848 133.954C135.865 134.921 135.955 135.888 135.963 136.857C135.979 138.772 135.96 140.688 135.958 142.604C135.958 142.739 135.969 142.875 135.98 143.12C136.211 142.848 136.371 142.677 136.509 142.492C137.864 140.672 139.414 139.03 141.112 137.533C142.354 136.436 143.645 135.397 144.893 134.308C146.406 132.989 148.015 131.788 149.732 130.769C151.987 129.432 154.305 128.2 156.633 126.99C159.189 125.658 161.827 124.489 164.531 123.49C166.911 122.614 169.295 121.736 171.71 120.971C174.023 120.238 176.372 119.606 178.725 119.008C181.331 118.346 183.956 117.768 186.62 117.38C186.739 117.363 186.853 117.312 187.013 117.262C186.924 117.138 186.869 117.049 186.801 116.97C185.988 116.024 185.179 115.071 184.356 114.134C181.225 110.574 178.337 106.825 175.565 102.981C173.523 100.149 171.719 97.1663 169.878 94.2053C169.13 93.0011 168.348 91.8175 167.568 90.6019C166.663 90.7146 165.783 90.7819 164.92 90.9399C162.783 91.3309 160.675 91.8362 158.616 92.546C156.661 93.22 154.748 93.981 152.966 95.0441C152.154 95.5291 151.324 95.9901 150.55 96.5302C149.246 97.4398 147.967 98.3863 146.704 99.3524C146.038 99.8631 145.403 100.414 144.804 101.003C144.039 101.756 143.257 102.509 142.614 103.362C142.167 103.952 141.72 104.509 141.126 104.949C140.903 105.114 140.654 105.274 140.496 105.494C139.233 107.23 137.986 108.984 136.734 110.733V110.735ZM89.1429 117.21C89.2132 117.243 89.2491 117.273 89.2859 117.274C90.9897 117.308 92.6752 117.537 94.3455 117.836C97.9841 118.488 101.61 119.205 105.14 120.355C108.922 121.593 112.577 123.192 116.052 125.131C118.371 126.418 120.576 127.868 122.716 129.435C124.421 130.684 126.078 131.986 127.595 133.455C129.853 135.643 132.033 137.906 133.815 140.518C134.073 140.895 134.372 141.243 134.73 141.707C134.764 141.381 134.796 141.215 134.797 141.046C134.797 140.1 134.805 139.154 134.789 138.209C134.755 136.15 134.691 134.091 134.672 132.032C134.661 130.703 134.702 129.375 134.74 128.044C134.789 126.325 134.863 124.607 134.918 122.889C134.934 122.39 134.918 121.889 134.918 121.39L134.806 121.373L133.899 123.51C133.192 122.766 132.512 122.086 131.88 121.362C131.711 121.17 131.652 120.852 131.614 120.582C131.565 120.211 131.727 119.91 132.064 119.723C132.369 119.555 132.641 119.622 132.9 119.837C133.013 119.931 133.137 120.009 133.17 120.033C133.478 119.771 133.714 119.487 134.016 119.334C134.438 119.119 134.693 119.527 135.049 119.858C135.049 119.451 135.045 119.175 135.049 118.9C135.062 118.043 135.082 117.186 135.091 116.329C135.107 114.995 135.152 113.661 135.106 112.33C135.091 111.907 134.924 111.409 134.655 111.091C134.187 110.539 133.592 110.093 133.04 109.616C132.211 108.896 131.354 108.208 130.543 107.467C129.465 106.484 128.907 105.32 129.533 103.815C128.886 103.21 128.268 102.58 127.595 102.014C126.211 100.851 124.86 99.6358 123.382 98.6042C121.513 97.3011 119.53 96.1662 117.604 94.9467C115.794 93.8005 113.818 92.9952 111.851 92.1918C109.753 91.3359 107.537 90.8685 105.332 90.3776C104.709 90.2389 104.081 90.1242 103.418 89.9909C99.4124 99.501 94.4694 108.456 89.1429 117.21ZM138.534 140.73C138.632 140.744 138.681 140.768 138.705 140.752C138.871 140.653 139.03 140.544 139.181 140.424C140.625 139.194 142.202 138.155 143.807 137.146C145.34 136.183 146.944 135.362 148.576 134.597C151.337 133.296 154.232 132.3 157.21 131.629C158.952 131.239 160.695 130.852 162.476 130.687C164.059 130.539 165.643 130.379 167.23 130.293C168.818 130.207 170.411 130.167 172 130.19C173.653 130.213 175.307 130.322 176.958 130.422C179.642 130.58 182.315 130.878 184.968 131.315C186.959 131.646 188.932 132.084 190.914 132.47C191.047 132.497 191.185 132.489 191.39 132.501C191.229 132.188 191.108 131.939 190.976 131.695C190.698 131.186 190.42 130.676 190.131 130.17C189.545 129.145 188.976 128.109 188.356 127.104C187.769 126.153 187.111 125.246 186.511 124.3C185.319 122.427 183.977 120.667 182.547 118.971C182.324 118.707 182.105 118.618 181.766 118.697C178.185 119.533 174.616 120.419 171.135 121.619C169.286 122.258 167.439 122.908 165.614 123.61C163.748 124.328 161.888 125.067 160.064 125.883C157.197 127.169 154.4 128.604 151.683 130.183C150.196 131.045 148.728 131.961 147.356 132.991C145.654 134.267 144.041 135.664 142.426 137.05C141.316 138.002 140.262 139.021 139.192 140.017C138.963 140.228 138.765 140.475 138.532 140.73H138.534ZM83.8325 124.888C84.0027 124.888 84.1069 124.906 84.2023 124.888C86.0417 124.482 87.92 124.473 89.784 124.426C91.7602 124.377 93.7432 124.433 95.7173 124.549C98.4885 124.712 101.232 125.124 103.952 125.691C106.079 126.133 108.193 126.63 110.226 127.408C111.933 128.061 113.625 128.751 115.317 129.44C117.788 130.446 120.24 131.494 122.566 132.808C125.402 134.409 128.112 136.195 130.577 138.333C131.349 139.003 132.107 139.688 132.871 140.367C132.544 139.745 132.147 139.162 131.688 138.63C130.825 137.641 129.96 136.649 129.028 135.728C127.73 134.441 126.402 133.181 125.026 131.979C124.121 131.189 123.108 130.521 122.147 129.796C119.875 128.089 117.48 126.554 114.98 125.205C111.681 123.414 108.246 121.939 104.654 120.856C102.742 120.279 100.801 119.793 98.8593 119.331C96.2867 118.716 93.6915 118.202 91.0679 117.852C90.3259 117.754 89.578 117.695 88.897 117.624L83.8325 124.888ZM74.6083 135.774C74.8782 135.758 75.0081 135.762 75.1329 135.739C75.8729 135.609 76.611 135.465 77.3515 135.339C78.4332 135.155 79.5149 134.979 80.5967 134.805C82.0811 134.567 83.5587 134.249 85.0524 134.116C87.4288 133.905 89.816 133.817 92.1988 133.677C92.5208 133.659 92.8434 133.634 93.1659 133.631C94.2826 133.619 95.4007 133.582 96.5163 133.617C97.8479 133.657 99.1786 133.731 100.508 133.84C102.436 134 104.373 134.12 106.282 134.413C109.703 134.938 113.112 135.545 116.514 136.184C119.091 136.669 121.637 137.316 124.106 138.212C126.348 139.025 128.565 139.905 130.794 140.754C130.977 140.824 131.164 140.886 131.349 140.951C131.292 140.796 131.18 140.668 131.034 140.591C130.059 140.043 129.083 139.499 128.105 138.956C124.801 137.104 121.378 135.474 117.858 134.076C114.957 132.93 112.032 131.857 108.987 131.142C106.011 130.444 103.015 129.863 99.97 129.549C96.3688 129.178 92.7519 129.152 89.1389 129.046C87.4386 129.002 85.7377 129.101 84.0538 129.341C82.8 129.514 81.5599 129.795 80.3213 130.062C79.928 130.146 79.5405 130.276 79.2455 130.603C77.8127 132.18 76.3701 133.748 74.9338 135.321C74.8384 135.427 74.7652 135.554 74.6068 135.774H74.6083ZM182.747 118.524C186.464 122.952 189.538 127.762 192.04 132.906C191.794 133.213 191.535 133.192 191.276 133.152C190.384 133.007 189.49 132.873 188.602 132.704C187.483 132.491 186.377 132.185 185.25 132.031C183.014 131.727 180.772 131.448 178.524 131.255C175.437 130.99 172.345 130.866 169.241 130.949C165.921 131.038 162.623 131.288 159.364 131.917C157.594 132.258 155.824 132.654 154.1 133.186C152.421 133.704 150.779 134.367 149.168 135.074C147.751 135.697 146.371 136.402 145.035 137.183C143.104 138.31 141.219 139.52 139.488 140.951C139.356 141.06 139.206 141.148 139.066 141.246C137.902 142.071 136.931 143.109 135.911 144.093C135.902 144.102 135.911 144.129 135.911 144.211C136.017 144.141 136.098 144.091 136.176 144.036C137.089 143.388 137.963 142.679 138.922 142.107C140.323 141.271 141.768 140.507 143.225 139.771C144.104 139.329 145.032 138.971 145.954 138.618C147.056 138.196 148.166 137.786 149.291 137.432C150.91 136.922 152.539 136.444 154.179 135.997C155.526 135.63 156.88 135.268 158.252 135.013C160.661 134.57 163.089 134.213 165.54 134.053C167.922 133.897 170.303 133.719 172.686 133.584C174.189 133.5 175.696 133.472 177.201 133.428C179.439 133.364 181.676 133.319 183.907 133.576C184.932 133.694 185.953 133.854 186.98 133.949C189.759 134.207 192.448 134.848 195.074 135.779C195.201 135.824 195.332 135.856 195.516 135.911C194.019 133.563 192.581 131.267 191.104 128.996C188.956 125.694 186.792 122.403 184.61 119.123C183.934 118.114 184.241 118.131 182.747 118.524ZM134.806 145.795L134.855 145.658C134.639 145.529 134.431 145.383 134.204 145.275C133.898 145.121 133.579 144.991 133.253 144.884C131.813 144.449 130.365 144.042 128.926 143.605C125.754 142.642 122.522 141.918 119.286 141.22C117.037 140.735 114.77 140.334 112.471 140.143C110.542 139.983 108.616 139.761 106.684 139.683C103.416 139.551 100.144 139.547 96.8753 139.711C95.3956 139.787 93.9163 139.891 92.4372 140.022C91.2572 140.124 90.084 140.265 88.9118 140.418C87.5493 140.596 86.1848 140.772 84.8307 141.011C83.2019 141.299 81.5793 141.624 79.9629 141.986C78.5601 142.301 77.174 142.692 75.7835 143.055C75.6851 143.082 75.5961 143.15 75.541 143.179C75.4132 144.497 75.2898 145.773 75.1659 147.048C75.2058 147.054 75.2465 147.054 75.2864 147.048C77.5777 146.242 79.8803 145.478 82.2375 144.878C84.635 144.268 87.0364 143.687 89.4929 143.379C91.8172 143.088 94.1424 142.789 96.475 142.592C98.3381 142.431 100.212 142.346 102.083 142.341C105.505 142.333 108.927 142.382 112.347 142.464C114.109 142.505 115.875 142.602 117.626 142.794C120.169 143.073 122.703 143.446 125.236 143.806C126.683 144.012 128.132 144.225 129.563 144.519C130.995 144.813 132.4 145.208 133.818 145.561C134.147 145.637 134.477 145.716 134.807 145.797L134.806 145.795ZM80.2771 129.388L80.3415 129.494C80.6709 129.432 81.0043 129.387 81.3283 129.305C83.4023 128.784 85.5141 128.48 87.6452 128.495C90.8948 128.517 94.1439 128.623 97.3916 128.747C99.9725 128.845 102.528 129.204 105.065 129.691C107.475 130.154 109.879 130.64 112.211 131.398C115.769 132.555 119.253 133.907 122.635 135.526C125.917 137.096 129.143 138.765 132.223 140.709C132.354 140.792 132.501 140.847 132.754 140.971C132.629 140.808 132.596 140.75 132.55 140.707C129.993 138.316 127.201 136.234 124.223 134.401C119.949 131.769 115.284 129.98 110.632 128.177C107.818 127.086 104.874 126.433 101.902 125.925C99.5462 125.522 97.1787 125.23 94.7875 125.123C91.0615 124.957 87.3452 124.952 83.6477 125.536C83.5111 125.552 83.3795 125.598 83.262 125.669C83.1444 125.741 83.0435 125.837 82.9662 125.95C82.5679 126.486 82.1426 127.001 81.7315 127.525C81.2434 128.145 80.7584 128.767 80.2766 129.39L80.2771 129.388ZM196.284 136.803C195.802 136.586 195.329 136.325 194.826 136.153C193.136 135.575 191.429 135.062 189.649 134.824C188.157 134.628 186.669 134.389 185.175 134.21C183.208 133.975 181.234 133.858 179.249 133.933C176.948 134.019 174.644 134.027 172.345 134.138C170.088 134.246 167.836 134.425 165.584 134.603C162.426 134.851 159.29 135.265 156.213 136.029C153.042 136.816 149.876 137.631 146.809 138.773C144.957 139.462 143.133 140.218 141.38 141.155C140.063 141.859 138.843 142.693 137.612 143.521C137.061 143.892 136.531 144.297 136.004 144.702C135.923 144.764 135.909 144.911 135.863 145.019C136.014 145.023 136.162 144.975 136.281 144.882C137.035 144.384 137.756 143.832 138.548 143.401C139.716 142.761 140.929 142.208 142.124 141.62C143.612 140.888 145.144 140.247 146.741 139.817C149.127 139.173 151.528 138.574 153.944 138.05C155.916 137.621 157.914 137.302 159.908 136.983C162.947 136.496 165.999 136.088 169.072 135.926C171.67 135.789 174.276 135.757 176.879 135.745C179.851 135.732 182.814 135.96 185.764 136.311C187.172 136.478 188.594 136.622 189.973 136.938C191.959 137.394 193.969 137.79 195.885 138.632C196.013 138.041 196.136 137.478 196.284 136.803ZM75.132 138.983C76.4964 138.679 77.8496 138.331 79.2209 138.082C81.0594 137.747 82.9086 137.461 84.7594 137.204C86.354 136.983 87.9554 136.794 89.5598 136.663C91.0575 136.544 92.5631 136.502 94.0662 136.466C95.8501 136.423 97.6354 136.377 99.4188 136.413C102.407 136.473 105.399 136.522 108.38 136.717C110.758 136.872 113.125 137.209 115.49 137.52C116.916 137.708 118.342 137.958 119.749 138.255C121.64 138.654 123.515 139.125 125.397 139.568C125.692 139.637 125.98 139.716 126.271 139.792C126.227 139.644 126.153 139.604 126.074 139.578C124.365 139 122.677 138.348 120.942 137.865C118.208 137.104 115.421 136.556 112.623 136.074C109.378 135.516 106.133 135 102.853 134.683C100.153 134.421 97.4516 134.214 94.7403 134.22C93.2126 134.224 91.6849 134.272 90.1587 134.339C88.8056 134.398 87.4514 134.479 86.1032 134.607C84.5204 134.758 82.9372 134.929 81.3662 135.168C79.603 135.435 77.853 135.79 76.0967 136.102C75.9069 136.136 75.7112 136.136 75.5194 136.159C75.0612 136.212 74.6034 136.269 74.1471 136.325C74.4903 137.258 74.8114 138.118 75.132 138.983ZM195.887 139.065C195.567 138.989 195.277 138.93 194.992 138.85C194.165 138.619 193.343 138.371 192.516 138.142C189.984 137.448 187.39 137.001 184.772 136.808C182.477 136.633 180.178 136.513 177.878 136.402C174.822 136.257 171.768 136.397 168.717 136.595C165.902 136.778 163.107 137.136 160.323 137.579C158.413 137.883 156.5 138.191 154.604 138.57C152.623 138.966 150.653 139.42 148.692 139.906C147.378 140.232 146.071 140.601 144.796 141.051C142.685 141.796 140.673 142.776 138.687 143.806C138.483 143.912 138.294 144.044 138.094 144.163C138.252 144.189 138.414 144.161 138.555 144.084C141.105 142.894 143.749 141.916 146.46 141.162C147.886 140.763 149.319 140.371 150.76 140.026C153.757 139.307 156.808 138.943 159.876 138.697C163.569 138.406 167.262 138.251 170.967 138.436C173.611 138.568 176.261 138.583 178.904 138.726C180.706 138.825 182.505 139.015 184.298 139.225C185.835 139.406 187.365 139.651 188.89 139.909C190.562 140.191 192.231 140.511 193.897 140.836C194.56 140.965 195.212 141.152 195.887 141.317V139.065ZM139.571 144.209L139.638 144.307C140.17 144.144 140.697 143.963 141.233 143.821C143.767 143.145 146.302 142.464 148.9 142.071C151.47 141.681 154.039 141.263 156.619 140.97C158.99 140.701 161.374 140.527 163.757 140.413C166.163 140.297 168.573 140.251 170.985 140.275C172.876 140.291 174.769 140.408 176.655 140.563C178.818 140.74 180.979 140.975 183.133 141.248C185.371 141.531 187.599 141.901 189.835 142.214C191.69 142.473 193.523 142.825 195.328 143.329C195.542 143.389 195.765 143.418 196.05 143.477C196 142.81 195.962 142.236 195.923 141.692C195.677 141.67 195.469 141.669 195.269 141.629C193.351 141.248 191.437 140.825 189.511 140.481C186.123 139.868 182.7 139.467 179.262 139.28C176.297 139.124 173.326 139.073 170.357 139.007C167.043 138.933 163.729 138.946 160.425 139.258C158.114 139.476 155.799 139.688 153.511 140.105C150.568 140.642 147.648 141.285 144.808 142.243C143.18 142.792 141.575 143.413 139.962 144.006C139.825 144.056 139.701 144.139 139.571 144.209ZM134.883 145.266C134.976 144.704 134.982 144.641 134.503 144.433C133.104 143.824 131.714 143.182 130.275 142.68C128.573 142.084 126.828 141.606 125.094 141.105C122.817 140.446 120.487 140.023 118.15 139.649C116.218 139.339 114.277 139.075 112.334 138.837C110.412 138.602 108.487 138.354 106.556 138.241C104.13 138.1 101.696 138.056 99.2649 138.036C97.6305 138.023 95.9937 138.101 94.3598 138.18C92.9211 138.25 91.4843 138.371 90.0471 138.48C88.8464 138.571 87.6422 138.64 86.4484 138.788C84.9551 138.973 83.4682 139.215 81.9823 139.458C79.9891 139.785 78.0231 140.26 76.1006 140.88C75.8798 140.951 75.6704 141.057 75.4157 141.163C75.4442 141.662 75.4712 142.138 75.5002 142.656C76.0042 142.536 76.4222 142.444 76.8362 142.337C78.4165 141.927 79.983 141.456 81.5791 141.116C83.2587 140.758 84.9625 140.511 86.6598 140.238C87.5498 140.094 88.4471 139.992 89.343 139.883C90.7296 139.716 92.1132 139.485 93.5052 139.414C96.2548 139.273 99.0088 139.163 101.762 139.152C104.319 139.142 106.883 139.205 109.435 139.374C111.538 139.519 113.632 139.771 115.709 140.127C118.251 140.557 120.774 141.111 123.295 141.659C124.763 141.979 126.213 142.388 127.668 142.769C128.416 142.966 129.162 143.173 129.9 143.403C131.579 143.924 133.288 144.367 134.883 145.266ZM144.265 143.505L144.269 143.662C144.839 143.571 145.405 143.454 145.978 143.395C148.352 143.152 150.723 142.854 153.103 142.714C155.723 142.561 158.35 142.514 160.974 142.504C163.771 142.493 166.567 142.582 169.364 142.621C171.814 142.655 174.265 142.647 176.715 142.719C179.401 142.797 182.088 142.911 184.754 143.279C186.331 143.496 187.918 143.672 189.475 143.998C191.45 144.41 193.397 144.954 195.358 145.438C195.658 145.512 195.962 145.567 196.319 145.642C196.238 145.067 196.171 144.581 196.101 144.082C195.486 143.904 194.898 143.684 194.291 143.568C192.306 143.186 190.319 142.812 188.324 142.493C186.902 142.266 185.465 142.133 184.034 141.957C182.007 141.708 179.984 141.388 177.95 141.226C175.462 141.027 172.969 140.902 170.471 140.849C166.767 140.772 163.069 141.012 159.379 141.314C155.819 141.607 152.271 142.015 148.751 142.63C147.25 142.89 145.759 143.211 144.265 143.505ZM196.994 147.864C196.827 147.411 196.66 147.1 196.605 146.77C196.531 146.322 196.26 146.186 195.873 146.098C194.03 145.677 192.195 145.22 190.348 144.819C189.047 144.535 187.739 144.254 186.42 144.087C184.543 143.848 182.658 143.653 180.77 143.551C178.128 143.409 175.482 143.336 172.837 143.294C168.231 143.218 163.625 143.152 159.02 143.155C156.611 143.155 154.201 143.272 151.797 143.413C149.974 143.52 148.155 143.731 146.339 143.931C145.556 144.017 144.782 144.19 144.003 144.324C144.046 144.359 144.095 144.385 144.148 144.4C144.201 144.414 144.256 144.418 144.31 144.41C145.274 144.328 146.236 144.219 147.202 144.164C149.133 144.053 151.066 143.899 152.999 143.89C155.708 143.878 158.419 143.972 161.128 144.038C162.224 144.065 163.319 144.146 164.415 144.199C166.755 144.312 169.094 144.43 171.435 144.532C172.337 144.572 173.243 144.55 174.144 144.597C176.054 144.696 177.965 144.804 179.872 144.948C181.63 145.08 183.39 145.212 185.133 145.44C187.091 145.699 189.04 146.038 190.985 146.401C192.42 146.67 193.836 147.025 195.262 147.36C195.797 147.489 196.323 147.668 196.994 147.864ZM134.817 143.338C133.761 142.94 132.751 142.515 131.71 142.175C129.525 141.463 127.334 140.769 125.128 140.119C123.893 139.755 122.638 139.436 121.374 139.196C118.755 138.698 116.133 138.203 113.494 137.828C111.346 137.523 109.177 137.344 107.011 137.2C103.144 136.943 99.2718 136.873 95.3953 136.922C94.4055 136.935 93.4157 136.964 92.4279 137.021C91.1003 137.101 89.7727 137.242 88.4422 137.312C86.3741 137.422 84.3375 137.758 82.2989 138.088C81.1312 138.277 79.9619 138.457 78.7971 138.661C78.0143 138.798 77.2364 138.965 76.4581 139.128C76.0445 139.214 75.6345 139.317 75.1679 139.423L75.3449 140.634C76.5456 140.289 77.674 139.949 78.8148 139.653C79.749 139.41 80.6911 139.187 81.641 139.022C82.9519 138.792 84.2706 138.603 85.5908 138.438C87.0202 138.258 88.453 138.099 89.8883 137.978C91.3879 137.851 92.8916 137.748 94.3952 137.694C96.5665 137.615 98.7393 137.546 100.911 137.552C103.536 137.56 106.16 137.664 108.772 137.956C110.461 138.143 112.156 138.283 113.837 138.518C115.924 138.809 118.004 139.145 120.078 139.523C121.62 139.805 123.155 140.139 124.673 140.531C126.357 140.965 128.032 141.449 129.688 141.988C131.344 142.527 132.964 143.169 134.497 144.011C134.616 144.076 134.743 144.126 134.946 144.219C134.893 143.866 134.854 143.596 134.817 143.337V143.338ZM126.75 148.589C127.067 148.805 127.353 148.992 127.63 149.189C129.041 150.194 130.58 150.947 132.214 151.504C133.405 151.911 134.648 152.067 135.891 152.11C136.772 152.14 137.653 152.066 138.517 151.889C139.677 151.642 140.778 151.17 141.757 150.5C142.469 150.019 143.165 149.511 143.832 148.97C144.26 148.623 144.225 148.33 143.737 147.842C142.812 148.619 141.801 149.298 140.64 149.716C139.489 150.13 138.361 150.591 137.117 150.706C135.907 150.818 134.711 150.752 133.519 150.591C132.301 150.426 131.134 150.046 130 149.574C128.867 149.101 128.005 148.205 127.025 147.499C126.649 147.864 126.708 148.246 126.75 148.589V148.589ZM74.7332 148.656C83.7013 144.898 93.0858 143.465 102.618 142.924C102.309 142.909 101.964 142.864 101.624 142.881C99.0038 143.013 96.3792 143.09 93.7673 143.314C91.177 143.536 88.6045 143.938 86.0535 144.457C83.6124 144.96 81.1981 145.586 78.8197 146.331C77.7743 146.656 76.7546 147.063 75.7058 147.375C75.0616 147.569 74.7307 147.93 74.7332 148.655V148.656ZM115.072 143.138C112.768 142.926 110.477 142.813 108.182 142.934L115.072 143.138ZM116.034 143.202V143.186L115.845 143.21L116.034 143.202Z" fill="black"/>
<path d="M136.734 110.733C136.832 110.69 136.939 110.661 137.025 110.601C137.615 110.184 138.371 110.486 138.57 111.266C138.601 111.39 138.642 111.512 138.683 111.65C138.862 111.562 139.022 111.466 139.193 111.404C139.561 111.265 139.924 111.285 140.218 111.563C140.521 111.851 140.661 112.233 140.479 112.621C140.309 112.982 140.056 113.31 139.816 113.631C139.718 113.762 139.564 113.849 139.423 113.965C140.013 114.278 140.219 114.237 140.481 113.723C140.636 113.418 140.74 113.086 140.869 112.767C141.181 111.998 141.462 111.804 142.276 111.798C142.383 111.798 142.492 111.794 142.599 111.802C143.126 111.843 143.503 111.618 143.784 111.178C144.236 110.471 144.718 109.783 145.161 109.07C145.573 108.405 146.13 108.135 146.905 108.283C147.481 108.394 148.004 108.25 148.494 107.916C149.1 107.507 149.651 107.02 150.131 106.469C150.836 105.657 151.578 104.876 152.33 104.107C152.938 103.486 153.719 103.194 154.563 103.038C155.428 102.878 156.307 102.757 157.094 102.318C157.414 102.141 157.758 101.996 158.046 101.777C159.058 101.014 160.105 100.293 160.964 99.3421C161.603 98.6337 162.447 98.3356 163.382 98.279C163.619 98.2632 163.856 98.2632 164.093 98.279C165.115 98.3523 165.87 97.8894 166.475 97.1126C166.59 96.9578 166.718 96.8122 166.856 96.6772C166.999 96.5439 167.16 96.5297 167.298 96.7018C166.741 98.1447 165.681 98.8939 164.17 98.9254C163.72 98.9347 163.268 98.9485 162.819 98.9884C162.283 99.0375 161.863 99.3175 161.468 99.6771C160.575 100.485 159.685 101.3 158.743 102.046C157.701 102.872 156.525 103.439 155.176 103.589C154.814 103.63 154.457 103.72 154.1 103.799C153.54 103.924 153.055 104.181 152.664 104.611C151.868 105.486 151.059 106.35 150.268 107.229C149.713 107.846 149.056 108.326 148.338 108.725C147.949 108.942 147.522 108.947 147.082 108.896C145.968 108.768 145.967 108.778 145.374 109.715C144.983 110.333 144.579 110.945 144.199 111.569C143.837 112.164 143.325 112.414 142.633 112.378C141.525 112.321 141.529 112.337 141.116 113.398C141.007 113.677 140.892 113.962 140.728 114.209C140.418 114.678 140.094 114.776 139.561 114.615C139.399 114.566 139.242 114.503 139.002 114.418C138.849 114.772 138.707 115.098 138.567 115.422C138.457 115.677 138.326 115.894 137.99 115.703L138.427 114.687L138.332 114.589L136.964 115.434C136.92 115.237 136.876 115.084 136.851 114.926C136.756 114.332 136.687 113.733 136.572 113.142C136.434 112.434 136.398 111.736 136.598 111.036L136.734 110.733Z" fill="black"/>
<path d="M173.119 114.662C172.946 114.913 172.807 115.073 172.714 115.253C172.286 116.089 171.699 116.796 171.037 117.45C170.583 117.899 170.041 118.057 169.439 117.854C169.016 117.703 168.604 117.518 168.21 117.301C167.664 117.011 167.245 117.055 166.827 117.515C166.64 117.722 166.5 117.969 166.323 118.185C165.722 118.914 165.137 119.657 164.503 120.357C163.925 120.996 163.155 121.269 162.304 121.274C161.788 121.278 161.272 121.249 160.759 121.188C159.768 121.069 158.936 121.374 158.233 122.061C158.036 122.258 157.865 122.483 157.669 122.681C156.825 123.539 156.032 124.459 155.112 125.228C154.119 126.059 152.948 126.551 151.589 126.334C150.953 126.232 150.465 126.461 150.104 127.01C149.69 127.638 149.227 128.234 148.809 128.859C148.245 129.703 147.418 130.117 146.468 130.329C146.133 130.407 145.79 130.448 145.446 130.452C144.891 130.452 144.516 130.687 144.237 131.16C143.933 131.677 143.603 132.183 143.254 132.673C142.674 133.493 141.889 133.787 140.89 133.608C140.079 133.464 140.004 133.543 139.713 134.329C139.629 134.573 139.525 134.809 139.403 135.036C139.032 135.682 138.562 135.759 137.85 135.24C138.027 135.187 138.157 135.105 138.271 135.122C138.727 135.193 138.952 134.944 139.102 134.574C139.2 134.335 139.286 134.092 139.372 133.849C139.576 133.273 139.967 132.972 140.592 133.001C140.85 133.013 141.109 132.999 141.366 133.017C141.858 133.051 142.259 132.881 142.553 132.494C142.838 132.12 143.103 131.731 143.362 131.338C143.48 131.159 143.558 130.956 143.662 130.766C144.031 130.085 144.607 129.741 145.379 129.689C145.743 129.669 146.105 129.616 146.46 129.532C147.189 129.349 147.798 128.985 148.234 128.338C148.67 127.691 149.147 127.087 149.603 126.462C150.102 125.779 150.761 125.447 151.61 125.562C152.882 125.736 153.939 125.267 154.841 124.435C155.66 123.678 156.444 122.879 157.211 122.068C157.949 121.29 158.71 120.571 159.839 120.445C160.157 120.411 160.478 120.406 160.798 120.429C161.527 120.481 162.26 120.618 162.973 120.372C163.291 120.262 163.62 120.113 163.872 119.898C164.627 119.258 165.298 118.532 165.845 117.695C166.042 117.389 166.278 117.108 166.545 116.859C167.13 116.322 167.796 116.243 168.512 116.613C168.797 116.761 169.092 116.892 169.383 117.028C169.875 117.257 170.327 117.165 170.675 116.775C171.161 116.234 171.61 115.657 172.063 115.087C172.183 114.939 172.256 114.751 172.365 114.591C172.766 114.001 173.181 113.895 173.787 114.274C174.076 114.454 174.32 114.706 174.584 114.926C175.057 115.319 175.382 115.35 175.839 114.946C176.089 114.725 176.27 114.42 176.457 114.137C176.574 113.959 176.654 113.754 176.737 113.557C176.99 112.967 177.409 112.861 177.963 113.33C178.11 113.454 178.219 113.625 178.368 113.744C178.517 113.863 178.684 113.938 178.849 114.036C178.429 114.507 178.235 114.474 177.342 113.769C177.238 113.984 177.16 114.199 177.039 114.384C176.773 114.794 176.544 115.256 176.191 115.577C175.488 116.216 174.765 116.16 174.063 115.521C173.77 115.256 173.474 114.986 173.119 114.662Z" fill="black"/>
<path d="M138.499 129.018C138.68 129.081 138.752 129.116 138.828 129.132C139.291 129.243 139.383 129.197 139.548 128.744C139.621 128.542 139.663 128.33 139.729 128.125C139.961 127.42 140.418 126.945 141.187 126.99C142.046 127.041 142.556 126.582 142.983 125.957C143.296 125.496 143.585 125.017 143.858 124.53C144.359 123.635 144.946 123.317 145.973 123.416C146.251 123.442 146.529 123.468 146.808 123.491C147.482 123.549 147.976 123.236 148.324 122.697C148.662 122.174 148.958 121.623 149.273 121.085C149.339 120.974 149.408 120.864 149.483 120.76C150.066 119.952 150.526 119.788 151.485 120.051C151.795 120.136 152.103 120.235 152.415 120.313C153.386 120.559 154.01 120.327 154.581 119.489C155.198 118.583 155.803 117.669 156.404 116.752C156.984 115.866 157.787 115.595 158.804 115.802C159.286 115.901 159.782 115.935 160.273 115.992C160.863 116.059 161.355 115.828 161.837 115.51C162.685 114.947 163.252 114.14 163.831 113.336C164.208 112.813 164.597 112.298 165.012 111.805C165.642 111.054 166.428 110.886 167.333 111.259C167.651 111.39 167.973 111.519 168.295 111.634C169.021 111.889 169.475 111.791 169.952 111.199C170.354 110.697 170.686 110.141 171.07 109.625C171.311 109.294 171.576 108.982 171.862 108.69C172.189 108.362 172.604 108.237 173.049 108.416C173.623 108.648 174.183 108.913 174.75 109.163C174.616 109.77 174.49 109.859 173.951 109.666C173.669 109.565 173.402 109.42 173.135 109.282C172.582 108.996 172.433 109.008 172.044 109.515C171.655 110.022 171.299 110.567 170.929 111.094C170.756 111.34 170.599 111.599 170.407 111.832C169.855 112.501 169.145 112.704 168.323 112.453C167.913 112.327 167.52 112.145 167.118 111.99C166.291 111.672 165.918 111.738 165.364 112.433C164.827 113.104 164.341 113.818 163.849 114.523C163.308 115.303 162.605 115.958 161.788 116.442C161.033 116.891 160.215 116.803 159.4 116.691C159.082 116.647 158.771 116.543 158.455 116.483C157.874 116.369 157.379 116.524 157.04 117.024C156.485 117.842 155.951 118.675 155.401 119.498C155.211 119.784 155.025 120.078 154.798 120.334C154.159 121.056 153.358 121.33 152.414 121.086C151.998 120.979 151.594 120.829 151.185 120.7C150.608 120.517 150.361 120.578 150.014 121.066C149.753 121.433 149.534 121.831 149.3 122.218C149.167 122.438 149.036 122.66 148.911 122.887C148.321 123.95 147.404 124.297 146.241 124.099C146.114 124.077 145.989 124.038 145.862 124.019C145.054 123.905 144.673 124.101 144.313 124.846C143.942 125.611 143.428 126.27 142.866 126.896C142.487 127.316 142.052 127.54 141.445 127.482C140.566 127.399 140.376 127.567 140.073 128.409C139.972 128.692 139.877 128.978 139.762 129.255C139.664 129.495 139.474 129.63 139.2 129.593C138.902 129.55 138.597 129.519 138.499 129.018Z" fill="black"/>
<path d="M138.028 125.153C137.941 124.868 138.143 124.737 138.336 124.672C138.972 124.458 139.294 123.966 139.521 123.39C139.782 122.732 140.266 122.374 140.939 122.195C141.237 122.116 141.562 121.973 141.772 121.759C142.359 121.16 142.93 120.538 143.436 119.871C143.992 119.137 144.71 118.682 145.537 118.326C146.127 118.072 146.732 117.801 147.228 117.408C148.254 116.594 149.201 115.681 150.201 114.833C150.939 114.208 151.652 113.526 152.481 113.051C153.173 112.657 154.005 112.48 154.795 112.287C155.528 112.111 156.229 111.818 156.869 111.42C158.313 110.519 159.673 109.491 160.935 108.349C161.579 107.768 162.323 107.44 163.182 107.316C163.99 107.206 164.792 107.054 165.584 106.861C166.454 106.64 167.187 106.172 167.792 105.483C168.295 104.923 168.829 104.391 169.39 103.89C169.71 103.599 170.104 103.39 170.566 103.465C171.341 103.591 172.039 103.534 172.437 102.732C172.766 102.841 172.772 103.02 172.68 103.255C172.454 103.835 171.877 104.297 171.2 104.171C170.184 103.981 169.571 104.482 168.977 105.149C168.663 105.503 168.32 105.832 167.994 106.177C167.173 107.044 166.103 107.431 164.987 107.702C164.425 107.837 163.841 107.898 163.266 107.954C162.485 108.026 161.844 108.333 161.25 108.852C159.873 110.056 158.414 111.164 156.851 112.124C156.116 112.58 155.296 112.881 154.441 113.009C152.952 113.226 151.835 114.082 150.772 115.038C149.811 115.901 148.877 116.792 147.909 117.645C147.314 118.182 146.61 118.582 145.846 118.819C144.954 119.088 144.233 119.573 143.664 120.337C143.19 120.973 142.609 121.528 142.079 122.123C141.809 122.427 141.481 122.615 141.075 122.647C140.471 122.697 140.092 123.032 139.857 123.565C139.77 123.763 139.671 123.955 139.562 124.141C139.337 124.525 139.045 124.818 138.579 124.913C138.391 124.953 138.218 125.067 138.028 125.153Z" fill="black"/>
<path d="M169.273 99.317C168.874 99.7106 168.575 99.3072 168.093 99.2187C168.044 99.2979 167.973 99.4607 167.861 99.5866C166.849 100.722 165.614 101.505 164.143 101.905C163.812 101.996 163.474 102.065 163.141 102.154C162.423 102.345 161.783 102.669 161.223 103.175C160.362 103.955 159.483 104.716 158.596 105.466C158.006 105.966 157.393 106.443 156.776 106.913C155.818 107.643 154.723 108.1 153.555 108.332C152.205 108.599 151.224 109.326 150.422 110.42C149.635 111.494 148.781 112.525 147.902 113.527C147.192 114.337 146.302 114.908 145.193 115.016C144.5 115.084 143.992 115.379 143.611 115.978C143.207 116.612 142.726 117.196 142.283 117.806C141.852 118.4 141.625 118.475 140.909 118.239C140.807 118.205 140.705 118.17 140.606 118.129C140.287 117.999 140.052 118.122 139.9 118.396C139.755 118.658 139.65 118.943 139.52 119.214C139.412 119.44 139.314 119.687 138.93 119.688C138.969 119.54 138.979 119.424 139.028 119.326C139.208 118.959 139.383 118.588 139.592 118.237C139.878 117.754 140.238 117.619 140.794 117.742C141.639 117.928 141.635 117.926 142.149 117.215C142.553 116.657 142.969 116.108 143.372 115.549C143.556 115.284 143.792 115.058 144.065 114.886C144.338 114.714 144.644 114.598 144.962 114.546C146.056 114.346 146.981 113.816 147.695 112.956C148.504 111.98 149.325 111.011 150.083 109.996C150.927 108.865 151.952 108.064 153.352 107.748C154.734 107.435 155.989 106.845 157.081 105.918C158.212 104.958 159.402 104.066 160.494 103.065C161.465 102.174 162.575 101.651 163.837 101.359C165.231 101.035 166.443 100.368 167.408 99.2954C168.12 98.5024 168.463 98.4862 169.273 99.317Z" fill="black"/>
<path d="M141.164 108.538C141.042 108.971 140.946 109.319 140.845 109.665C140.656 110.305 140.409 110.424 139.802 110.163C139.627 110.086 139.453 110.005 139.268 109.921C139.222 109.588 139.4 109.563 139.648 109.634C139.852 109.693 140.054 109.757 140.32 109.838C140.412 109.56 140.509 109.305 140.582 109.043C140.807 108.232 141.032 108.083 141.878 108.206C142.601 108.311 142.784 108.221 143.085 107.556C143.218 107.263 143.304 106.949 143.418 106.647C143.69 105.928 144.114 105.632 144.887 105.628C145.103 105.62 145.318 105.632 145.531 105.665C146.081 105.772 146.527 105.567 146.844 105.158C147.142 104.77 147.368 104.324 147.602 103.891C147.745 103.627 147.828 103.332 147.963 103.064C148.369 102.26 149.021 101.782 149.91 101.632C149.973 101.618 150.038 101.61 150.102 101.608C151.89 101.62 153.053 100.618 154.001 99.2373C154.409 98.6576 154.85 98.1016 155.321 97.5721C155.847 96.9685 156.501 96.5951 157.329 96.5366C157.799 96.5031 158.28 96.4495 158.727 96.3098C159.47 96.0771 160.147 95.7057 160.697 95.1291C161.034 94.7666 161.393 94.4259 161.773 94.1089C162.384 93.61 163.079 93.3936 163.88 93.5722C164.235 93.6514 164.607 93.6479 164.965 93.7163C165.084 93.7389 165.241 93.8491 165.278 93.9549C165.345 94.1546 165.197 94.2933 165.005 94.3032C164.71 94.3179 164.391 94.3524 164.113 94.2722C162.977 93.9451 162.136 94.3957 161.449 95.2408C160.371 96.5656 158.974 97.1997 157.286 97.2258C156.784 97.2336 156.342 97.3974 156.017 97.7669C155.48 98.3813 154.984 99.0326 154.457 99.6544C153.986 100.209 153.516 100.77 153 101.282C152.343 101.934 151.505 102.187 150.591 102.211C150.397 102.216 150.203 102.218 150.009 102.227C149.324 102.261 148.829 102.603 148.515 103.197C148.354 103.5 148.239 103.828 148.087 104.136C147.877 104.559 147.694 105.002 147.423 105.386C146.909 106.121 146.194 106.437 145.288 106.239C145.143 106.203 144.995 106.176 144.846 106.16C144.345 106.124 144.135 106.249 143.938 106.704C143.853 106.901 143.796 107.111 143.72 107.311C143.635 107.532 143.561 107.759 143.449 107.966C143.027 108.745 142.676 108.894 141.811 108.687C141.627 108.642 141.443 108.602 141.164 108.538Z" fill="black"/>
<path d="M137.349 119.728C137.059 119.039 136.796 118.455 136.572 117.859C136.51 117.691 136.542 117.478 136.568 117.291C136.602 117.027 136.786 116.835 137.036 116.832C137.219 116.832 137.413 116.959 137.585 117.06C137.668 117.109 137.71 117.227 137.782 117.33C137.88 117.264 137.963 117.205 138.05 117.154C138.264 117.03 138.486 116.949 138.71 117.124C138.816 117.201 138.895 117.309 138.936 117.433C138.977 117.558 138.978 117.692 138.939 117.817C138.878 118.038 138.778 118.272 138.627 118.44C138.255 118.854 137.844 119.234 137.349 119.728Z" fill="black"/>
<path d="M136.592 124.1C136.592 123.545 136.592 123.097 136.592 122.649C136.587 122.564 136.599 122.479 136.626 122.398C136.724 122.155 136.841 121.922 137.157 121.917C137.521 121.912 137.599 122.189 137.64 122.459C137.957 122.481 138.305 122.314 138.433 122.73C138.52 123.015 138.334 123.353 137.944 123.542C137.546 123.739 137.124 123.886 136.592 124.1Z" fill="black"/>
<path d="M133.056 134.5C132.54 134.572 132.292 134.277 132.18 133.906C132.071 133.545 132.065 133.153 132.004 132.699C131.734 132.725 131.489 132.751 131.243 132.773C130.617 132.828 130.17 132.857 130.278 131.877C130.341 131.3 130.372 130.72 130.404 130.141C130.411 130.02 130.362 129.895 130.324 129.689C130.038 129.689 129.764 129.702 129.493 129.685C129.238 129.668 128.975 129.651 128.734 129.576C128.278 129.435 128.152 129.232 128.212 128.751C128.261 128.351 128.351 127.957 128.44 127.465C128.149 127.509 127.924 127.527 127.708 127.581C127.333 127.673 126.97 127.821 126.59 127.883C126 127.981 125.771 127.735 125.88 127.157C125.959 126.734 126.093 126.32 126.172 125.9C126.235 125.585 126.266 125.264 126.264 124.942C126.251 124.37 126.086 124.229 125.535 124.418C124.888 124.64 124.273 124.955 123.644 125.231C123.369 125.352 123.097 125.479 122.82 125.595C122.72 125.635 122.616 125.662 122.509 125.674C121.662 125.781 121.253 125.341 121.509 124.533C121.657 124.067 121.923 123.638 122.139 123.194C122.242 122.982 122.378 122.781 122.45 122.559C122.56 122.227 122.435 122.05 122.085 122.067C121.635 122.095 121.186 122.15 120.743 122.234C120.299 122.316 119.86 122.422 119.428 122.552C118.971 122.687 118.534 122.65 118.1 122.492C117.616 122.317 117.451 122.006 117.548 121.487C117.606 121.178 117.655 120.867 117.713 120.527C117.241 120.405 116.904 120.605 116.554 120.747C116.259 120.867 115.964 121.026 115.652 121.08C115.025 121.188 114.708 120.853 114.788 120.235C114.817 120.009 114.844 119.783 114.887 119.426C114.503 119.549 114.227 119.63 113.956 119.726C113.693 119.82 113.441 119.949 113.175 120.027C112.486 120.232 112.127 119.947 112.172 119.24C112.183 119.048 112.229 118.859 112.25 118.666C112.272 118.474 112.282 118.288 112.307 117.978C112.008 118.106 111.782 118.191 111.569 118.3C111.302 118.437 111.056 118.621 110.783 118.738C110.258 118.959 109.955 118.744 109.957 118.176C109.957 117.939 109.983 117.703 109.989 117.466C109.995 117.254 109.989 117.042 109.989 116.733C109.694 116.808 109.44 116.831 109.226 116.936C108.304 117.393 107.394 117.875 106.48 118.348C106.423 118.378 106.371 118.417 106.315 118.45C105.977 118.647 105.614 118.731 105.282 118.486C104.982 118.263 104.91 117.913 104.987 117.551C105.135 116.862 105.301 116.174 105.456 115.481C105.511 115.239 105.557 114.994 105.614 114.718C105.073 114.62 104.712 114.874 104.367 115.112C103.531 115.684 102.718 116.283 101.892 116.866C101.703 117.008 101.499 117.131 101.285 117.232C100.861 117.413 100.577 117.202 100.675 116.755C100.768 116.358 100.902 115.971 101.075 115.602C101.376 114.936 101.714 114.288 102.084 113.531C101.874 113.617 101.745 113.653 101.632 113.718C100.655 114.276 99.7533 114.93 99.0118 115.79C98.8594 115.967 98.6642 116.11 98.4778 116.255C98.2914 116.4 98.0594 116.483 97.8951 116.297C97.7919 116.181 97.7432 115.927 97.7968 115.778C98.0633 115.007 98.3731 114.253 98.6602 113.487C98.7536 113.241 98.8244 112.981 98.9356 112.635C98.0658 112.805 97.4654 113.202 96.9122 113.676C96.1255 114.348 95.3629 115.044 94.5772 115.715C94.327 115.918 94.0604 116.1 93.7801 116.259C93.5476 116.399 93.2535 116.471 93.0662 116.252C92.9971 116.163 92.9464 116.061 92.9171 115.952C92.8878 115.843 92.8805 115.73 92.8956 115.618C92.9998 115.093 93.1335 114.564 93.341 114.073C93.6852 113.261 94.0865 112.475 94.4803 111.686C94.5664 111.514 94.7212 111.376 94.8737 111.188C95.0821 111.574 94.9066 111.81 94.796 112.062C94.3726 113.026 93.9429 113.987 93.5436 114.961C93.4369 115.223 93.4291 115.524 93.3755 115.808L93.4984 115.889C93.7305 115.752 93.9842 115.643 94.1907 115.472C95.0059 114.804 95.7867 114.094 96.6192 113.446C97.1601 113.029 97.7594 112.69 98.3441 112.335C98.4954 112.252 98.6635 112.205 98.8358 112.196C99.1799 112.169 99.4032 112.34 99.3638 112.682C99.3211 113.058 99.1873 113.429 99.0536 113.787C98.8569 114.31 98.6229 114.82 98.4144 115.336C98.3686 115.449 98.3568 115.576 98.4213 115.771C98.5722 115.642 98.7404 115.53 98.8716 115.383C99.6584 114.506 100.621 113.858 101.609 113.245C101.855 113.094 102.107 112.842 102.427 113.069C102.649 113.227 102.631 113.567 102.402 114.023C102.102 114.619 101.785 115.207 101.495 115.808C101.361 116.095 101.265 116.399 101.209 116.711C102.143 116.258 102.965 115.683 103.752 115.056C104.244 114.666 104.746 114.297 105.395 114.213C105.876 114.151 106.152 114.36 106.124 114.848C106.105 115.208 105.986 115.563 105.913 115.92C105.799 116.467 105.679 117.012 105.578 117.56C105.552 117.7 105.587 117.851 105.6 118.105C105.861 118.029 106.082 117.997 106.273 117.903C107.198 117.448 108.113 116.973 109.036 116.514C109.207 116.428 109.405 116.397 109.579 116.317C110.21 116.03 110.583 116.395 110.563 117.113C110.556 117.328 110.504 117.54 110.489 117.753C110.476 117.942 110.486 118.132 110.486 118.437C110.748 118.303 110.946 118.203 111.142 118.1C111.447 117.941 111.74 117.756 112.056 117.626C112.458 117.461 112.676 117.587 112.751 118.002C112.777 118.145 112.751 118.297 112.736 118.445C112.71 118.723 112.656 119.001 112.651 119.281C112.644 119.649 112.77 119.739 113.128 119.632C113.374 119.559 113.611 119.451 113.851 119.358C114.031 119.288 114.206 119.202 114.392 119.146C115.08 118.937 115.413 119.231 115.332 119.96C115.312 120.148 115.292 120.337 115.272 120.525C115.638 120.738 115.922 120.571 116.221 120.456C116.62 120.303 117.021 120.138 117.436 120.048C117.878 119.952 118.097 120.122 118.14 120.574C118.168 120.87 118.108 121.171 118.067 121.466C118.005 121.916 118.075 122.07 118.516 122.142C118.782 122.186 119.071 122.154 119.34 122.106C120.166 121.959 120.983 121.771 121.809 121.636C122.919 121.456 123.221 122.211 122.77 123.048C122.545 123.465 122.295 123.871 122.114 124.305C122.015 124.545 121.913 124.905 122.022 125.086C122.207 125.396 122.577 125.218 122.844 125.106C123.358 124.89 123.847 124.614 124.359 124.392C124.771 124.213 125.191 124.038 125.624 123.922C126.272 123.747 126.656 123.974 126.706 124.644C126.747 125.19 126.642 125.752 126.565 126.302C126.512 126.677 126.397 127.043 126.284 127.52C126.661 127.436 126.947 127.383 127.228 127.31C127.56 127.222 127.883 127.093 128.219 127.026C128.615 126.946 128.861 127.129 128.866 127.528C128.871 127.868 128.802 128.211 128.753 128.551C128.682 129.032 128.734 129.131 129.207 129.2C129.502 129.242 129.807 129.236 130.108 129.249C130.669 129.274 130.894 129.463 130.91 130.033C130.924 130.525 130.861 131.02 130.835 131.514C130.82 131.764 130.805 132.014 130.786 132.307C131.194 132.283 131.532 132.242 131.867 132.249C132.299 132.257 132.514 132.404 132.533 132.797C132.556 133.416 132.662 133.984 133.056 134.5Z" fill="black"/>
<path d="M131.948 117.336C132.207 117.314 132.351 117.307 132.494 117.29C133.217 117.204 133.33 117.344 133.087 118.132C132.972 117.98 132.882 117.86 132.781 117.727C132.628 117.751 132.46 117.786 132.289 117.803C131.778 117.856 131.529 117.601 131.59 117.082C131.626 116.769 131.682 116.459 131.743 116.049C131.34 116.098 131.026 116.119 130.718 116.172C130.032 116.29 129.54 116.025 129.229 115.422C129.074 115.116 128.939 114.8 128.824 114.477C128.64 113.971 128.639 113.945 128.086 113.969C127.678 113.985 127.272 114.031 126.87 114.106C125.725 114.327 125.137 113.865 125.109 112.694C125.105 112.5 125.119 112.306 125.109 112.113C125.086 111.711 124.999 111.616 124.59 111.65C124.315 111.672 124.046 111.764 123.776 111.83C123.192 111.974 122.616 112.162 122.025 112.258C121.14 112.402 120.822 112.111 120.807 111.225C120.799 110.774 120.821 110.322 120.817 109.869C120.817 109.771 120.761 109.673 120.703 109.487C119.928 109.739 119.179 109.982 118.433 110.225C118.045 110.352 117.661 110.49 117.271 110.607C117.127 110.649 116.976 110.668 116.826 110.663C115.892 110.638 115.542 110.237 115.671 109.306C115.738 108.814 115.864 108.335 115.963 107.851C116.031 107.515 116.098 107.179 115.963 106.856C115.597 106.709 115.296 106.851 114.998 106.962C114.393 107.186 113.798 107.434 113.191 107.65C112.929 107.747 112.657 107.813 112.38 107.847C111.63 107.933 111.208 107.574 111.236 106.828C111.255 106.295 111.367 105.765 111.436 105.233C111.482 104.876 111.524 104.518 111.566 104.179C111.15 103.899 110.789 104.023 110.46 104.154C109.642 104.481 108.833 104.832 108.03 105.195C106.795 105.754 106.03 105.248 106.113 103.896C106.136 103.512 106.223 103.131 106.274 102.748C106.299 102.563 106.307 102.376 106.323 102.163C105.782 102.17 105.412 102.425 105.033 102.665C104.471 103.022 103.907 103.377 103.327 103.704C103.1 103.826 102.853 103.907 102.598 103.942C102.102 104.014 101.797 103.733 101.861 103.231C101.913 102.83 102.054 102.44 102.164 102.05C102.256 101.723 102.361 101.399 102.493 100.958C102.022 101.105 101.766 101.391 101.461 101.59C101.177 101.775 101.043 102.216 100.492 102.109C100.551 101.912 100.559 101.715 100.658 101.585C101.053 101.069 101.571 100.662 102.165 100.4C102.399 100.296 102.664 100.203 102.893 100.413C103.123 100.622 103.064 100.868 102.978 101.128C102.751 101.817 102.541 102.509 102.293 103.298C102.55 103.267 102.705 103.288 102.818 103.228C103.329 102.957 103.827 102.661 104.333 102.379C104.801 102.119 105.249 101.803 105.746 101.623C106.614 101.308 106.952 101.623 106.842 102.557C106.8 102.92 106.733 103.281 106.676 103.64C106.666 103.703 106.642 103.765 106.634 103.829C106.595 104.135 106.587 104.454 106.831 104.673C107.104 104.919 107.396 104.75 107.673 104.627C108.478 104.269 109.278 103.9 110.092 103.563C110.39 103.439 110.705 103.359 111.026 103.325C111.783 103.247 112.235 103.685 112.148 104.433C112.079 105.029 111.931 105.613 111.827 106.209C111.655 107.187 111.908 107.404 112.846 107.071C113.513 106.835 114.169 106.563 114.84 106.34C115.163 106.23 115.501 106.165 115.842 106.149C116.251 106.135 116.535 106.415 116.555 106.826C116.563 107.148 116.537 107.469 116.479 107.785C116.393 108.314 116.248 108.835 116.184 109.367C116.126 109.865 116.311 110.056 116.807 110.013C117.165 109.98 117.518 109.857 117.864 109.748C118.602 109.515 119.324 109.239 120.067 109.03C120.885 108.798 121.237 109.065 121.301 109.926C121.332 110.354 121.301 110.787 121.331 111.216C121.359 111.63 121.457 111.716 121.864 111.638C122.433 111.531 122.989 111.357 123.557 111.245C123.994 111.158 124.442 111.072 124.884 111.077C125.327 111.081 125.573 111.384 125.603 111.834C125.619 112.069 125.599 112.308 125.603 112.544C125.612 113.398 125.852 113.601 126.713 113.51C127.205 113.461 127.696 113.403 128.188 113.396C128.887 113.386 129.029 113.529 129.246 114.183C129.366 114.526 129.513 114.86 129.685 115.181C129.881 115.567 130.203 115.727 130.649 115.643C130.904 115.6 131.162 115.581 131.42 115.586C131.971 115.586 132.137 115.783 132.078 116.35C132.053 116.655 132.003 116.946 131.948 117.336Z" fill="black"/>
<path d="M131.591 111.588C131.94 111.563 132.255 111.529 132.572 111.52C133.252 111.502 133.513 111.737 133.575 112.413C133.59 112.584 133.58 112.757 133.59 112.929C133.601 113.102 133.622 113.274 133.64 113.44C133.201 113.559 133.063 113.508 133.009 113.121C132.962 112.787 132.999 112.441 132.999 112.117C132.647 111.899 132.335 111.958 132.019 112.03C131.203 112.215 130.839 111.902 130.907 111.057C130.921 110.865 130.983 110.677 131.002 110.485C131.019 110.319 131.006 110.15 131.006 109.895C130.772 109.928 130.57 109.944 130.373 109.984C129.454 110.173 128.967 109.787 128.947 108.843C128.947 108.736 128.947 108.628 128.947 108.52C128.955 107.592 128.559 107.249 127.625 107.368C127.349 107.411 127.069 107.436 126.789 107.441C125.94 107.433 125.486 106.942 125.522 106.09C125.534 105.811 125.587 105.532 125.571 105.254C125.55 104.86 125.351 104.718 124.966 104.805C124.759 104.851 124.566 104.957 124.365 105.03C123.922 105.193 123.49 105.41 123.033 105.501C122.206 105.666 121.829 105.249 122.033 104.443C122.143 104.006 122.31 103.583 122.437 103.15C122.514 102.888 122.564 102.619 122.63 102.336C122.213 102.184 121.892 102.279 121.594 102.464C121.156 102.736 120.734 103.035 120.29 103.297C119.995 103.471 119.69 103.644 119.367 103.745C118.846 103.907 118.506 103.671 118.489 103.133C118.476 102.751 118.528 102.361 118.593 101.982C118.691 101.41 118.842 100.85 118.941 100.276C119.063 99.5699 118.793 99.3047 118.13 99.5522C117.389 99.8286 116.684 100.203 115.967 100.543C115.734 100.653 115.522 100.809 115.286 100.906C114.548 101.209 114.027 100.921 113.962 100.136C113.917 99.5827 113.962 99.0218 113.969 98.463C113.969 98.2692 114.001 98.0729 113.979 97.8825C113.925 97.4226 113.665 97.2376 113.216 97.3517C113.009 97.4091 112.812 97.4986 112.632 97.6169C112.014 98.0075 111.406 98.4148 110.795 98.8172C110.724 98.8664 110.657 98.9205 110.585 98.9648C110.013 99.3303 109.639 99.2004 109.529 98.522C109.452 98.0409 109.501 97.5382 109.51 97.0462C109.516 96.6625 109.547 96.2793 109.568 95.8749C108.883 95.5798 108.287 95.6029 107.721 96.0412C107.433 96.265 107.156 96.513 106.843 96.696C106.151 97.1004 105.626 96.7944 105.674 95.994C105.707 95.4415 105.831 94.8945 105.931 94.2397C105.694 94.2786 105.484 94.2698 105.315 94.3495C104.966 94.5143 104.64 94.7273 104.303 94.9171C103.839 95.1784 103.516 95.0155 103.549 94.4995C103.582 93.9662 103.68 93.4369 103.758 92.8422C104.151 93.0443 104.119 93.341 104.096 93.6293C104.075 93.9047 104.044 94.1792 104.007 94.5595C104.415 94.3627 104.733 94.2019 105.057 94.0538C106.11 93.5732 106.447 93.8049 106.354 94.9467C106.333 95.2034 106.279 95.4583 106.263 95.7156C106.252 95.8941 106.28 96.0752 106.297 96.388C106.681 96.1755 106.985 96.0658 107.216 95.8676C107.852 95.3195 108.585 95.1848 109.385 95.2472C109.825 95.2817 110.035 95.4002 110.106 95.8376C110.178 96.2749 110.146 96.7339 110.152 97.183C110.158 97.6036 110.152 98.0247 110.152 98.5604C110.411 98.4187 110.59 98.3272 110.762 98.2249C111.428 97.8314 112.072 97.3935 112.761 97.0443C113.799 96.5164 114.549 96.9916 114.583 98.1644C114.593 98.5289 114.554 98.8944 114.534 99.2595C114.531 99.3023 114.502 99.3475 114.511 99.3859C114.587 99.7302 114.563 100.193 114.779 100.393C115.036 100.63 115.404 100.301 115.71 100.157C116.429 99.8198 117.133 99.442 117.873 99.167C119.024 98.7405 119.629 99.2299 119.502 100.462C119.445 101.015 119.282 101.557 119.191 102.108C119.132 102.461 119.115 102.822 119.08 103.183C119.457 103.321 119.694 103.147 119.924 103.013C120.389 102.744 120.832 102.436 121.3 102.174C121.563 102.028 121.842 101.915 122.132 101.838C122.821 101.654 123.239 102.024 123.122 102.729C123.048 103.172 122.885 103.599 122.773 104.037C122.701 104.319 122.651 104.606 122.587 104.91C123.136 105.093 123.535 104.838 123.949 104.696C124.273 104.585 124.581 104.411 124.912 104.343C125.685 104.184 126.051 104.463 126.141 105.244C126.176 105.539 126.171 105.844 126.18 106.144C126.196 106.665 126.401 106.892 126.918 106.915C127.174 106.927 127.433 106.881 127.691 106.878C127.924 106.876 128.162 106.869 128.389 106.914C129.288 107.092 129.609 107.543 129.535 108.471C129.52 108.64 129.527 108.81 129.557 108.978C129.639 109.41 129.797 109.523 130.221 109.473C130.327 109.461 130.429 109.416 130.535 109.399C131.321 109.271 131.681 109.606 131.598 110.397C131.573 110.632 131.529 110.866 131.518 111.102C131.52 111.243 131.562 111.386 131.591 111.588Z" fill="black"/>
<path d="M99.9632 107.793C99.2512 107.821 98.7689 108.187 98.2915 108.541C97.9187 108.814 97.5288 109.03 97.0666 109.078C96.6905 109.118 96.5985 109.029 96.5061 108.571C97.047 108.628 97.4954 108.423 97.9178 108.105C98.3982 107.742 98.9012 107.407 99.5094 107.284C100.134 107.158 100.399 107.321 100.532 107.928C100.656 108.491 100.84 108.637 101.411 108.513C101.785 108.431 102.144 108.27 102.504 108.131C103.088 107.902 103.722 107.832 104.342 107.929C105.109 108.047 105.642 108.432 105.826 109.24C105.976 109.903 106.23 110.046 106.943 109.969C107.561 109.902 108.179 109.797 108.8 109.783C109.827 109.761 110.082 110.017 110.244 111.022C110.3 111.403 110.392 111.778 110.518 112.142C110.689 112.61 111.069 112.856 111.565 112.872C111.972 112.886 112.381 112.861 112.789 112.843C113.368 112.818 113.947 112.758 114.526 112.758C115.541 112.758 116.24 113.255 116.425 114.239C116.675 115.562 117.389 116.237 118.742 116.282C119.492 116.308 120.24 116.414 120.988 116.487C122.424 116.626 123.742 117.144 125.02 117.766C125.599 118.047 126.049 118.498 126.294 119.088C126.496 119.575 126.825 119.736 127.301 119.692C127.663 119.661 128.024 119.612 128.382 119.545C129.343 119.359 129.804 119.705 129.882 120.688C129.894 120.83 129.926 120.971 129.955 121.15C130.159 121.101 130.319 121.052 130.482 121.019C131.058 120.91 131.278 121.068 131.354 121.655C131.375 121.818 131.357 121.985 131.357 122.3L131.838 121.719C131.982 122.169 131.838 122.605 131.514 122.785C131.292 122.909 131.081 122.834 131.016 122.573C130.976 122.411 130.995 122.234 130.992 122.063C130.989 121.857 130.992 121.651 130.992 121.33C130.67 121.43 130.454 121.491 130.243 121.565C129.791 121.724 129.608 121.627 129.529 121.158C129.504 121.01 129.515 120.857 129.506 120.707C129.467 120.027 129.231 119.854 128.542 119.978C128.12 120.053 127.698 120.133 127.272 120.171C126.628 120.23 126.163 120.024 125.929 119.338C125.719 118.726 125.24 118.33 124.642 118.055C122.931 117.268 121.135 116.913 119.261 116.874C118.792 116.864 118.324 116.764 117.859 116.685C117.009 116.541 116.498 115.996 116.197 115.225C116.096 114.965 116.028 114.692 115.951 114.423C115.735 113.656 115.311 113.31 114.514 113.31C114.042 113.31 113.571 113.367 113.098 113.384C112.563 113.404 112.026 113.434 111.491 113.412C110.742 113.383 110.242 112.961 109.997 112.276C109.855 111.876 109.796 111.443 109.718 111.022C109.625 110.519 109.521 110.357 109.02 110.347C108.466 110.336 107.91 110.435 107.354 110.471C106.992 110.493 106.625 110.52 106.266 110.487C105.816 110.446 105.528 110.172 105.406 109.73C105.367 109.583 105.318 109.443 105.281 109.297C105.15 108.793 104.789 108.539 104.306 108.489C103.771 108.433 103.236 108.45 102.72 108.668C102.344 108.826 101.956 108.954 101.56 109.051C101.329 109.099 101.092 109.102 100.861 109.058C100.288 108.96 100.147 108.804 100.039 108.228C100.017 108.103 99.9962 107.979 99.9632 107.793Z" fill="black"/>
<path d="M134.294 116.959C133.663 116.549 133.101 116.204 132.565 115.823C132.421 115.721 132.319 115.518 132.263 115.341C132.108 114.87 132.491 114.489 132.977 114.613C133.083 114.648 133.187 114.689 133.288 114.736C133.34 114.617 133.399 114.501 133.463 114.388C133.768 113.913 134.283 113.915 134.509 114.428C134.624 114.687 134.649 115.018 134.616 115.303C134.558 115.812 134.425 116.31 134.294 116.959Z" fill="black"/>
<path d="M142.524 145.335C142.843 145.403 142.903 145.627 142.762 145.865C142.634 146.086 142.459 146.276 142.251 146.424C141.719 146.788 141.173 147.132 140.612 147.449C138.28 148.771 135.793 149.213 133.157 148.683C132.026 148.456 131.024 147.904 130.053 147.306C129.562 147.002 129.089 146.661 128.627 146.309C128.265 146.032 128.266 145.948 128.47 145.482C128.852 145.464 129.146 145.7 129.454 145.88C131.642 147.168 133.992 147.619 136.508 147.3C138.291 147.075 139.964 146.469 141.636 145.862C141.962 145.743 142.244 145.502 142.546 145.317L142.524 145.335Z" fill="black"/>
</g>
<defs>
<clipPath id="clip0">
<rect width="137" height="95" fill="white" transform="translate(68 59)"/>
</clipPath>
</defs>
</svg>
