<svg width="143" height="40" viewBox="0 0 143 40" fill="none" xmlns="http://www.w3.org/2000/svg">
<path d="M37.102 11.5H38.952V27.4H48.752V29H37.102V11.5ZM51.8236 11.5H53.6736V29H51.8236V11.5ZM70.3926 19.975C71.5426 20.225 72.4259 20.725 73.0426 21.475C73.6759 22.2083 73.9926 23.1583 73.9926 24.325C73.9926 25.825 73.4342 26.9833 72.3176 27.8C71.2176 28.6 69.5842 29 67.4176 29H59.3676V11.5H66.9176C68.8676 11.5 70.3759 11.8917 71.4426 12.675C72.5259 13.4583 73.0676 14.5667 73.0676 16C73.0676 16.9667 72.8259 17.7917 72.3426 18.475C71.8759 19.1417 71.2259 19.6417 70.3926 19.975ZM61.2176 13.025V19.375H66.7926C68.2092 19.375 69.3009 19.1083 70.0676 18.575C70.8342 18.025 71.2176 17.2333 71.2176 16.2C71.2176 15.1667 70.8342 14.3833 70.0676 13.85C69.3009 13.3 68.2092 13.025 66.7926 13.025H61.2176ZM67.3926 27.475C68.9592 27.475 70.1426 27.2083 70.9426 26.675C71.7426 26.1417 72.1426 25.3083 72.1426 24.175C72.1426 21.9917 70.5592 20.9 67.3926 20.9H61.2176V27.475H67.3926ZM92.6432 11.5L84.8932 29H83.0682L75.3182 11.5H77.3182L84.0182 26.7L90.7682 11.5H92.6432ZM107.558 27.4V29H95.183V11.5H107.183V13.1H97.033V19.325H106.083V20.9H97.033V27.4H107.558ZM123.857 29L119.857 23.375C119.407 23.425 118.94 23.45 118.457 23.45H113.757V29H111.907V11.5H118.457C120.69 11.5 122.44 12.0333 123.707 13.1C124.973 14.1667 125.607 15.6333 125.607 17.5C125.607 18.8667 125.257 20.025 124.557 20.975C123.873 21.9083 122.89 22.5833 121.607 23L125.882 29H123.857ZM118.407 21.875C120.14 21.875 121.465 21.4917 122.382 20.725C123.298 19.9583 123.757 18.8833 123.757 17.5C123.757 16.0833 123.298 15 122.382 14.25C121.465 13.4833 120.14 13.1 118.407 13.1H113.757V21.875H118.407ZM135.729 22.95V29H133.904V22.95L126.904 11.5H128.879L134.879 21.325L140.879 11.5H142.729L135.729 22.95Z" fill="black"/>
<path d="M18 9.60802C15.8194 8.54634 13.4253 7.99637 11 8.00002C8.49 8.00002 6.114 8.58002 4 9.60802V29.608C6.1806 28.5464 8.57471 27.9964 11 28C14.338 28 17.436 29.02 20 30.77C22.6522 28.9605 25.7894 27.9949 29 28C31.51 28 33.886 28.58 36 29.608V9.60802C33.8194 8.54634 31.4253 7.99637 29 8.00002C26.49 8.00002 24.114 8.58002 22 9.60802V24C22 24.5305 21.7893 25.0392 21.4142 25.4142C21.0391 25.7893 20.5304 26 20 26C19.4696 26 18.9609 25.7893 18.5858 25.4142C18.2107 25.0392 18 24.5305 18 24V9.60802Z" fill="black"/>
</svg>
