<svg width="331" height="538" viewBox="0 0 331 538" fill="none" xmlns="http://www.w3.org/2000/svg">
<path d="M268.358 489.581C254.786 504.112 239.235 516.659 222.162 526.852C221.77 527.092 221.372 527.318 220.973 527.552L193.334 503.089C193.624 502.82 193.946 502.517 194.292 502.184C214.886 482.629 317.123 345.905 323.935 312.61C323.465 315.384 330.082 424.16 268.358 489.581Z" fill="#F0F0F0"/>
<path d="M227.495 531.572C226.972 531.696 226.441 531.813 225.907 531.919L205.172 513.567C205.577 513.426 206.051 513.258 206.592 513.071C215.489 509.921 241.987 500.411 268.356 489.579C296.691 477.936 324.89 464.779 330.954 456.352C329.653 458.31 289.58 517.689 227.495 531.572Z" fill="#F0F0F0"/>
<path d="M267.975 127.713H265.022V46.8191C265.022 40.6707 263.811 34.5825 261.458 28.9022C259.105 23.2218 255.657 18.0606 251.309 13.713C246.962 9.36545 241.8 5.91677 236.12 3.56389C230.44 1.21101 224.352 1.24146e-10 218.203 1.29205e-10H46.8191C40.6707 -1.44453e-05 34.5826 1.21098 28.9022 3.56384C23.2219 5.91671 18.0606 9.36537 13.713 13.7129C9.36546 18.0604 5.91679 23.2217 3.5639 28.9021C1.21102 34.5824 1.1819e-05 40.6705 0 46.8189V490.608C-7.87928e-06 496.756 1.21097 502.844 3.56384 508.525C5.91671 514.205 9.3654 519.366 13.713 523.714C18.0605 528.061 23.2218 531.51 28.9021 533.863C34.5824 536.216 40.6706 537.427 46.819 537.427H218.203C224.351 537.427 230.44 536.216 236.12 533.863C241.8 531.51 246.962 528.061 251.309 523.714C255.657 519.366 259.105 514.205 261.458 508.525C263.811 502.844 265.022 496.756 265.022 490.608V185.294H267.975V127.713Z" fill="#3F3D56"/>
<path d="M255.056 47.1407V490.283C255.056 494.875 254.152 499.422 252.394 503.664C250.636 507.906 248.06 511.76 244.813 515.006C241.566 518.252 237.711 520.827 233.468 522.583C229.225 524.339 224.678 525.242 220.087 525.24H47.8776C43.2869 525.241 38.7411 524.337 34.4998 522.58C30.2585 520.823 26.4048 518.249 23.1586 515.002C19.9125 511.756 17.3376 507.903 15.5809 503.661C13.8243 499.42 12.9203 494.874 12.9207 490.283V47.1407C12.9203 42.55 13.8243 38.0042 15.5809 33.7629C17.3376 29.5216 19.9125 25.6679 23.1586 22.4218C26.4048 19.1757 30.2585 16.6008 34.4998 14.8442C38.7411 13.0876 43.2869 12.1836 47.8776 12.184H68.776C67.7502 14.7063 67.3599 17.4422 67.6394 20.1508C67.9189 22.8594 68.8598 25.4578 70.3792 27.7175C71.8985 29.9772 73.9498 31.829 76.3527 33.11C78.7556 34.3909 81.4364 35.0618 84.1594 35.0636H182.341C185.065 35.0662 187.749 34.3981 190.154 33.1184C192.56 31.8387 194.613 29.9866 196.133 27.7256C197.654 25.4646 198.594 22.8641 198.872 20.1537C199.149 17.4433 198.755 14.7062 197.725 12.184H220.087C224.678 12.1823 229.225 13.0853 233.468 14.8412C237.711 16.5972 241.566 19.1719 244.813 22.4181C248.06 25.6643 250.636 29.5184 252.394 33.7604C254.152 38.0024 255.056 42.5491 255.056 47.1407Z" fill="white"/>
<path d="M201.488 277.421H50.1213C47.4701 277.418 44.9282 276.364 43.0535 274.489C41.1788 272.614 40.1243 270.073 40.1213 267.421V262.444C40.1243 259.793 41.1788 257.251 43.0535 255.376C44.9282 253.501 47.4701 252.447 50.1213 252.444H201.488C204.139 252.447 206.681 253.501 208.556 255.376C210.43 257.251 211.485 259.793 211.488 262.444V267.421C211.485 270.073 210.43 272.614 208.556 274.489C206.681 276.364 204.139 277.418 201.488 277.421Z" fill="#F0F0F0"/>
<path d="M201.488 320.329H50.1213C47.4701 320.326 44.9282 319.271 43.0535 317.396C41.1788 315.522 40.1243 312.98 40.1213 310.329V305.351C40.1243 302.7 41.1788 300.158 43.0535 298.283C44.9282 296.409 47.4701 295.354 50.1213 295.351H201.488C204.139 295.354 206.681 296.409 208.556 298.283C210.43 300.158 211.485 302.7 211.488 305.351V310.329C211.485 312.98 210.43 315.522 208.556 317.396C206.681 319.271 204.139 320.326 201.488 320.329Z" fill="#F0F0F0"/>
<path d="M209.06 267.825H57.6931C54.9093 267.822 52.2404 266.715 50.272 264.746C48.3035 262.778 47.1963 260.109 47.1931 257.325V252.348C47.1963 249.564 48.3035 246.895 50.272 244.927C52.2404 242.958 54.9093 241.851 57.6931 241.848H209.06C211.844 241.851 214.512 242.958 216.481 244.927C218.449 246.895 219.557 249.564 219.56 252.348V257.325C219.557 260.109 218.449 262.778 216.481 264.746C214.512 266.715 211.844 267.822 209.06 267.825ZM57.6931 243.848C55.4395 243.85 53.279 244.747 51.6855 246.34C50.092 247.934 49.1956 250.094 49.1931 252.348V257.325C49.1956 259.579 50.092 261.739 51.6855 263.333C53.279 264.926 55.4395 265.823 57.6931 265.825H209.06C211.313 265.823 213.474 264.926 215.067 263.333C216.661 261.739 217.557 259.579 217.56 257.325V252.348C217.557 250.094 216.661 247.934 215.067 246.34C213.474 244.747 211.313 243.85 209.06 243.848H57.6931Z" fill="#3F3D56"/>
<path d="M209.06 310.732H57.6931C54.9093 310.729 52.2404 309.622 50.272 307.654C48.3035 305.685 47.1963 303.016 47.1931 300.232V295.255C47.1963 292.471 48.3035 289.802 50.272 287.834C52.2404 285.865 54.9093 284.758 57.6931 284.755H209.06C211.844 284.758 214.512 285.865 216.481 287.834C218.449 289.802 219.557 292.471 219.56 295.255V300.232C219.557 303.016 218.449 305.685 216.481 307.654C214.512 309.622 211.844 310.729 209.06 310.732ZM57.6931 286.755C55.4395 286.757 53.279 287.654 51.6855 289.247C50.092 290.841 49.1956 293.001 49.1931 295.255V300.232C49.1956 302.486 50.092 304.647 51.6855 306.24C53.279 307.834 55.4395 308.73 57.6931 308.732H209.06C211.313 308.73 213.474 307.834 215.067 306.24C216.661 304.647 217.557 302.486 217.56 300.232V295.255C217.557 293.001 216.661 290.841 215.067 289.247C213.474 287.654 211.313 286.757 209.06 286.755H57.6931Z" fill="#3F3D56"/>
<path d="M255.056 47.1407V143.53C239.74 147.56 223.704 148.022 208.181 144.882C192.659 141.741 178.063 135.082 165.518 125.416C152.973 115.75 142.812 103.335 135.818 89.1258C128.824 74.9169 125.182 59.2929 125.174 43.4558C125.174 40.6289 125.287 37.8316 125.514 35.0636H182.341C185.065 35.0662 187.749 34.3981 190.154 33.1184C192.559 31.8387 194.613 29.9866 196.133 27.7256C197.653 25.4646 198.594 22.8641 198.871 20.1537C199.149 17.4433 198.755 14.7062 197.725 12.184H220.087C224.678 12.1823 229.225 13.0853 233.468 14.8412C237.711 16.5972 241.566 19.1719 244.813 22.4181C248.06 25.6643 250.636 29.5184 252.394 33.7604C254.151 38.0024 255.056 42.5491 255.056 47.1407Z" fill="#F0F0F0"/>
<path d="M99.9341 519.221C99.9341 521.252 99.8583 523.259 99.6944 525.24H47.8776C43.2869 525.241 38.7411 524.337 34.4998 522.58C30.2585 520.823 26.4048 518.248 23.1586 515.002C19.9125 511.756 17.3376 507.903 15.5809 503.661C13.8243 499.42 12.9203 494.874 12.9207 490.283V442.884C23.7822 441.471 34.82 442.39 45.2986 445.578C55.7772 448.767 65.4558 454.152 73.6894 461.376C81.923 468.599 88.5224 477.494 93.0479 487.469C97.5733 497.443 99.9209 508.268 99.9341 519.221H99.9341Z" fill="#BE856A"/>
<path d="M158.581 372.069H86.7185C84.0673 372.066 81.5254 371.012 79.6507 369.137C77.776 367.262 76.7215 364.721 76.7185 362.069V357.092C76.7215 354.441 77.776 351.899 79.6507 350.024C81.5254 348.149 84.0673 347.095 86.7185 347.092H158.581C161.232 347.095 163.774 348.149 165.648 350.024C167.523 351.899 168.578 354.441 168.581 357.092V362.069C168.578 364.721 167.523 367.262 165.648 369.137C163.774 371.012 161.232 372.066 158.581 372.069Z" fill="#BE856A"/>
<path d="M166.153 362.474H94.2903C91.5065 362.47 88.8376 361.363 86.8691 359.395C84.9007 357.426 83.7935 354.757 83.7903 351.974V346.996C83.7935 344.212 84.9007 341.543 86.8691 339.575C88.8376 337.607 91.5065 336.499 94.2903 336.496H166.153C168.936 336.499 171.605 337.607 173.574 339.575C175.542 341.543 176.649 344.212 176.653 346.996V351.974C176.649 354.757 175.542 357.426 173.574 359.395C171.605 361.363 168.936 362.47 166.153 362.474ZM94.2903 338.496C92.0367 338.499 89.8762 339.395 88.2827 340.988C86.6891 342.582 85.7928 344.743 85.7903 346.996V351.974C85.7928 354.227 86.6891 356.388 88.2827 357.981C89.8762 359.575 92.0367 360.471 94.2903 360.474H166.153C168.406 360.471 170.567 359.575 172.16 357.981C173.754 356.388 174.65 354.227 174.653 351.974V346.996C174.65 344.743 173.754 342.582 172.16 340.988C170.567 339.395 168.406 338.499 166.153 338.496H94.2903Z" fill="#3F3D56"/>
<g clip-path="url(#clip0)">
<path d="M126.959 156.443C128.061 155.955 128.877 156.377 129.593 157.154C129.759 156.76 129.878 156.381 130.071 156.043C130.388 155.486 130.866 155.124 131.538 155.166C132.244 155.21 132.755 155.594 133.031 156.237C133.361 157.008 133.473 157.811 133.22 158.634C132.897 159.684 132.571 160.731 132.244 161.777C132.206 161.9 132.17 162.023 132.127 162.146C131.919 162.731 131.846 163.29 132.237 163.854C132.413 164.108 132.469 164.447 132.609 164.829C133.462 162.993 134.644 161.462 135.727 159.827C135.628 159.87 135.531 159.918 135.436 159.971C135.347 160.026 135.268 160.098 135.129 160.205C135.038 159.855 134.954 159.551 134.88 159.245C134.595 158.075 134.313 156.904 134.034 155.733C133.89 155.126 133.962 154.537 134.199 153.962C134.445 153.372 134.872 153.008 135.519 152.988C136.155 152.968 136.556 153.349 136.811 153.893C136.918 154.121 136.984 154.369 137.086 154.656C137.55 154.262 138.023 153.936 138.642 154.01C139.282 154.086 139.599 154.531 139.811 155.102C139.883 155.07 139.95 155.062 139.983 155.023C141.189 153.602 142.665 152.471 144.085 151.291C146.119 149.595 148.333 148.128 150.687 146.917C151.909 146.291 153.189 145.764 154.479 145.291C156.396 144.589 158.349 143.982 160.357 143.599C161.661 143.35 162.963 143.015 164.315 143.161C164.387 143.169 164.468 143.092 164.623 143.017C165.598 144.439 166.607 145.858 167.56 147.315C168.432 148.647 169.197 150.051 170.092 151.366C171.702 153.733 173.358 156.069 175.022 158.397C177.242 161.501 179.743 164.378 182.222 167.275C182.977 168.158 183.746 169.03 184.5 169.914C184.643 170.082 184.746 170.285 184.893 170.516L181.526 171.106C181.596 171.257 181.633 171.372 181.699 171.467C183.513 174.111 185.371 176.726 187.136 179.402C189.068 182.329 190.912 185.315 192.802 188.271C193.03 188.635 193.286 188.98 193.569 189.304C193.768 189.527 193.824 189.73 193.716 190.002C193.413 190.777 193.38 191.598 193.349 192.412C193.344 192.642 193.405 192.868 193.525 193.065C194.685 194.902 195.873 196.722 197.033 198.559C197.71 199.633 198.332 200.742 199.013 201.813C199.485 202.555 200.042 203.244 200.511 203.988C201.016 204.789 201.473 205.62 201.928 206.448C202.093 206.749 201.97 206.962 201.625 206.977C201.088 207 200.548 206.996 200.012 206.965C198.079 206.852 196.147 206.725 194.214 206.602C192.754 206.509 191.294 206.405 189.834 206.323C188.265 206.234 186.694 206.176 185.125 206.083C182.763 205.938 180.402 205.781 178.041 205.612C176.132 205.477 174.224 205.324 172.316 205.177C170.513 205.039 168.71 204.9 166.907 204.76C164.269 204.554 161.631 204.348 158.994 204.14C157.428 204.016 155.862 203.906 154.299 203.751C151.452 203.469 148.606 203.165 145.762 202.858C144.286 202.699 142.811 202.518 141.342 202.334C141.05 202.298 140.865 202.411 140.66 202.598C139.275 203.86 137.726 204.848 135.899 205.348C134.787 205.652 133.651 205.715 132.51 205.631C130.896 205.514 129.314 205.244 127.814 204.582C126.572 204.033 125.367 203.415 124.27 202.611C124.155 202.519 124.022 202.452 123.88 202.412C123.739 202.372 123.59 202.361 123.444 202.379C121.772 202.526 120.1 202.68 118.429 202.791C117.033 202.884 115.634 202.916 114.237 202.982C112.756 203.051 111.274 203.123 109.793 203.199C107.925 203.295 106.056 203.385 104.188 203.494C102.727 203.58 101.267 203.684 99.8076 203.79C98.3266 203.897 96.8446 204.001 95.3661 204.137C93.8463 204.277 92.3299 204.456 90.8115 204.615C89.3994 204.763 87.9872 204.908 86.5751 205.05C85.5917 205.149 84.6083 205.257 83.6205 205.346C80.835 205.595 78.0485 205.83 75.2616 206.084C73.1198 206.28 70.9809 206.503 68.8386 206.695C67.7244 206.793 66.6068 206.855 65.4906 206.925C65.3672 206.933 65.2408 206.888 65.1164 206.868C64.9163 206.366 65.0028 205.879 65.1071 205.4C65.4326 203.897 66.0221 202.49 66.7002 201.12C68.0391 198.409 69.7979 195.958 71.4633 193.45C71.6412 193.183 71.7583 192.932 71.6884 192.616C71.4298 191.467 71.2356 190.296 70.5153 189.222C72.101 187.414 73.729 185.614 75.2926 183.758C76.6359 182.164 77.9586 180.546 79.1942 178.867C81.083 176.308 82.9239 173.712 84.7169 171.081C86.8229 167.982 88.6687 164.726 90.4786 161.449C91.9537 158.777 93.4288 156.1 94.842 153.394C95.727 151.7 96.5088 149.951 97.3368 148.225C98.0908 146.654 98.8447 145.084 99.5986 143.513C99.6267 143.456 99.6586 143.4 99.6916 143.344C100.134 142.598 100.223 142.557 101.096 142.682C104.781 143.208 108.312 144.235 111.693 145.814C113.766 146.783 115.72 147.945 117.673 149.123C120.635 150.911 123.328 153.039 125.868 155.378C126.242 155.724 126.599 156.091 126.959 156.443ZM139.547 198.318C138.018 198.549 136.489 198.774 134.962 199.017C134.679 199.063 134.418 199.142 134.218 199.434C134.081 199.633 133.758 199.771 133.5 199.806C132.992 199.876 132.464 199.917 131.959 199.856C131.438 199.791 130.886 199.706 130.533 199.204C130.459 199.099 130.281 199.042 130.139 199.011C128.206 198.601 126.286 198.091 124.333 197.819C121.352 197.402 118.354 197.031 115.351 196.857C111.119 196.616 106.876 196.547 102.636 196.461C100.246 196.408 97.855 196.506 95.4772 196.753C93.5301 196.958 91.5786 197.147 89.6432 197.434C87.4114 197.769 85.1772 198.13 82.9763 198.624C80.7145 199.133 78.4798 199.785 76.2509 200.435C75.2439 200.73 74.2772 201.161 73.2978 201.544C72.5833 201.825 71.8778 202.128 71.179 202.417C70.9145 202.198 71.0089 201.968 71.0891 201.747C71.8822 199.564 72.0341 197.299 71.9559 195.004C71.9446 194.672 71.9068 194.34 71.8797 194.009L71.7411 193.972C69.5628 197.271 67.2125 200.474 65.8751 204.336C66.1121 204.351 66.2995 204.385 66.4819 204.372C67.1889 204.311 67.894 204.231 68.6006 204.164C70.055 204.024 71.5095 203.883 72.9644 203.751C74.4419 203.617 75.9215 203.505 77.3985 203.364C78.7261 203.241 80.0502 203.082 81.3783 202.965C82.728 202.847 84.0827 202.768 85.4319 202.656C88.09 202.439 90.7456 202.19 93.4052 201.993C96.7079 201.747 100.014 201.55 103.318 201.319C105.011 201.201 106.703 201.062 108.394 200.921C110.428 200.75 112.458 200.537 114.495 200.4C116.015 200.297 117.543 200.252 119.067 200.243C120.576 200.233 122.076 200.184 123.568 199.926C123.856 199.876 124.213 199.971 124.48 200.111C125.049 200.41 125.576 200.785 126.126 201.122C127.982 202.261 130.015 202.812 132.174 202.965C133.422 203.054 134.618 202.772 135.797 202.446C136.996 202.114 138.196 201.751 139.224 200.996C140.463 200.087 141.874 199.792 143.376 199.89C145.351 200.019 147.323 200.185 149.297 200.32C150.113 200.376 150.933 200.369 151.748 200.435C153.076 200.541 154.403 200.709 155.731 200.802C157.683 200.938 159.639 201.032 161.593 201.142C163.461 201.247 165.33 201.343 167.198 201.455C168.894 201.557 170.591 201.685 172.285 201.783C173.979 201.881 175.677 201.952 177.376 202.046C179.16 202.145 180.943 202.248 182.725 202.367C184.313 202.474 185.898 202.61 187.486 202.722C190.19 202.913 192.894 203.083 195.596 203.29C196.451 203.356 197.299 203.522 198.152 203.628C198.587 203.682 199.025 203.704 199.529 203.746L193.519 193.945C193.407 195.371 193.519 196.744 193.76 198.099C193.903 198.9 194.166 199.679 194.356 200.473C194.568 201.356 194.31 201.635 193.471 201.393C191.817 200.916 190.143 200.536 188.456 200.187C186.095 199.699 183.722 199.302 181.326 199.056C179.742 198.896 178.157 198.74 176.568 198.646C174.034 198.496 171.498 198.394 168.961 198.281C167.026 198.195 165.09 198.143 163.155 198.042C161.35 197.949 159.549 197.779 157.747 197.698C154.757 197.567 151.765 197.463 148.773 197.624C146.238 197.76 143.703 197.912 141.17 198.082C140.62 198.119 140.076 198.248 139.529 198.335L139.547 198.318ZM133.734 163.735L133.596 164.038C133.379 164.431 133.15 164.817 132.95 165.219C132.891 165.354 132.869 165.502 132.886 165.648C133.099 167.942 133.071 170.241 133.052 172.54C133.037 174.236 132.996 175.934 132.966 177.628C132.929 179.687 132.887 181.747 132.857 183.806C132.841 184.855 132.828 185.905 132.848 186.954C132.865 187.921 132.955 188.888 132.963 189.857C132.979 191.772 132.96 193.688 132.958 195.604C132.958 195.739 132.969 195.875 132.98 196.12C133.211 195.848 133.371 195.677 133.509 195.492C134.864 193.672 136.414 192.03 138.112 190.533C139.354 189.436 140.645 188.397 141.893 187.308C143.406 185.989 145.015 184.788 146.732 183.769C148.987 182.432 151.305 181.2 153.633 179.99C156.189 178.658 158.827 177.489 161.531 176.49C163.911 175.614 166.295 174.736 168.71 173.971C171.023 173.238 173.372 172.606 175.725 172.008C178.331 171.346 180.956 170.768 183.62 170.38C183.739 170.363 183.853 170.312 184.013 170.262C183.924 170.138 183.869 170.049 183.801 169.97C182.988 169.024 182.179 168.071 181.356 167.134C178.225 163.574 175.337 159.825 172.565 155.981C170.523 153.149 168.719 150.166 166.878 147.205C166.13 146.001 165.348 144.817 164.568 143.602C163.663 143.715 162.783 143.782 161.92 143.94C159.783 144.331 157.675 144.836 155.616 145.546C153.661 146.22 151.748 146.981 149.966 148.044C149.154 148.529 148.324 148.99 147.55 149.53C146.246 150.44 144.967 151.386 143.704 152.352C143.038 152.863 142.403 153.414 141.804 154.003C141.039 154.756 140.257 155.509 139.614 156.362C139.167 156.952 138.72 157.509 138.126 157.949C137.903 158.114 137.654 158.274 137.496 158.494C136.233 160.23 134.986 161.984 133.734 163.733V163.735ZM86.1429 170.21C86.2132 170.243 86.2491 170.273 86.2859 170.274C87.9897 170.308 89.6752 170.537 91.3455 170.836C94.9841 171.488 98.6103 172.205 102.14 173.355C105.922 174.593 109.577 176.192 113.052 178.131C115.371 179.418 117.576 180.868 119.716 182.435C121.421 183.684 123.078 184.986 124.595 186.455C126.853 188.643 129.033 190.906 130.815 193.518C131.073 193.895 131.372 194.243 131.73 194.707C131.764 194.381 131.796 194.215 131.797 194.046C131.797 193.1 131.805 192.154 131.789 191.209C131.755 189.15 131.691 187.091 131.672 185.032C131.661 183.703 131.702 182.375 131.74 181.044C131.789 179.325 131.863 177.607 131.918 175.889C131.934 175.39 131.918 174.889 131.918 174.39L131.806 174.373L130.899 176.51C130.192 175.766 129.512 175.086 128.88 174.362C128.711 174.17 128.652 173.852 128.614 173.582C128.565 173.211 128.727 172.91 129.064 172.723C129.369 172.555 129.641 172.622 129.9 172.837C130.013 172.931 130.137 173.009 130.17 173.033C130.478 172.771 130.714 172.487 131.016 172.334C131.438 172.119 131.693 172.527 132.049 172.858C132.049 172.451 132.045 172.175 132.049 171.9C132.062 171.043 132.082 170.186 132.091 169.329C132.107 167.995 132.152 166.661 132.106 165.33C132.091 164.907 131.924 164.409 131.655 164.091C131.187 163.539 130.592 163.093 130.04 162.616C129.211 161.896 128.354 161.208 127.543 160.467C126.465 159.484 125.907 158.32 126.533 156.815C125.886 156.21 125.268 155.58 124.595 155.014C123.211 153.851 121.86 152.636 120.382 151.604C118.513 150.301 116.53 149.166 114.604 147.947C112.794 146.8 110.818 145.995 108.851 145.192C106.753 144.336 104.537 143.869 102.332 143.378C101.709 143.239 101.081 143.124 100.418 142.991C96.4124 152.501 91.4694 161.456 86.1429 170.21ZM135.534 193.73C135.632 193.744 135.681 193.768 135.705 193.752C135.871 193.653 136.03 193.544 136.181 193.424C137.625 192.194 139.202 191.155 140.807 190.146C142.34 189.183 143.944 188.362 145.576 187.597C148.337 186.296 151.232 185.3 154.21 184.629C155.952 184.239 157.695 183.852 159.476 183.687C161.059 183.539 162.643 183.379 164.23 183.293C165.818 183.207 167.411 183.167 169 183.19C170.653 183.213 172.307 183.322 173.958 183.422C176.642 183.58 179.315 183.878 181.968 184.315C183.959 184.646 185.932 185.084 187.914 185.47C188.047 185.497 188.185 185.489 188.39 185.501C188.229 185.188 188.108 184.939 187.976 184.695C187.698 184.186 187.42 183.676 187.131 183.17C186.545 182.145 185.976 181.109 185.356 180.104C184.769 179.153 184.111 178.246 183.511 177.3C182.319 175.427 180.977 173.667 179.547 171.971C179.324 171.707 179.105 171.618 178.766 171.697C175.185 172.533 171.616 173.419 168.135 174.619C166.286 175.258 164.439 175.908 162.614 176.61C160.748 177.328 158.888 178.067 157.064 178.883C154.197 180.169 151.4 181.604 148.683 183.183C147.196 184.045 145.728 184.961 144.356 185.991C142.654 187.267 141.041 188.664 139.426 190.05C138.316 191.002 137.262 192.021 136.192 193.017C135.963 193.228 135.765 193.475 135.532 193.73H135.534ZM80.8325 177.888C81.0027 177.888 81.1069 177.906 81.2023 177.888C83.0417 177.482 84.92 177.473 86.784 177.426C88.7602 177.377 90.7432 177.433 92.7173 177.549C95.4885 177.712 98.2322 178.124 100.952 178.691C103.079 179.133 105.193 179.63 107.226 180.408C108.933 181.061 110.625 181.751 112.317 182.44C114.788 183.446 117.24 184.494 119.566 185.808C122.402 187.409 125.112 189.195 127.577 191.333C128.349 192.003 129.107 192.688 129.871 193.367C129.544 192.745 129.147 192.162 128.688 191.63C127.825 190.641 126.96 189.649 126.028 188.728C124.73 187.441 123.402 186.181 122.026 184.979C121.121 184.189 120.108 183.521 119.147 182.796C116.875 181.089 114.48 179.554 111.98 178.205C108.681 176.414 105.246 174.939 101.654 173.856C99.7422 173.279 97.8015 172.793 95.8593 172.331C93.2867 171.716 90.6915 171.202 88.0679 170.852C87.3259 170.754 86.578 170.695 85.897 170.624L80.8325 177.888ZM71.6083 188.774C71.8782 188.758 72.0081 188.762 72.1329 188.739C72.8729 188.609 73.611 188.465 74.3515 188.339C75.4332 188.155 76.5149 187.979 77.5967 187.805C79.0811 187.567 80.5587 187.249 82.0524 187.116C84.4288 186.905 86.816 186.817 89.1988 186.677C89.5208 186.659 89.8434 186.634 90.1659 186.631C91.2826 186.619 92.4007 186.582 93.5163 186.617C94.8479 186.657 96.1786 186.731 97.5084 186.84C99.4359 187 101.373 187.12 103.282 187.413C106.703 187.938 110.112 188.545 113.514 189.184C116.091 189.669 118.637 190.316 121.106 191.212C123.348 192.025 125.565 192.905 127.794 193.754C127.977 193.824 128.164 193.886 128.349 193.951C128.292 193.796 128.18 193.668 128.034 193.591C127.059 193.043 126.083 192.499 125.105 191.956C121.801 190.104 118.378 188.474 114.858 187.076C111.957 185.93 109.032 184.857 105.987 184.142C103.011 183.444 100.015 182.863 96.97 182.549C93.3688 182.178 89.7519 182.152 86.1389 182.046C84.4386 182.002 82.7377 182.101 81.0538 182.341C79.8 182.514 78.5599 182.795 77.3213 183.062C76.928 183.146 76.5405 183.276 76.2455 183.603C74.8127 185.18 73.3701 186.748 71.9338 188.321C71.8384 188.427 71.7652 188.554 71.6068 188.774H71.6083ZM179.747 171.524C183.464 175.952 186.538 180.762 189.04 185.906C188.794 186.213 188.535 186.192 188.276 186.152C187.384 186.007 186.49 185.873 185.602 185.704C184.483 185.491 183.377 185.185 182.25 185.031C180.014 184.727 177.772 184.448 175.524 184.255C172.437 183.99 169.345 183.866 166.241 183.949C162.921 184.038 159.623 184.288 156.364 184.917C154.594 185.258 152.824 185.654 151.1 186.186C149.421 186.704 147.779 187.367 146.168 188.074C144.751 188.697 143.371 189.402 142.035 190.183C140.104 191.31 138.219 192.52 136.488 193.951C136.356 194.06 136.206 194.148 136.066 194.246C134.902 195.071 133.931 196.109 132.911 197.093C132.902 197.102 132.911 197.129 132.911 197.211C133.017 197.141 133.098 197.091 133.176 197.036C134.089 196.388 134.963 195.679 135.922 195.107C137.323 194.271 138.768 193.507 140.225 192.771C141.104 192.329 142.032 191.971 142.954 191.618C144.056 191.196 145.166 190.786 146.291 190.432C147.91 189.922 149.539 189.444 151.179 188.997C152.526 188.63 153.88 188.268 155.252 188.013C157.661 187.57 160.089 187.213 162.54 187.053C164.922 186.897 167.303 186.719 169.686 186.584C171.189 186.5 172.696 186.472 174.201 186.428C176.439 186.364 178.676 186.319 180.907 186.576C181.932 186.694 182.953 186.854 183.98 186.949C186.759 187.207 189.448 187.848 192.074 188.779C192.201 188.824 192.332 188.856 192.516 188.911C191.019 186.563 189.581 184.267 188.104 181.996C185.956 178.694 183.792 175.403 181.61 172.123C180.934 171.114 181.241 171.131 179.747 171.524ZM131.806 198.795L131.855 198.658C131.639 198.529 131.431 198.383 131.204 198.275C130.898 198.121 130.579 197.991 130.253 197.884C128.813 197.449 127.365 197.042 125.926 196.605C122.754 195.642 119.522 194.918 116.286 194.22C114.037 193.735 111.77 193.334 109.471 193.143C107.542 192.983 105.616 192.761 103.684 192.683C100.416 192.551 97.1441 192.547 93.8753 192.711C92.3956 192.787 90.9163 192.891 89.4372 193.022C88.2572 193.124 87.084 193.265 85.9118 193.418C84.5493 193.596 83.1848 193.772 81.8307 194.011C80.2019 194.299 78.5793 194.624 76.9629 194.986C75.5601 195.301 74.174 195.692 72.7835 196.055C72.6851 196.082 72.5961 196.15 72.541 196.179C72.4132 197.497 72.2898 198.773 72.1659 200.048C72.2058 200.054 72.2465 200.054 72.2864 200.048C74.5777 199.242 76.8803 198.478 79.2375 197.878C81.635 197.268 84.0364 196.687 86.4929 196.379C88.8172 196.088 91.1424 195.789 93.475 195.592C95.3381 195.431 97.2119 195.346 99.0833 195.341C102.505 195.333 105.927 195.382 109.347 195.464C111.109 195.505 112.875 195.602 114.626 195.794C117.169 196.073 119.703 196.446 122.236 196.806C123.683 197.012 125.132 197.225 126.563 197.519C127.995 197.813 129.4 198.208 130.818 198.561C131.147 198.637 131.477 198.716 131.807 198.797L131.806 198.795ZM77.2771 182.388L77.3415 182.494C77.6709 182.432 78.0043 182.387 78.3283 182.305C80.4023 181.784 82.5141 181.48 84.6452 181.495C87.8948 181.517 91.1439 181.623 94.3916 181.747C96.9725 181.845 99.5278 182.204 102.065 182.691C104.475 183.154 106.879 183.64 109.211 184.398C112.769 185.555 116.253 186.907 119.635 188.526C122.917 190.096 126.143 191.765 129.223 193.709C129.354 193.792 129.501 193.847 129.754 193.971C129.629 193.808 129.596 193.75 129.55 193.707C126.993 191.316 124.201 189.234 121.223 187.401C116.949 184.769 112.284 182.98 107.632 181.177C104.818 180.086 101.874 179.433 98.9019 178.925C96.5462 178.522 94.1787 178.23 91.7875 178.123C88.0615 177.957 84.3452 177.952 80.6477 178.536C80.5111 178.552 80.3795 178.598 80.262 178.669C80.1444 178.741 80.0435 178.837 79.9662 178.95C79.5679 179.486 79.1426 180.001 78.7315 180.525C78.2434 181.145 77.7584 181.767 77.2766 182.39L77.2771 182.388ZM193.284 189.803C192.802 189.586 192.329 189.325 191.826 189.153C190.136 188.575 188.429 188.062 186.649 187.824C185.157 187.628 183.669 187.389 182.175 187.21C180.208 186.975 178.234 186.858 176.249 186.933C173.948 187.019 171.644 187.027 169.345 187.138C167.088 187.246 164.836 187.425 162.584 187.603C159.426 187.851 156.29 188.265 153.213 189.029C150.042 189.816 146.876 190.631 143.809 191.773C141.957 192.462 140.133 193.218 138.38 194.155C137.063 194.859 135.843 195.693 134.612 196.521C134.061 196.892 133.531 197.297 133.004 197.702C132.923 197.764 132.909 197.911 132.863 198.019C133.014 198.023 133.162 197.975 133.281 197.882C134.035 197.384 134.756 196.832 135.548 196.401C136.716 195.761 137.929 195.208 139.124 194.62C140.612 193.888 142.144 193.247 143.741 192.817C146.127 192.173 148.528 191.574 150.944 191.05C152.916 190.621 154.914 190.302 156.908 189.983C159.947 189.496 162.999 189.088 166.072 188.926C168.67 188.789 171.276 188.757 173.879 188.745C176.851 188.732 179.814 188.96 182.764 189.311C184.172 189.478 185.594 189.622 186.973 189.938C188.959 190.394 190.969 190.79 192.885 191.632C193.013 191.041 193.136 190.478 193.284 189.803ZM72.132 191.983C73.4964 191.679 74.8496 191.331 76.2209 191.082C78.0594 190.747 79.9086 190.461 81.7594 190.204C83.354 189.983 84.9554 189.794 86.5598 189.663C88.0575 189.544 89.5631 189.502 91.0662 189.466C92.8501 189.423 94.6354 189.377 96.4188 189.413C99.4069 189.473 102.399 189.522 105.38 189.717C107.758 189.872 110.125 190.209 112.49 190.52C113.916 190.708 115.342 190.958 116.749 191.255C118.64 191.654 120.515 192.125 122.397 192.568C122.692 192.637 122.98 192.716 123.271 192.792C123.227 192.644 123.153 192.604 123.074 192.578C121.365 192 119.677 191.348 117.942 190.865C115.208 190.104 112.421 189.556 109.623 189.074C106.378 188.516 103.133 188 99.8533 187.683C97.1529 187.421 94.4516 187.214 91.7403 187.22C90.2126 187.224 88.6849 187.272 87.1587 187.339C85.8056 187.398 84.4514 187.479 83.1032 187.607C81.5204 187.758 79.9372 187.929 78.3662 188.168C76.603 188.435 74.853 188.79 73.0967 189.102C72.9069 189.136 72.7112 189.136 72.5194 189.159C72.0612 189.212 71.6034 189.269 71.1471 189.325C71.4903 190.258 71.8114 191.118 72.132 191.983ZM192.887 192.065C192.567 191.989 192.277 191.93 191.992 191.85C191.165 191.619 190.343 191.371 189.516 191.142C186.984 190.448 184.39 190.001 181.772 189.808C179.477 189.633 177.178 189.513 174.878 189.402C171.822 189.257 168.768 189.397 165.717 189.595C162.902 189.778 160.107 190.136 157.323 190.579C155.413 190.883 153.5 191.191 151.604 191.57C149.623 191.966 147.653 192.42 145.692 192.906C144.378 193.232 143.071 193.601 141.796 194.051C139.685 194.796 137.673 195.776 135.687 196.806C135.483 196.912 135.294 197.044 135.094 197.163C135.252 197.189 135.414 197.161 135.555 197.084C138.105 195.894 140.749 194.916 143.46 194.162C144.886 193.763 146.319 193.371 147.76 193.026C150.757 192.307 153.808 191.943 156.876 191.697C160.569 191.406 164.262 191.251 167.967 191.436C170.611 191.568 173.261 191.583 175.904 191.726C177.706 191.825 179.505 192.015 181.298 192.225C182.835 192.406 184.365 192.651 185.89 192.909C187.562 193.191 189.231 193.511 190.897 193.836C191.56 193.965 192.212 194.152 192.887 194.317V192.065ZM136.571 197.209L136.638 197.307C137.17 197.144 137.697 196.963 138.233 196.821C140.767 196.145 143.302 195.464 145.9 195.071C148.47 194.681 151.039 194.263 153.619 193.97C155.99 193.701 158.374 193.527 160.757 193.413C163.163 193.297 165.573 193.251 167.985 193.275C169.876 193.291 171.769 193.408 173.655 193.563C175.818 193.74 177.979 193.975 180.133 194.248C182.371 194.531 184.599 194.901 186.835 195.214C188.69 195.473 190.523 195.825 192.328 196.329C192.542 196.389 192.765 196.418 193.05 196.477C193 195.81 192.962 195.236 192.923 194.692C192.677 194.67 192.469 194.669 192.269 194.629C190.351 194.248 188.437 193.825 186.511 193.481C183.123 192.868 179.7 192.467 176.262 192.28C173.297 192.124 170.326 192.073 167.357 192.007C164.043 191.933 160.729 191.946 157.425 192.258C155.114 192.476 152.799 192.688 150.511 193.105C147.568 193.642 144.648 194.285 141.808 195.243C140.18 195.792 138.575 196.413 136.962 197.006C136.825 197.056 136.701 197.139 136.571 197.209ZM131.883 198.266C131.976 197.704 131.982 197.641 131.503 197.433C130.104 196.824 128.714 196.182 127.275 195.68C125.573 195.084 123.828 194.606 122.094 194.105C119.817 193.446 117.487 193.023 115.15 192.649C113.218 192.339 111.277 192.075 109.334 191.837C107.412 191.602 105.487 191.354 103.556 191.241C101.13 191.1 98.6964 191.056 96.2649 191.036C94.6305 191.023 92.9937 191.101 91.3598 191.18C89.9211 191.25 88.4843 191.371 87.0471 191.48C85.8464 191.571 84.6422 191.64 83.4484 191.788C81.9551 191.973 80.4682 192.215 78.9823 192.458C76.9891 192.785 75.0231 193.26 73.1006 193.88C72.8798 193.951 72.6704 194.057 72.4157 194.163C72.4442 194.662 72.4712 195.138 72.5002 195.656C73.0042 195.536 73.4222 195.444 73.8362 195.337C75.4165 194.927 76.983 194.456 78.5791 194.116C80.2587 193.758 81.9625 193.511 83.6598 193.238C84.5498 193.094 85.4471 192.992 86.343 192.883C87.7296 192.716 89.1132 192.485 90.5052 192.414C93.2548 192.273 96.0088 192.163 98.7618 192.152C101.319 192.142 103.883 192.205 106.435 192.374C108.538 192.519 110.632 192.771 112.709 193.127C115.251 193.557 117.774 194.111 120.295 194.659C121.763 194.979 123.213 195.388 124.668 195.769C125.416 195.966 126.162 196.173 126.9 196.403C128.579 196.924 130.288 197.367 131.883 198.266ZM141.265 196.505L141.269 196.662C141.839 196.571 142.405 196.454 142.978 196.395C145.352 196.152 147.723 195.854 150.103 195.714C152.723 195.561 155.35 195.514 157.974 195.504C160.771 195.493 163.567 195.582 166.364 195.621C168.814 195.655 171.265 195.647 173.715 195.719C176.401 195.797 179.088 195.911 181.754 196.279C183.331 196.496 184.918 196.672 186.475 196.998C188.45 197.41 190.397 197.954 192.358 198.438C192.658 198.512 192.962 198.567 193.319 198.642C193.238 198.067 193.171 197.581 193.101 197.082C192.486 196.904 191.898 196.684 191.291 196.568C189.306 196.186 187.319 195.812 185.324 195.493C183.902 195.266 182.465 195.133 181.034 194.957C179.007 194.708 176.984 194.388 174.95 194.226C172.462 194.027 169.969 193.902 167.471 193.849C163.767 193.772 160.069 194.012 156.379 194.314C152.819 194.607 149.271 195.015 145.751 195.63C144.25 195.89 142.759 196.211 141.265 196.505ZM193.994 200.864C193.827 200.411 193.66 200.1 193.605 199.77C193.531 199.322 193.26 199.186 192.873 199.098C191.03 198.677 189.195 198.22 187.348 197.819C186.047 197.535 184.739 197.254 183.42 197.087C181.543 196.848 179.658 196.653 177.77 196.551C175.128 196.409 172.482 196.336 169.837 196.294C165.231 196.218 160.625 196.152 156.02 196.155C153.611 196.155 151.201 196.272 148.797 196.413C146.974 196.52 145.155 196.731 143.339 196.931C142.556 197.017 141.782 197.19 141.003 197.324C141.046 197.359 141.095 197.385 141.148 197.4C141.201 197.414 141.256 197.418 141.31 197.41C142.274 197.328 143.236 197.219 144.202 197.164C146.133 197.053 148.066 196.899 149.999 196.89C152.708 196.878 155.419 196.972 158.128 197.038C159.224 197.065 160.319 197.146 161.415 197.199C163.755 197.312 166.094 197.43 168.435 197.532C169.337 197.572 170.243 197.55 171.144 197.597C173.054 197.696 174.965 197.804 176.872 197.948C178.63 198.08 180.39 198.212 182.133 198.44C184.091 198.699 186.04 199.038 187.985 199.401C189.42 199.67 190.836 200.025 192.262 200.36C192.797 200.489 193.323 200.668 193.994 200.864ZM131.817 196.338C130.761 195.94 129.751 195.515 128.71 195.175C126.525 194.463 124.334 193.769 122.128 193.119C120.893 192.755 119.638 192.436 118.374 192.196C115.755 191.698 113.133 191.203 110.494 190.828C108.346 190.523 106.177 190.344 104.011 190.2C100.144 189.943 96.2718 189.873 92.3953 189.922C91.4055 189.935 90.4157 189.964 89.4279 190.021C88.1003 190.101 86.7727 190.242 85.4422 190.312C83.3741 190.422 81.3375 190.758 79.2989 191.088C78.1312 191.277 76.9619 191.457 75.7971 191.661C75.0143 191.798 74.2364 191.965 73.4581 192.128C73.0445 192.214 72.6345 192.317 72.1679 192.423L72.3449 193.634C73.5456 193.289 74.674 192.949 75.8148 192.653C76.749 192.41 77.6911 192.187 78.641 192.022C79.9519 191.792 81.2706 191.603 82.5908 191.438C84.0202 191.258 85.453 191.099 86.8883 190.978C88.3879 190.851 89.8916 190.748 91.3952 190.694C93.5665 190.615 95.7393 190.546 97.9111 190.552C100.536 190.56 103.16 190.664 105.772 190.956C107.461 191.143 109.156 191.283 110.837 191.518C112.924 191.809 115.004 192.145 117.078 192.523C118.62 192.805 120.155 193.139 121.673 193.531C123.357 193.965 125.032 194.449 126.688 194.988C128.344 195.527 129.964 196.169 131.497 197.011C131.616 197.076 131.743 197.126 131.946 197.219C131.893 196.866 131.854 196.596 131.817 196.337V196.338ZM123.75 201.589C124.067 201.805 124.353 201.992 124.63 202.189C126.041 203.194 127.58 203.947 129.214 204.504C130.405 204.911 131.648 205.067 132.891 205.11C133.772 205.14 134.653 205.066 135.517 204.889C136.677 204.642 137.778 204.17 138.757 203.5C139.469 203.019 140.165 202.511 140.832 201.97C141.26 201.623 141.225 201.33 140.737 200.842C139.812 201.619 138.801 202.298 137.64 202.716C136.489 203.13 135.361 203.591 134.117 203.706C132.907 203.818 131.711 203.752 130.519 203.591C129.301 203.426 128.134 203.046 127 202.574C125.867 202.101 125.005 201.205 124.025 200.499C123.649 200.864 123.708 201.246 123.75 201.589V201.589ZM71.7332 201.656C80.7013 197.898 90.0858 196.465 99.6183 195.924C99.3085 195.909 98.9643 195.864 98.6236 195.881C96.0038 196.013 93.3792 196.09 90.7673 196.314C88.177 196.536 85.6045 196.938 83.0535 197.457C80.6124 197.96 78.1981 198.586 75.8197 199.331C74.7743 199.656 73.7546 200.063 72.7058 200.375C72.0616 200.569 71.7307 200.93 71.7332 201.655V201.656ZM112.072 196.138C109.768 195.926 107.477 195.813 105.182 195.934L112.072 196.138ZM113.034 196.202V196.186L112.845 196.21L113.034 196.202Z" fill="black"/>
<path d="M133.734 163.733C133.832 163.69 133.939 163.661 134.025 163.601C134.615 163.184 135.371 163.486 135.57 164.266C135.601 164.39 135.642 164.512 135.683 164.65C135.862 164.562 136.022 164.466 136.193 164.404C136.561 164.265 136.924 164.285 137.218 164.563C137.521 164.851 137.661 165.233 137.479 165.621C137.309 165.982 137.056 166.31 136.816 166.631C136.718 166.762 136.564 166.849 136.423 166.965C137.013 167.278 137.219 167.237 137.481 166.723C137.636 166.418 137.74 166.086 137.869 165.767C138.181 164.998 138.462 164.804 139.276 164.798C139.383 164.798 139.492 164.794 139.599 164.802C140.126 164.843 140.503 164.618 140.784 164.178C141.236 163.471 141.718 162.783 142.161 162.07C142.573 161.405 143.13 161.135 143.905 161.283C144.481 161.394 145.004 161.25 145.494 160.916C146.1 160.507 146.651 160.02 147.131 159.469C147.836 158.657 148.578 157.876 149.33 157.107C149.938 156.486 150.719 156.194 151.563 156.038C152.428 155.878 153.307 155.757 154.094 155.318C154.414 155.141 154.758 154.996 155.046 154.777C156.058 154.014 157.105 153.293 157.964 152.342C158.603 151.634 159.447 151.336 160.382 151.279C160.619 151.263 160.856 151.263 161.093 151.279C162.115 151.352 162.87 150.889 163.475 150.113C163.59 149.958 163.718 149.812 163.856 149.677C163.999 149.544 164.16 149.53 164.298 149.702C163.741 151.145 162.681 151.894 161.17 151.925C160.72 151.935 160.268 151.949 159.819 151.988C159.283 152.038 158.863 152.317 158.468 152.677C157.575 153.485 156.685 154.3 155.743 155.046C154.701 155.872 153.525 156.439 152.176 156.589C151.814 156.63 151.457 156.72 151.1 156.799C150.54 156.924 150.055 157.181 149.664 157.611C148.868 158.486 148.059 159.35 147.268 160.229C146.713 160.846 146.056 161.326 145.338 161.725C144.949 161.942 144.522 161.947 144.082 161.896C142.968 161.768 142.967 161.778 142.374 162.715C141.983 163.333 141.579 163.945 141.199 164.569C140.837 165.164 140.325 165.414 139.633 165.378C138.525 165.321 138.529 165.337 138.116 166.398C138.007 166.677 137.892 166.962 137.728 167.209C137.418 167.678 137.094 167.776 136.561 167.615C136.399 167.566 136.242 167.503 136.002 167.418C135.849 167.772 135.707 168.098 135.567 168.422C135.457 168.677 135.326 168.894 134.99 168.703L135.427 167.687L135.332 167.589L133.964 168.434C133.92 168.237 133.876 168.084 133.851 167.926C133.756 167.332 133.687 166.733 133.572 166.142C133.434 165.434 133.398 164.736 133.598 164.036L133.734 163.733Z" fill="black"/>
<path d="M170.119 167.662C169.946 167.913 169.807 168.073 169.714 168.253C169.286 169.089 168.699 169.796 168.037 170.45C167.583 170.899 167.041 171.057 166.439 170.854C166.016 170.703 165.604 170.518 165.21 170.301C164.664 170.011 164.245 170.055 163.827 170.515C163.64 170.722 163.5 170.969 163.323 171.185C162.722 171.914 162.137 172.657 161.503 173.357C160.925 173.996 160.155 174.269 159.304 174.274C158.788 174.278 158.272 174.249 157.759 174.188C156.768 174.069 155.936 174.374 155.233 175.061C155.036 175.258 154.865 175.483 154.669 175.681C153.825 176.539 153.032 177.459 152.112 178.228C151.119 179.059 149.948 179.551 148.589 179.334C147.953 179.232 147.465 179.461 147.104 180.01C146.69 180.638 146.227 181.234 145.809 181.859C145.245 182.703 144.418 183.117 143.468 183.329C143.133 183.407 142.79 183.448 142.446 183.452C141.891 183.452 141.516 183.687 141.237 184.16C140.933 184.677 140.603 185.183 140.254 185.673C139.674 186.493 138.889 186.787 137.89 186.608C137.079 186.464 137.004 186.543 136.713 187.329C136.629 187.573 136.525 187.809 136.403 188.036C136.032 188.682 135.562 188.759 134.85 188.24C135.027 188.187 135.157 188.105 135.271 188.122C135.727 188.193 135.952 187.944 136.102 187.574C136.2 187.335 136.286 187.092 136.372 186.849C136.576 186.273 136.967 185.972 137.592 186.001C137.85 186.013 138.109 185.999 138.366 186.017C138.858 186.051 139.259 185.881 139.553 185.494C139.838 185.12 140.103 184.731 140.362 184.338C140.48 184.159 140.558 183.956 140.662 183.766C141.031 183.085 141.607 182.741 142.379 182.689C142.743 182.669 143.105 182.616 143.46 182.532C144.189 182.349 144.798 181.985 145.234 181.338C145.67 180.691 146.147 180.087 146.603 179.462C147.102 178.779 147.761 178.447 148.61 178.562C149.882 178.736 150.939 178.267 151.841 177.435C152.66 176.678 153.444 175.879 154.211 175.068C154.949 174.29 155.71 173.571 156.839 173.445C157.157 173.411 157.478 173.406 157.798 173.429C158.527 173.481 159.26 173.618 159.973 173.372C160.291 173.262 160.62 173.113 160.872 172.898C161.627 172.258 162.298 171.532 162.845 170.695C163.042 170.389 163.278 170.108 163.545 169.859C164.13 169.322 164.796 169.243 165.512 169.613C165.797 169.761 166.092 169.892 166.383 170.028C166.875 170.257 167.327 170.165 167.675 169.775C168.161 169.234 168.61 168.657 169.063 168.087C169.183 167.939 169.256 167.751 169.365 167.591C169.766 167.001 170.181 166.895 170.787 167.274C171.076 167.454 171.32 167.706 171.584 167.926C172.057 168.319 172.382 168.35 172.839 167.946C173.089 167.725 173.27 167.42 173.457 167.137C173.574 166.959 173.654 166.754 173.737 166.557C173.99 165.967 174.409 165.861 174.963 166.33C175.11 166.454 175.219 166.625 175.368 166.744C175.517 166.863 175.684 166.938 175.849 167.036C175.429 167.507 175.235 167.474 174.342 166.769C174.238 166.984 174.16 167.199 174.039 167.384C173.773 167.794 173.544 168.256 173.191 168.577C172.488 169.216 171.765 169.16 171.063 168.521C170.77 168.256 170.474 167.986 170.119 167.662Z" fill="black"/>
<path d="M135.499 182.018C135.68 182.081 135.752 182.116 135.828 182.132C136.291 182.243 136.383 182.197 136.548 181.744C136.621 181.542 136.663 181.33 136.729 181.125C136.961 180.42 137.418 179.945 138.187 179.99C139.046 180.041 139.556 179.582 139.983 178.957C140.296 178.496 140.585 178.017 140.858 177.53C141.359 176.635 141.946 176.317 142.973 176.416C143.251 176.442 143.529 176.468 143.808 176.491C144.482 176.549 144.976 176.236 145.324 175.697C145.662 175.174 145.958 174.623 146.273 174.085C146.339 173.974 146.408 173.864 146.483 173.76C147.066 172.952 147.526 172.788 148.485 173.051C148.795 173.136 149.103 173.235 149.415 173.313C150.386 173.559 151.01 173.327 151.581 172.489C152.198 171.583 152.803 170.669 153.404 169.752C153.984 168.866 154.787 168.595 155.804 168.802C156.286 168.901 156.782 168.935 157.273 168.992C157.863 169.059 158.355 168.828 158.837 168.51C159.685 167.947 160.252 167.14 160.831 166.336C161.208 165.813 161.597 165.298 162.012 164.805C162.642 164.054 163.428 163.886 164.333 164.259C164.651 164.39 164.973 164.519 165.295 164.634C166.021 164.889 166.475 164.791 166.952 164.199C167.354 163.697 167.686 163.141 168.07 162.625C168.311 162.294 168.576 161.982 168.862 161.69C169.189 161.362 169.604 161.237 170.049 161.416C170.623 161.648 171.183 161.913 171.75 162.163C171.616 162.77 171.49 162.859 170.951 162.666C170.669 162.565 170.402 162.42 170.135 162.282C169.582 161.996 169.433 162.008 169.044 162.515C168.655 163.022 168.299 163.567 167.929 164.094C167.756 164.34 167.599 164.599 167.407 164.832C166.855 165.501 166.145 165.704 165.323 165.453C164.913 165.327 164.52 165.145 164.118 164.99C163.291 164.672 162.918 164.738 162.364 165.433C161.827 166.104 161.341 166.818 160.849 167.523C160.308 168.303 159.605 168.958 158.788 169.442C158.033 169.891 157.215 169.803 156.4 169.691C156.082 169.647 155.771 169.543 155.455 169.483C154.874 169.369 154.379 169.524 154.04 170.024C153.485 170.842 152.951 171.675 152.401 172.498C152.211 172.784 152.025 173.078 151.798 173.334C151.159 174.056 150.358 174.33 149.414 174.086C148.998 173.979 148.594 173.829 148.185 173.7C147.608 173.517 147.361 173.578 147.014 174.066C146.753 174.433 146.534 174.831 146.3 175.218C146.167 175.438 146.036 175.66 145.911 175.887C145.321 176.95 144.404 177.297 143.241 177.099C143.114 177.077 142.989 177.038 142.862 177.019C142.054 176.905 141.673 177.101 141.313 177.846C140.942 178.611 140.428 179.27 139.866 179.896C139.487 180.316 139.052 180.54 138.445 180.482C137.566 180.399 137.376 180.567 137.073 181.409C136.972 181.692 136.877 181.978 136.762 182.255C136.664 182.495 136.474 182.63 136.2 182.593C135.902 182.55 135.597 182.519 135.499 182.018Z" fill="black"/>
<path d="M135.028 178.153C134.941 177.868 135.143 177.737 135.336 177.672C135.972 177.458 136.294 176.966 136.521 176.39C136.782 175.732 137.266 175.374 137.939 175.195C138.237 175.116 138.562 174.973 138.772 174.759C139.359 174.16 139.93 173.538 140.436 172.871C140.992 172.137 141.71 171.682 142.537 171.326C143.127 171.072 143.732 170.801 144.228 170.408C145.254 169.594 146.201 168.681 147.201 167.833C147.939 167.208 148.652 166.526 149.481 166.051C150.173 165.657 151.005 165.48 151.795 165.287C152.528 165.111 153.229 164.818 153.869 164.42C155.313 163.519 156.673 162.491 157.935 161.349C158.579 160.768 159.323 160.44 160.182 160.316C160.99 160.206 161.792 160.054 162.584 159.861C163.454 159.64 164.187 159.172 164.792 158.483C165.295 157.923 165.829 157.391 166.39 156.89C166.71 156.599 167.104 156.39 167.566 156.465C168.341 156.591 169.039 156.534 169.437 155.732C169.766 155.841 169.772 156.02 169.68 156.255C169.454 156.835 168.877 157.297 168.2 157.171C167.184 156.981 166.571 157.482 165.977 158.149C165.663 158.503 165.32 158.832 164.994 159.177C164.173 160.044 163.103 160.431 161.987 160.702C161.425 160.837 160.841 160.898 160.266 160.954C159.485 161.026 158.844 161.333 158.25 161.852C156.873 163.056 155.414 164.164 153.851 165.124C153.116 165.58 152.296 165.881 151.441 166.009C149.952 166.226 148.835 167.082 147.772 168.038C146.811 168.901 145.877 169.792 144.909 170.645C144.314 171.182 143.61 171.582 142.846 171.819C141.954 172.088 141.233 172.573 140.664 173.337C140.19 173.973 139.609 174.528 139.079 175.123C138.809 175.427 138.481 175.615 138.075 175.647C137.471 175.697 137.092 176.032 136.857 176.565C136.77 176.763 136.671 176.955 136.562 177.141C136.337 177.525 136.045 177.818 135.579 177.913C135.391 177.953 135.218 178.067 135.028 178.153Z" fill="black"/>
<path d="M166.273 152.317C165.874 152.711 165.575 152.307 165.093 152.219C165.044 152.298 164.973 152.461 164.861 152.587C163.849 153.722 162.614 154.505 161.143 154.905C160.812 154.996 160.474 155.065 160.141 155.154C159.423 155.345 158.783 155.669 158.223 156.175C157.362 156.955 156.483 157.716 155.596 158.466C155.006 158.966 154.393 159.443 153.776 159.913C152.818 160.643 151.723 161.1 150.555 161.332C149.205 161.599 148.224 162.326 147.422 163.42C146.635 164.494 145.781 165.525 144.902 166.527C144.192 167.337 143.302 167.908 142.193 168.016C141.5 168.084 140.992 168.379 140.611 168.978C140.207 169.612 139.726 170.196 139.283 170.806C138.852 171.4 138.625 171.475 137.909 171.239C137.807 171.205 137.705 171.17 137.606 171.129C137.287 170.999 137.052 171.122 136.9 171.396C136.755 171.658 136.65 171.943 136.52 172.214C136.412 172.44 136.314 172.687 135.93 172.688C135.969 172.54 135.979 172.424 136.028 172.326C136.208 171.959 136.383 171.588 136.592 171.237C136.878 170.754 137.238 170.619 137.794 170.742C138.639 170.928 138.635 170.926 139.149 170.215C139.553 169.657 139.969 169.108 140.372 168.549C140.556 168.284 140.792 168.058 141.065 167.886C141.338 167.714 141.644 167.598 141.962 167.546C143.056 167.346 143.981 166.816 144.695 165.956C145.504 164.98 146.325 164.011 147.083 162.996C147.927 161.865 148.952 161.064 150.352 160.748C151.734 160.435 152.989 159.845 154.081 158.918C155.212 157.958 156.402 157.066 157.494 156.065C158.465 155.174 159.575 154.651 160.837 154.359C162.231 154.035 163.443 153.368 164.408 152.295C165.12 151.502 165.463 151.486 166.273 152.317Z" fill="black"/>
<path d="M138.164 161.538C138.042 161.971 137.946 162.319 137.845 162.665C137.656 163.305 137.409 163.424 136.802 163.163C136.627 163.086 136.453 163.005 136.268 162.921C136.222 162.588 136.4 162.563 136.648 162.634C136.852 162.693 137.054 162.757 137.32 162.838C137.412 162.56 137.509 162.305 137.582 162.043C137.807 161.232 138.032 161.083 138.878 161.206C139.601 161.311 139.784 161.221 140.085 160.556C140.218 160.263 140.304 159.949 140.418 159.647C140.69 158.928 141.114 158.632 141.887 158.628C142.103 158.62 142.318 158.632 142.531 158.665C143.081 158.772 143.527 158.567 143.844 158.158C144.142 157.77 144.368 157.324 144.602 156.891C144.745 156.627 144.828 156.332 144.963 156.064C145.369 155.26 146.021 154.782 146.91 154.632C146.973 154.618 147.038 154.61 147.102 154.608C148.89 154.62 150.053 153.618 151.001 152.237C151.409 151.658 151.85 151.102 152.321 150.572C152.847 149.968 153.501 149.595 154.329 149.537C154.799 149.503 155.28 149.449 155.727 149.31C156.47 149.077 157.147 148.706 157.697 148.129C158.034 147.767 158.393 147.426 158.773 147.109C159.384 146.61 160.079 146.394 160.88 146.572C161.235 146.651 161.607 146.648 161.965 146.716C162.084 146.739 162.241 146.849 162.278 146.955C162.345 147.155 162.197 147.293 162.005 147.303C161.71 147.318 161.391 147.352 161.113 147.272C159.977 146.945 159.136 147.396 158.449 148.241C157.371 149.566 155.974 150.2 154.286 150.226C153.784 150.234 153.342 150.397 153.017 150.767C152.48 151.381 151.984 152.033 151.457 152.654C150.986 153.209 150.516 153.77 150 154.282C149.343 154.934 148.505 155.187 147.591 155.211C147.397 155.216 147.203 155.218 147.009 155.227C146.324 155.261 145.829 155.603 145.515 156.197C145.354 156.5 145.239 156.828 145.087 157.136C144.877 157.559 144.694 158.002 144.423 158.386C143.909 159.121 143.194 159.437 142.288 159.239C142.143 159.203 141.995 159.176 141.846 159.16C141.345 159.124 141.135 159.249 140.938 159.704C140.853 159.901 140.796 160.111 140.72 160.311C140.635 160.532 140.561 160.759 140.449 160.966C140.027 161.745 139.676 161.894 138.811 161.687C138.627 161.642 138.443 161.602 138.164 161.538Z" fill="black"/>
<path d="M134.349 172.728C134.059 172.039 133.796 171.455 133.572 170.859C133.51 170.691 133.542 170.478 133.568 170.291C133.602 170.027 133.786 169.835 134.036 169.832C134.219 169.832 134.413 169.959 134.585 170.06C134.668 170.109 134.71 170.227 134.782 170.33C134.88 170.264 134.963 170.205 135.05 170.154C135.264 170.03 135.486 169.949 135.71 170.124C135.816 170.201 135.895 170.309 135.936 170.433C135.977 170.558 135.978 170.692 135.939 170.817C135.878 171.038 135.778 171.272 135.627 171.44C135.255 171.854 134.844 172.234 134.349 172.728Z" fill="black"/>
<path d="M133.592 177.1C133.592 176.545 133.592 176.097 133.592 175.649C133.587 175.564 133.599 175.479 133.626 175.398C133.724 175.155 133.841 174.922 134.157 174.917C134.521 174.912 134.599 175.189 134.64 175.459C134.957 175.481 135.305 175.314 135.433 175.73C135.52 176.015 135.334 176.353 134.944 176.542C134.546 176.739 134.124 176.886 133.592 177.1Z" fill="black"/>
<path d="M130.056 187.5C129.54 187.572 129.292 187.277 129.18 186.906C129.071 186.545 129.065 186.153 129.004 185.699C128.734 185.725 128.489 185.751 128.243 185.773C127.617 185.828 127.17 185.857 127.278 184.877C127.341 184.3 127.372 183.72 127.404 183.141C127.411 183.02 127.362 182.895 127.324 182.689C127.038 182.689 126.764 182.702 126.493 182.685C126.238 182.668 125.975 182.651 125.734 182.576C125.278 182.435 125.152 182.232 125.212 181.751C125.261 181.351 125.351 180.957 125.44 180.465C125.149 180.509 124.924 180.527 124.708 180.581C124.333 180.673 123.97 180.821 123.59 180.883C123 180.981 122.771 180.735 122.88 180.157C122.959 179.734 123.093 179.32 123.172 178.9C123.235 178.585 123.266 178.264 123.264 177.942C123.251 177.37 123.086 177.229 122.535 177.418C121.888 177.64 121.273 177.955 120.644 178.231C120.369 178.352 120.097 178.479 119.82 178.595C119.72 178.635 119.616 178.662 119.509 178.674C118.662 178.781 118.253 178.341 118.509 177.533C118.657 177.067 118.923 176.638 119.139 176.194C119.242 175.982 119.378 175.781 119.45 175.559C119.56 175.227 119.435 175.05 119.085 175.067C118.635 175.095 118.186 175.15 117.743 175.234C117.299 175.316 116.86 175.422 116.428 175.552C115.971 175.687 115.534 175.65 115.1 175.492C114.616 175.317 114.451 175.006 114.548 174.487C114.606 174.178 114.655 173.867 114.713 173.527C114.241 173.405 113.904 173.605 113.554 173.747C113.259 173.867 112.964 174.026 112.652 174.08C112.025 174.188 111.708 173.853 111.788 173.235C111.817 173.009 111.844 172.783 111.887 172.426C111.503 172.549 111.227 172.63 110.956 172.726C110.693 172.82 110.441 172.949 110.175 173.027C109.486 173.232 109.127 172.947 109.172 172.24C109.183 172.048 109.229 171.859 109.25 171.666C109.272 171.474 109.282 171.288 109.307 170.978C109.008 171.106 108.782 171.191 108.569 171.3C108.302 171.437 108.056 171.621 107.783 171.738C107.258 171.959 106.955 171.744 106.957 171.176C106.957 170.939 106.983 170.703 106.989 170.466C106.995 170.254 106.989 170.042 106.989 169.733C106.694 169.808 106.44 169.831 106.226 169.936C105.304 170.393 104.394 170.875 103.48 171.348C103.423 171.378 103.371 171.417 103.315 171.45C102.977 171.647 102.614 171.731 102.282 171.486C101.982 171.263 101.91 170.913 101.987 170.551C102.135 169.862 102.301 169.174 102.456 168.481C102.511 168.239 102.557 167.994 102.614 167.718C102.073 167.62 101.712 167.874 101.367 168.112C100.531 168.684 99.7182 169.283 98.8917 169.866C98.7026 170.008 98.4992 170.131 98.2849 170.232C97.8606 170.413 97.5769 170.202 97.6747 169.755C97.768 169.358 97.9022 168.971 98.0749 168.602C98.3764 167.936 98.7141 167.288 99.0844 166.531C98.874 166.617 98.7446 166.653 98.6315 166.718C97.6545 167.276 96.7533 167.93 96.0118 168.79C95.8594 168.967 95.6642 169.11 95.4778 169.255C95.2914 169.4 95.0594 169.483 94.8951 169.297C94.7919 169.181 94.7432 168.927 94.7968 168.778C95.0633 168.007 95.3731 167.253 95.6602 166.487C95.7536 166.241 95.8244 165.981 95.9356 165.635C95.0658 165.805 94.4654 166.202 93.9122 166.676C93.1255 167.348 92.3629 168.044 91.5772 168.715C91.327 168.918 91.0604 169.1 90.7801 169.259C90.5476 169.399 90.2535 169.471 90.0662 169.252C89.9971 169.163 89.9464 169.061 89.9171 168.952C89.8878 168.843 89.8805 168.73 89.8956 168.618C89.9998 168.093 90.1335 167.564 90.341 167.073C90.6852 166.261 91.0865 165.475 91.4803 164.686C91.5664 164.514 91.7212 164.376 91.8737 164.188C92.0821 164.574 91.9066 164.81 91.796 165.062C91.3726 166.026 90.9429 166.987 90.5436 167.961C90.4369 168.223 90.4291 168.524 90.3755 168.808L90.4984 168.889C90.7305 168.752 90.9842 168.643 91.1907 168.472C92.0059 167.804 92.7867 167.094 93.6192 166.446C94.1601 166.029 94.7594 165.69 95.3441 165.335C95.4954 165.252 95.6635 165.205 95.8358 165.196C96.1799 165.169 96.4032 165.34 96.3638 165.682C96.3211 166.058 96.1873 166.429 96.0536 166.787C95.8569 167.31 95.6229 167.82 95.4144 168.336C95.3686 168.449 95.3568 168.576 95.4213 168.771C95.5722 168.642 95.7404 168.53 95.8716 168.383C96.6584 167.506 97.6211 166.858 98.6094 166.245C98.8553 166.094 99.107 165.842 99.4271 166.069C99.6489 166.227 99.6307 166.567 99.4015 167.023C99.1016 167.619 98.785 168.207 98.4953 168.808C98.3611 169.095 98.2649 169.399 98.2092 169.711C99.1434 169.258 99.9645 168.683 100.752 168.056C101.244 167.666 101.746 167.297 102.395 167.213C102.876 167.151 103.152 167.36 103.124 167.848C103.105 168.208 102.986 168.563 102.913 168.92C102.799 169.467 102.679 170.012 102.578 170.56C102.552 170.7 102.587 170.851 102.6 171.105C102.861 171.029 103.082 170.997 103.273 170.903C104.198 170.448 105.113 169.973 106.036 169.514C106.207 169.428 106.405 169.397 106.579 169.317C107.21 169.03 107.583 169.395 107.563 170.113C107.556 170.328 107.504 170.54 107.489 170.753C107.476 170.942 107.486 171.132 107.486 171.437C107.748 171.303 107.946 171.203 108.142 171.1C108.447 170.941 108.74 170.756 109.056 170.626C109.458 170.461 109.676 170.587 109.751 171.002C109.777 171.145 109.751 171.297 109.736 171.445C109.71 171.723 109.656 172.001 109.651 172.281C109.644 172.649 109.77 172.739 110.128 172.632C110.374 172.559 110.611 172.451 110.851 172.358C111.031 172.288 111.206 172.202 111.392 172.146C112.08 171.937 112.413 172.231 112.332 172.96C112.312 173.148 112.292 173.337 112.272 173.525C112.638 173.738 112.922 173.571 113.221 173.456C113.62 173.303 114.021 173.138 114.436 173.048C114.878 172.952 115.097 173.122 115.14 173.574C115.168 173.87 115.108 174.171 115.067 174.466C115.005 174.916 115.075 175.07 115.516 175.142C115.782 175.186 116.071 175.154 116.34 175.106C117.166 174.959 117.983 174.771 118.809 174.636C119.919 174.456 120.221 175.211 119.77 176.048C119.545 176.465 119.295 176.871 119.114 177.305C119.015 177.545 118.913 177.905 119.022 178.086C119.207 178.396 119.577 178.218 119.844 178.106C120.358 177.89 120.847 177.614 121.359 177.392C121.771 177.213 122.191 177.038 122.624 176.922C123.272 176.747 123.656 176.974 123.706 177.644C123.747 178.19 123.642 178.752 123.565 179.302C123.512 179.677 123.397 180.043 123.284 180.52C123.661 180.436 123.947 180.383 124.228 180.31C124.56 180.222 124.883 180.093 125.219 180.026C125.615 179.946 125.861 180.129 125.866 180.528C125.871 180.868 125.802 181.211 125.753 181.551C125.682 182.032 125.734 182.131 126.207 182.2C126.502 182.242 126.807 182.236 127.108 182.249C127.669 182.274 127.894 182.463 127.91 183.033C127.924 183.525 127.861 184.02 127.835 184.514C127.82 184.764 127.805 185.014 127.786 185.307C128.194 185.283 128.532 185.242 128.867 185.249C129.299 185.257 129.514 185.404 129.533 185.797C129.556 186.416 129.662 186.984 130.056 187.5Z" fill="black"/>
<path d="M128.948 170.336C129.207 170.314 129.351 170.307 129.494 170.29C130.217 170.204 130.33 170.344 130.087 171.132C129.972 170.98 129.882 170.86 129.781 170.727C129.628 170.751 129.46 170.786 129.289 170.803C128.778 170.856 128.529 170.601 128.59 170.082C128.626 169.769 128.682 169.459 128.743 169.049C128.34 169.098 128.026 169.119 127.718 169.172C127.032 169.29 126.54 169.025 126.229 168.422C126.074 168.116 125.939 167.8 125.824 167.477C125.64 166.971 125.639 166.945 125.086 166.969C124.678 166.985 124.272 167.031 123.87 167.106C122.725 167.327 122.137 166.865 122.109 165.694C122.105 165.5 122.119 165.306 122.109 165.113C122.086 164.711 121.999 164.616 121.59 164.65C121.315 164.672 121.046 164.764 120.776 164.83C120.192 164.974 119.616 165.162 119.025 165.258C118.14 165.402 117.822 165.111 117.807 164.225C117.799 163.774 117.821 163.322 117.817 162.869C117.817 162.771 117.761 162.673 117.703 162.487C116.928 162.739 116.179 162.982 115.433 163.225C115.045 163.352 114.661 163.49 114.271 163.607C114.127 163.649 113.976 163.668 113.826 163.663C112.892 163.638 112.542 163.237 112.671 162.306C112.738 161.814 112.864 161.335 112.963 160.851C113.031 160.515 113.098 160.179 112.963 159.856C112.597 159.709 112.296 159.851 111.998 159.962C111.393 160.186 110.798 160.434 110.191 160.65C109.929 160.747 109.657 160.813 109.38 160.847C108.63 160.933 108.208 160.574 108.236 159.828C108.255 159.295 108.367 158.765 108.436 158.233C108.482 157.876 108.524 157.518 108.566 157.179C108.15 156.899 107.789 157.023 107.46 157.154C106.642 157.481 105.833 157.832 105.03 158.195C103.795 158.754 103.03 158.248 103.113 156.896C103.136 156.512 103.223 156.131 103.274 155.748C103.299 155.563 103.307 155.376 103.323 155.163C102.782 155.17 102.412 155.425 102.033 155.665C101.471 156.022 100.907 156.377 100.327 156.704C100.1 156.826 99.8533 156.907 99.5981 156.942C99.102 157.014 98.7972 156.733 98.8606 156.231C98.9127 155.83 99.0543 155.44 99.1644 155.05C99.2564 154.723 99.3611 154.399 99.4934 153.958C99.0223 154.105 98.7662 154.391 98.4608 154.59C98.1771 154.775 98.0434 155.216 97.4922 155.109C97.5507 154.912 97.5586 154.715 97.6584 154.585C98.0532 154.069 98.5715 153.662 99.1654 153.4C99.399 153.296 99.6635 153.203 99.8931 153.413C100.123 153.622 100.064 153.868 99.9777 154.128C99.751 154.817 99.5406 155.509 99.2933 156.298C99.5499 156.267 99.7053 156.288 99.8179 156.228C100.329 155.957 100.827 155.661 101.333 155.379C101.801 155.119 102.249 154.803 102.746 154.623C103.614 154.308 103.952 154.623 103.842 155.557C103.8 155.92 103.733 156.281 103.676 156.64C103.666 156.703 103.642 156.765 103.634 156.829C103.595 157.135 103.587 157.454 103.831 157.673C104.104 157.919 104.396 157.75 104.673 157.627C105.478 157.269 106.278 156.9 107.092 156.563C107.39 156.439 107.705 156.359 108.026 156.325C108.783 156.247 109.235 156.685 109.148 157.433C109.079 158.029 108.931 158.613 108.827 159.209C108.655 160.187 108.908 160.404 109.846 160.071C110.513 159.835 111.169 159.563 111.84 159.34C112.163 159.23 112.501 159.165 112.842 159.149C113.251 159.135 113.535 159.415 113.555 159.826C113.563 160.148 113.537 160.469 113.479 160.785C113.393 161.314 113.248 161.835 113.184 162.367C113.126 162.865 113.311 163.056 113.807 163.013C114.165 162.98 114.518 162.857 114.864 162.748C115.602 162.515 116.324 162.239 117.067 162.03C117.885 161.798 118.237 162.065 118.301 162.926C118.332 163.354 118.301 163.787 118.331 164.216C118.359 164.63 118.457 164.716 118.864 164.638C119.433 164.531 119.989 164.357 120.557 164.245C120.994 164.158 121.442 164.072 121.884 164.077C122.327 164.081 122.573 164.384 122.603 164.834C122.619 165.069 122.599 165.308 122.603 165.544C122.612 166.398 122.852 166.601 123.713 166.51C124.205 166.461 124.696 166.403 125.188 166.396C125.887 166.386 126.029 166.529 126.246 167.183C126.366 167.526 126.513 167.86 126.685 168.181C126.881 168.567 127.203 168.727 127.649 168.643C127.904 168.6 128.162 168.581 128.42 168.586C128.971 168.586 129.137 168.783 129.078 169.35C129.053 169.655 129.003 169.946 128.948 170.336Z" fill="black"/>
<path d="M128.591 164.588C128.94 164.563 129.255 164.529 129.572 164.52C130.252 164.502 130.513 164.737 130.575 165.413C130.59 165.584 130.58 165.757 130.59 165.929C130.601 166.102 130.622 166.274 130.64 166.44C130.201 166.559 130.063 166.508 130.009 166.121C129.962 165.787 129.999 165.441 129.999 165.117C129.647 164.899 129.335 164.958 129.019 165.03C128.203 165.215 127.839 164.902 127.907 164.057C127.921 163.865 127.983 163.677 128.002 163.485C128.019 163.319 128.006 163.15 128.006 162.895C127.772 162.928 127.57 162.944 127.373 162.984C126.454 163.173 125.967 162.787 125.947 161.843C125.947 161.736 125.947 161.628 125.947 161.52C125.955 160.592 125.559 160.249 124.625 160.368C124.349 160.411 124.069 160.436 123.789 160.441C122.94 160.433 122.486 159.942 122.522 159.09C122.534 158.811 122.587 158.532 122.571 158.254C122.55 157.86 122.351 157.718 121.966 157.805C121.759 157.851 121.566 157.957 121.365 158.03C120.922 158.193 120.49 158.41 120.033 158.501C119.206 158.666 118.829 158.249 119.033 157.443C119.143 157.006 119.31 156.583 119.437 156.15C119.514 155.888 119.564 155.619 119.63 155.336C119.213 155.184 118.892 155.279 118.594 155.464C118.156 155.736 117.734 156.035 117.29 156.297C116.995 156.471 116.69 156.644 116.367 156.745C115.846 156.907 115.506 156.671 115.489 156.133C115.476 155.751 115.528 155.361 115.593 154.982C115.691 154.41 115.842 153.85 115.941 153.276C116.063 152.57 115.793 152.305 115.13 152.552C114.389 152.829 113.684 153.203 112.967 153.543C112.734 153.653 112.522 153.809 112.286 153.906C111.548 154.209 111.027 153.921 110.962 153.136C110.917 152.583 110.962 152.022 110.969 151.463C110.969 151.269 111.001 151.073 110.979 150.883C110.925 150.423 110.665 150.238 110.216 150.352C110.009 150.409 109.812 150.499 109.632 150.617C109.014 151.007 108.406 151.415 107.795 151.817C107.724 151.866 107.657 151.921 107.585 151.965C107.013 152.33 106.639 152.2 106.529 151.522C106.452 151.041 106.501 150.538 106.51 150.046C106.516 149.663 106.547 149.279 106.568 148.875C105.883 148.58 105.287 148.603 104.721 149.041C104.433 149.265 104.156 149.513 103.843 149.696C103.151 150.1 102.626 149.794 102.674 148.994C102.707 148.442 102.831 147.895 102.931 147.24C102.694 147.279 102.484 147.27 102.315 147.349C101.966 147.514 101.64 147.727 101.303 147.917C100.839 148.178 100.516 148.016 100.549 147.499C100.582 146.966 100.68 146.437 100.758 145.842C101.151 146.044 101.119 146.341 101.096 146.629C101.075 146.905 101.044 147.179 101.007 147.56C101.415 147.363 101.733 147.202 102.057 147.054C103.11 146.573 103.447 146.805 103.354 147.947C103.333 148.203 103.279 148.458 103.263 148.716C103.252 148.894 103.28 149.075 103.297 149.388C103.681 149.176 103.985 149.066 104.216 148.868C104.852 148.32 105.585 148.185 106.385 148.247C106.825 148.282 107.035 148.4 107.106 148.838C107.178 149.275 107.146 149.734 107.152 150.183C107.158 150.604 107.152 151.025 107.152 151.56C107.411 151.419 107.59 151.327 107.762 151.225C108.428 150.831 109.072 150.394 109.761 150.044C110.799 149.516 111.549 149.992 111.583 151.164C111.593 151.529 111.554 151.894 111.534 152.259C111.531 152.302 111.502 152.348 111.511 152.386C111.587 152.73 111.563 153.193 111.779 153.393C112.036 153.63 112.404 153.301 112.71 153.157C113.429 152.82 114.133 152.442 114.873 152.167C116.024 151.74 116.629 152.23 116.502 153.462C116.445 154.015 116.282 154.557 116.191 155.108C116.132 155.461 116.115 155.822 116.08 156.183C116.457 156.321 116.694 156.147 116.924 156.013C117.389 155.744 117.832 155.436 118.3 155.174C118.563 155.028 118.842 154.915 119.132 154.838C119.821 154.654 120.239 155.024 120.122 155.729C120.048 156.172 119.885 156.599 119.773 157.037C119.701 157.319 119.651 157.606 119.587 157.91C120.136 158.093 120.535 157.838 120.949 157.696C121.273 157.585 121.581 157.411 121.912 157.343C122.685 157.184 123.051 157.463 123.141 158.244C123.176 158.539 123.171 158.844 123.18 159.144C123.196 159.665 123.401 159.892 123.918 159.915C124.174 159.927 124.433 159.881 124.691 159.878C124.924 159.876 125.162 159.869 125.389 159.914C126.288 160.092 126.609 160.543 126.535 161.471C126.52 161.64 126.527 161.81 126.557 161.978C126.639 162.41 126.797 162.523 127.221 162.473C127.327 162.461 127.429 162.416 127.535 162.399C128.321 162.271 128.681 162.606 128.598 163.397C128.573 163.632 128.529 163.866 128.518 164.102C128.52 164.243 128.562 164.386 128.591 164.588Z" fill="black"/>
<path d="M96.9632 160.793C96.2512 160.821 95.7689 161.187 95.2915 161.541C94.9187 161.814 94.5288 162.03 94.0666 162.078C93.6905 162.118 93.5985 162.029 93.5061 161.571C94.047 161.628 94.4954 161.423 94.9178 161.105C95.3982 160.742 95.9012 160.407 96.5094 160.284C97.1343 160.158 97.3989 160.321 97.5321 160.928C97.6555 161.491 97.8404 161.637 98.4113 161.513C98.7855 161.431 99.1439 161.27 99.5038 161.131C100.088 160.902 100.722 160.832 101.342 160.929C102.109 161.047 102.642 161.432 102.826 162.24C102.976 162.903 103.23 163.046 103.943 162.969C104.561 162.902 105.179 162.797 105.8 162.783C106.827 162.761 107.082 163.017 107.244 164.022C107.3 164.403 107.392 164.778 107.518 165.142C107.689 165.61 108.069 165.856 108.565 165.872C108.972 165.886 109.381 165.861 109.789 165.843C110.368 165.818 110.947 165.758 111.526 165.758C112.541 165.758 113.24 166.255 113.425 167.239C113.675 168.562 114.389 169.237 115.742 169.282C116.492 169.308 117.24 169.414 117.988 169.487C119.424 169.626 120.742 170.144 122.02 170.766C122.599 171.047 123.049 171.498 123.294 172.088C123.496 172.575 123.825 172.736 124.301 172.692C124.663 172.661 125.024 172.612 125.382 172.545C126.343 172.359 126.804 172.705 126.882 173.688C126.894 173.83 126.926 173.971 126.955 174.15C127.159 174.101 127.319 174.052 127.482 174.019C128.058 173.91 128.278 174.068 128.354 174.655C128.375 174.818 128.357 174.985 128.357 175.3L128.838 174.719C128.982 175.169 128.838 175.605 128.514 175.785C128.292 175.909 128.081 175.834 128.016 175.573C127.976 175.411 127.995 175.234 127.992 175.063C127.989 174.857 127.992 174.651 127.992 174.33C127.67 174.43 127.454 174.491 127.243 174.565C126.791 174.724 126.608 174.627 126.529 174.158C126.504 174.01 126.515 173.857 126.506 173.707C126.467 173.027 126.231 172.854 125.542 172.978C125.12 173.053 124.698 173.133 124.272 173.171C123.628 173.23 123.163 173.024 122.929 172.338C122.719 171.726 122.24 171.33 121.642 171.055C119.931 170.268 118.135 169.913 116.261 169.874C115.792 169.864 115.324 169.764 114.859 169.685C114.009 169.541 113.498 168.996 113.197 168.225C113.096 167.965 113.028 167.692 112.951 167.423C112.735 166.656 112.311 166.31 111.514 166.31C111.042 166.31 110.571 166.367 110.098 166.384C109.563 166.404 109.026 166.434 108.491 166.412C107.742 166.383 107.242 165.961 106.997 165.276C106.855 164.876 106.796 164.443 106.718 164.022C106.625 163.519 106.521 163.357 106.02 163.347C105.466 163.336 104.91 163.435 104.354 163.471C103.992 163.493 103.625 163.52 103.266 163.487C102.816 163.446 102.528 163.172 102.406 162.73C102.367 162.583 102.318 162.443 102.281 162.297C102.15 161.793 101.789 161.539 101.306 161.489C100.771 161.433 100.236 161.45 99.7197 161.668C99.3438 161.826 98.956 161.954 98.5598 162.051C98.3294 162.099 98.0919 162.102 97.8606 162.058C97.2877 161.96 97.1466 161.804 97.0389 161.228C97.0173 161.103 96.9962 160.979 96.9632 160.793Z" fill="black"/>
<path d="M131.294 169.959C130.663 169.549 130.101 169.204 129.565 168.823C129.421 168.721 129.319 168.518 129.263 168.341C129.108 167.87 129.491 167.489 129.977 167.613C130.083 167.648 130.187 167.689 130.288 167.736C130.34 167.617 130.399 167.501 130.463 167.388C130.768 166.913 131.283 166.915 131.509 167.428C131.624 167.687 131.649 168.018 131.616 168.303C131.558 168.812 131.425 169.31 131.294 169.959Z" fill="black"/>
<path d="M139.524 198.335C139.843 198.403 139.903 198.627 139.762 198.865C139.634 199.086 139.459 199.276 139.251 199.424C138.719 199.788 138.173 200.132 137.612 200.449C135.28 201.771 132.793 202.213 130.157 201.683C129.026 201.456 128.024 200.904 127.053 200.306C126.562 200.002 126.089 199.661 125.627 199.309C125.265 199.032 125.266 198.948 125.47 198.482C125.852 198.464 126.146 198.7 126.454 198.88C128.642 200.168 130.992 200.619 133.508 200.3C135.291 200.075 136.964 199.469 138.636 198.862C138.962 198.743 139.244 198.502 139.546 198.317L139.524 198.335Z" fill="black"/>
</g>
<g clip-path="url(#clip1)">
<path d="M125.164 402.5V402.5C125.164 403.348 125.308 404.163 125.574 404.922L124.911 407.396L122.67 407.443C121.922 405.958 121.5 404.279 121.5 402.5C121.5 400.806 121.882 399.203 122.566 397.771L124.541 398.133L125.498 400.305C125.281 400.998 125.164 401.736 125.164 402.5Z" fill="white" stroke="#3F3D56"/>
<path d="M138.902 404.401H133.253V400.852H138.992H143.377C143.458 401.389 143.5 401.939 143.5 402.5C143.5 403.288 143.417 404.056 143.259 404.797L143.259 404.797C142.738 407.254 141.396 409.407 139.533 410.958L136.847 410.821L136.499 408.651C137.801 407.803 138.817 406.553 139.37 405.077L139.623 404.401H138.902Z" fill="white" stroke="#3F3D56"/>
<path d="M138.892 411.453C137.091 412.742 134.885 413.5 132.5 413.5C128.458 413.5 124.925 411.321 123.012 408.071L125.901 405.706C127.09 408.151 129.598 409.836 132.5 409.836C133.726 409.836 134.883 409.535 135.899 409.003L138.892 411.453Z" fill="white" stroke="#3F3D56"/>
<path d="M132.5 395.164C129.533 395.164 126.978 396.926 125.822 399.459L122.923 397.086C124.812 393.75 128.394 391.5 132.5 391.5C134.95 391.5 137.213 392.301 139.041 393.656L136.068 396.089C135.012 395.5 133.795 395.164 132.5 395.164Z" fill="white" stroke="#3F3D56"/>
</g>
<defs>
<clipPath id="clip0">
<rect width="137" height="95" fill="white" transform="translate(65 112)"/>
</clipPath>
<clipPath id="clip1">
<rect width="23" height="23" fill="white" transform="translate(121 391)"/>
</clipPath>
</defs>
</svg>
