<svg width="283" height="234" viewBox="0 0 283 234" fill="none" xmlns="http://www.w3.org/2000/svg">
<path d="M138.7 94.5C154.9 101.4 175.9 109.2 181.9 122.6C187.9 136.1 178.9 155.2 167.2 170.3C155.5 185.4 141.2 196.5 126.6 197.7C112.1 199 97.3 190.3 79.3 185.9C61.2 181.5 39.7 181.4 31.9 171.5C24 161.7 29.7 142.1 33.1 122.1C36.6 102.1 37.7 81.7 48.5 73.7C59.3 65.8 79.6 70.4 95.5 75.9C111.3 81.3 122.5 87.5 138.7 94.5Z" fill="#FF4133" fill-opacity="0.5"/>
<circle cx="185" cy="98" r="98" fill="white"/>
<g clip-path="url(#clip0)">
<path d="M228.831 51.2871C219.947 43.6002 208.87 40.4973 197.42 39.1264C166.925 29.3995 139.722 49.5162 127.845 77.41C115.042 107.474 121.133 141.036 148.894 159.784C177.235 178.924 216.185 171.056 237.926 145.861C261.684 118.324 255.819 74.6438 228.831 51.2871ZM176.596 160.536C160.519 158.247 144.918 148.355 136.771 134.25C129.488 121.638 129.549 105.846 132.814 92.0714C137.833 70.895 153.019 51.783 172.867 47.2087C172.897 47.2102 172.921 47.2188 172.951 47.2188C180.095 47.4303 187.637 47.4427 195.011 48.2401C195.709 48.4588 196.409 48.6761 197.111 48.933C198.274 49.3567 199.29 49.3023 200.142 48.9533C208.097 50.2924 215.693 52.8413 222.175 57.9415C236.514 69.224 244.073 89.5689 243.658 107.388C242.882 140.976 208.412 165.063 176.596 160.536Z" fill="black"/>
<path d="M168.702 97.3187C175.368 97.3187 175.368 86.9814 168.702 86.9814C162.037 86.9811 162.037 97.3187 168.702 97.3187Z" fill="black"/>
<path d="M204.366 97.8348C211.03 97.8348 211.03 87.498 204.366 87.498C197.699 87.498 197.699 97.8348 204.366 97.8348Z" fill="black"/>
<path d="M206.913 115.372C194.53 127.677 178.554 126.45 166.155 114.854C161.293 110.308 153.967 117.603 158.845 122.165C175.345 137.596 197.803 138.997 214.222 122.681C218.956 117.977 211.644 110.67 206.913 115.372Z" fill="black"/>
</g>
<defs>
<clipPath id="clip0">
<rect width="133.791" height="133.791" fill="white" transform="translate(120.235 36.6435)"/>
</clipPath>
</defs>
</svg>
