<svg   xmlns="http://www.w3.org/2000/svg" class="h-6 w-6">
<path fillRule="evenodd" clipRule="evenodd" d="M15.975 11.625C17.6625 10.4625 18.75 8.55 18.75 6.375C18.75 2.85 15.9 0 12.375 0C8.85 0 6 2.85 6 6.375C6 8.55 7.0875 10.4625 8.775 11.625C5.4375 12.675 3 15.825 3 19.5V24H21.75V19.5C21.75 15.825 19.3125 12.675 15.975 11.625ZM7.5 6.375C7.5 3.675 9.675 1.5 12.375 1.5C15.075 1.5 17.25 3.675 17.25 6.375C17.25 9.075 15.075 11.25 12.375 11.25C9.675 11.25 7.5 9.075 7.5 6.375ZM20.25 22.5H4.5V19.5C4.5 15.7875 7.5375 12.75 11.25 12.75H13.5C17.2125 12.75 20.25 15.7875 20.25 19.5V22.5Z" fill="#959393"/>
</svg>
