<svg width="62" height="62" viewBox="0 0 62 62" fill="none" xmlns="http://www.w3.org/2000/svg">
<circle cx="31" cy="31" r="31" fill="white"/>
<path fill-rule="evenodd" clip-rule="evenodd" d="M37.9563 28.3438C40.9094 26.3094 42.8125 22.9625 42.8125 19.1562C42.8125 12.9875 37.825 8 31.6562 8C25.4875 8 20.5 12.9875 20.5 19.1562C20.5 22.9625 22.4031 26.3094 25.3563 28.3438C19.5156 30.1812 15.25 35.6938 15.25 42.125V50H48.0625V42.125C48.0625 35.6938 43.7969 30.1812 37.9563 28.3438ZM23.125 19.1562C23.125 14.4312 26.9312 10.625 31.6562 10.625C36.3813 10.625 40.1875 14.4312 40.1875 19.1562C40.1875 23.8813 36.3813 27.6875 31.6562 27.6875C26.9312 27.6875 23.125 23.8813 23.125 19.1562ZM45.4375 47.375H17.875V42.125C17.875 35.6281 23.1906 30.3125 29.6875 30.3125H33.625C40.1219 30.3125 45.4375 35.6281 45.4375 42.125V47.375Z" fill="#3F3B3B"/>
</svg>
